{"glyphs":{"0":{"ha":1389,"x_min":87,"x_max":1302,"o":"m 825 1063 q 1026 1049 945 1063 q 1161 1005 1108 1034 q 1242 930 1214 975 q 1284 825 1271 886 q 1300 689 1297 765 q 1302 521 1302 613 q 1300 353 1302 429 q 1284 216 1297 277 q 1242 111 1271 156 q 1161 37 1214 66 q 1026 -7 1108 7 q 825 -22 945 -22 l 564 -22 q 363 -7 445 -22 q 229 37 281 7 q 147 111 176 66 q 105 216 118 156 q 90 353 92 277 q 87 521 87 429 q 90 689 87 613 q 105 825 92 765 q 147 930 118 886 q 229 1005 176 975 q 363 1049 281 1034 q 564 1063 445 1063 l 825 1063 m 825 87 q 971 92 912 87 q 1069 113 1030 97 q 1128 157 1107 128 q 1159 235 1149 186 q 1170 353 1168 283 q 1172 521 1172 423 q 1170 689 1172 618 q 1159 807 1168 759 q 1128 884 1149 855 q 1069 929 1107 913 q 971 950 1031 945 q 825 955 912 955 l 564 955 q 418 950 477 955 q 320 929 359 945 q 260 884 281 913 q 230 807 239 855 q 219 689 220 759 q 218 521 218 618 q 219 353 218 423 q 231 235 221 283 q 261 157 240 186 q 320 113 281 128 q 418 92 359 97 q 564 87 477 87 l 825 87 z "},"1":{"ha":673,"x_min":87,"x_max":586,"o":"m 412 1042 l 586 1042 l 586 0 l 456 0 l 456 933 l 152 673 l 87 760 l 412 1042 z "},"2":{"ha":1345,"x_min":87,"x_max":1259,"o":"m 87 130 q 89 211 87 171 q 98 289 91 252 q 119 358 105 326 q 157 415 133 391 q 217 456 181 440 q 304 477 253 473 l 998 543 q 1055 552 1031 545 q 1096 578 1080 559 q 1120 635 1112 597 q 1128 737 1128 672 q 1120 829 1128 791 q 1093 890 1112 866 q 1041 928 1074 915 q 961 947 1009 941 q 847 954 913 953 q 694 955 781 955 q 493 950 575 955 q 358 935 412 946 q 277 903 305 923 q 235 852 248 884 q 219 777 222 821 q 217 673 217 732 l 87 673 q 105 837 87 770 q 158 947 123 904 q 244 1015 193 991 q 363 1049 296 1038 q 514 1062 431 1060 q 694 1063 597 1063 q 872 1060 792 1063 q 1014 1046 951 1057 q 1123 1015 1077 1036 q 1199 957 1169 994 q 1244 867 1230 921 q 1259 738 1259 814 q 1249 620 1259 673 q 1215 527 1240 566 q 1149 464 1191 488 q 1042 434 1107 440 l 347 369 q 271 351 298 364 q 233 308 245 337 q 219 230 220 278 q 217 109 217 182 l 1237 109 l 1237 0 l 87 0 l 87 130 z "},"3":{"ha":1345,"x_min":87,"x_max":1259,"o":"m 998 586 q 1055 591 1031 586 q 1096 613 1080 597 q 1120 659 1112 629 q 1128 737 1128 688 q 1120 829 1128 791 q 1093 890 1112 866 q 1041 928 1074 915 q 961 947 1009 941 q 847 954 913 953 q 694 955 781 955 q 493 952 575 955 q 358 940 412 949 q 277 917 305 932 q 235 878 248 902 q 219 819 222 854 q 217 738 217 785 l 87 738 q 105 876 87 820 q 158 969 123 932 q 244 1024 193 1005 q 363 1052 296 1044 q 514 1062 431 1061 q 694 1063 597 1063 q 872 1060 792 1063 q 1014 1046 951 1057 q 1123 1015 1077 1036 q 1199 957 1169 994 q 1244 867 1230 921 q 1259 738 1259 814 q 1252 655 1259 689 q 1233 598 1246 621 q 1199 559 1219 574 q 1150 532 1179 544 q 1199 500 1179 519 q 1233 454 1219 481 q 1252 390 1246 427 q 1259 304 1259 353 q 1244 174 1259 228 q 1199 84 1230 121 q 1123 27 1169 48 q 1014 -5 1077 6 q 872 -19 951 -16 q 694 -22 792 -22 q 514 -20 597 -22 q 363 -9 431 -19 q 244 21 296 0 q 158 80 193 41 q 105 178 123 119 q 87 326 87 238 l 217 326 q 220 236 217 274 q 235 172 222 199 q 277 129 248 146 q 358 103 305 113 q 493 90 412 94 q 694 87 575 87 q 847 88 781 87 q 961 95 913 89 q 1041 114 1009 101 q 1093 151 1074 127 q 1120 213 1112 176 q 1128 304 1128 250 q 1120 396 1128 361 q 1096 448 1112 430 q 1055 472 1080 467 q 998 477 1031 477 l 521 477 l 521 586 l 998 586 z "},"4":{"ha":1389,"x_min":87,"x_max":1302,"o":"m 1128 217 l 1128 0 l 998 0 l 998 217 l 87 217 l 87 347 l 955 1042 l 1128 1042 l 1128 326 l 1302 326 l 1302 217 l 1128 217 m 998 326 l 998 955 l 217 326 l 998 326 z "},"5":{"ha":1345,"x_min":87,"x_max":1259,"o":"m 868 716 q 1018 707 955 716 q 1124 679 1080 698 q 1194 629 1167 659 q 1235 558 1220 600 q 1254 465 1249 517 q 1259 347 1259 412 q 1244 202 1259 262 q 1199 100 1230 141 q 1123 35 1169 59 q 1014 -2 1077 11 q 872 -18 951 -14 q 694 -22 792 -22 q 514 -20 597 -22 q 363 -9 431 -19 q 244 21 296 0 q 158 80 193 41 q 105 178 123 119 q 87 326 87 238 l 217 326 q 219 236 217 274 q 235 172 222 199 q 277 129 248 146 q 358 103 305 113 q 493 90 412 94 q 694 87 575 87 q 847 88 781 87 q 961 97 913 90 q 1042 120 1010 104 q 1093 165 1074 136 q 1120 239 1112 195 q 1128 348 1128 283 q 1118 486 1128 435 q 1080 565 1108 538 q 1000 600 1051 591 q 868 608 949 608 l 521 608 q 376 600 431 608 q 288 578 320 592 q 240 544 255 564 q 217 499 225 524 l 87 499 l 87 1042 l 1215 1042 l 1215 933 l 217 933 l 217 608 q 223 617 218 609 q 240 638 228 626 q 274 664 253 650 q 329 689 296 677 q 410 708 363 701 q 521 716 457 716 l 868 716 z "},"6":{"ha":1345,"x_min":87,"x_max":1259,"o":"m 651 955 q 473 951 546 955 q 352 936 400 948 q 277 898 304 923 q 236 829 250 873 q 220 721 223 786 q 217 564 217 656 q 354 613 270 596 q 564 629 438 629 l 782 629 q 1021 609 928 629 q 1167 548 1114 589 q 1239 446 1219 507 q 1259 304 1259 385 q 1239 161 1259 222 q 1167 60 1219 100 q 1021 -1 1114 19 q 782 -22 928 -22 l 564 -22 q 363 -7 445 -22 q 228 37 281 7 q 146 111 175 66 q 105 216 118 156 q 89 353 92 277 q 87 521 87 429 q 90 697 87 618 q 108 835 92 775 q 157 939 123 895 q 254 1009 191 982 q 413 1050 317 1037 q 651 1063 510 1063 q 859 1055 770 1063 q 1009 1028 947 1046 q 1112 985 1072 1010 q 1175 925 1152 959 q 1206 850 1198 891 q 1215 760 1215 808 l 1107 760 q 1103 812 1107 787 q 1085 859 1099 837 q 1042 898 1071 880 q 962 928 1013 916 q 836 948 911 941 q 651 955 760 955 m 564 521 q 439 519 493 521 q 348 511 386 517 q 284 494 309 505 q 244 463 258 482 q 223 415 229 444 q 217 347 217 387 q 223 253 217 293 q 244 183 229 212 q 284 136 258 155 q 348 106 309 117 q 439 91 386 95 q 564 87 493 87 l 782 87 q 913 91 858 87 q 1007 104 968 95 q 1069 130 1045 114 q 1106 171 1093 146 q 1124 228 1120 195 q 1128 304 1128 260 q 1124 380 1128 347 q 1106 437 1119 413 q 1069 477 1093 461 q 1006 503 1045 494 q 913 517 968 513 q 782 521 858 521 l 564 521 z "},"7":{"ha":1345,"x_min":87,"x_max":1259,"o":"m 477 0 l 304 0 l 1107 933 l 87 933 l 87 1042 l 1259 1042 l 1259 911 l 477 0 z "},"8":{"ha":1345,"x_min":87,"x_max":1259,"o":"m 760 1063 q 1000 1045 907 1063 q 1145 991 1093 1027 q 1217 903 1198 956 q 1237 781 1237 850 q 1230 708 1237 743 q 1206 646 1223 674 q 1160 594 1189 617 q 1085 553 1131 570 q 1171 508 1137 534 q 1224 448 1204 481 q 1251 376 1243 415 q 1259 293 1259 337 q 1251 199 1259 242 q 1222 121 1242 156 q 1167 59 1202 86 q 1079 15 1132 33 q 952 -13 1026 -3 q 781 -22 879 -22 l 564 -22 q 324 -1 417 -22 q 179 60 231 20 q 106 158 126 100 q 87 293 87 217 q 94 376 87 337 q 121 448 102 415 q 175 508 141 481 q 260 553 208 534 q 185 594 215 570 q 139 646 156 617 q 115 708 122 674 q 109 781 109 743 q 128 903 109 850 q 200 991 148 956 q 346 1045 253 1027 q 585 1063 439 1063 l 760 1063 m 781 87 q 912 91 857 87 q 1006 105 968 96 q 1068 131 1044 115 q 1106 170 1093 146 q 1124 223 1119 193 q 1128 293 1128 254 q 1124 361 1128 331 q 1106 414 1120 391 q 1069 453 1093 437 q 1006 479 1045 469 q 912 494 968 490 q 781 499 857 499 l 564 499 q 432 494 488 499 q 339 479 377 490 q 276 453 300 469 q 239 414 252 437 q 221 361 226 391 q 217 293 217 331 q 222 223 217 254 q 240 170 227 193 q 277 131 253 146 q 339 105 300 115 q 433 91 378 96 q 564 87 488 87 l 781 87 m 781 608 q 952 615 888 608 q 1050 643 1016 623 q 1096 696 1084 663 q 1107 781 1107 730 q 1102 841 1107 815 q 1085 887 1098 867 q 1047 919 1072 906 q 985 940 1023 932 q 891 951 946 948 q 760 955 836 955 l 585 955 q 454 951 509 955 q 360 940 399 948 q 298 919 322 932 q 261 887 274 906 q 243 841 248 867 q 239 781 239 815 q 243 720 239 746 q 261 674 248 693 q 298 642 275 654 q 361 621 322 629 q 454 611 399 614 q 585 608 509 608 l 781 608 z "},"9":{"ha":1345,"x_min":87,"x_max":1259,"o":"m 694 87 q 872 90 800 87 q 994 106 945 94 q 1069 144 1042 119 q 1109 212 1096 169 q 1125 320 1122 256 q 1128 477 1128 385 q 991 429 1076 446 q 781 412 907 412 l 564 412 q 324 433 417 412 q 179 494 231 453 q 106 595 126 534 q 87 738 87 656 q 106 880 87 819 q 179 982 126 941 q 324 1043 231 1023 q 564 1063 417 1063 l 781 1063 q 982 1049 901 1063 q 1117 1005 1064 1034 q 1199 930 1171 975 q 1241 825 1227 886 q 1256 689 1254 765 q 1259 521 1259 613 q 1256 345 1259 423 q 1238 207 1253 267 q 1188 103 1222 146 q 1092 32 1154 60 q 932 -8 1029 5 q 694 -22 836 -22 q 487 -13 575 -22 q 336 14 399 -4 q 233 57 273 31 q 171 117 193 83 q 139 192 148 151 q 131 282 131 233 l 239 282 q 243 230 239 255 q 261 183 247 205 q 304 144 275 161 q 384 113 333 126 q 510 94 434 100 q 694 87 586 87 m 781 521 q 956 526 888 521 q 1062 548 1023 530 q 1114 600 1100 566 q 1128 694 1128 635 q 1114 827 1128 776 q 1062 906 1100 878 q 956 945 1023 935 q 781 955 888 955 l 564 955 q 432 951 488 955 q 339 937 377 947 q 276 911 300 928 q 239 871 252 895 q 221 814 226 847 q 217 738 217 781 q 222 662 217 694 q 240 605 227 629 q 277 564 253 581 q 339 538 300 548 q 433 525 378 529 q 564 521 488 521 l 781 521 z "},"\r":{"ha":0,"x_min":0,"x_max":0,"o":""},"\u0000":{"ha":0,"x_min":0,"x_max":0,"o":""},"\u0002":{"ha":0,"x_min":0,"x_max":0,"o":""},"\t":{"ha":0,"x_min":0,"x_max":0,"o":""},"\n":{"ha":0,"x_min":0,"x_max":0,"o":""}," ":{"ha":304,"x_min":0,"x_max":0,"o":""},"!":{"ha":304,"x_min":87,"x_max":217,"o":"m 87 1042 l 217 1042 l 184 304 l 119 304 l 87 1042 m 217 0 l 87 0 l 87 130 l 217 130 l 217 0 z "},"\"":{"ha":521,"x_min":87,"x_max":434,"o":"m 87 1042 l 217 1042 l 195 781 l 109 781 l 87 1042 m 304 1042 l 434 1042 l 412 781 l 326 781 l 304 1042 z "},"#":{"ha":1042,"x_min":87,"x_max":955,"o":"m 566 217 l 357 217 l 281 -87 l 173 -54 l 240 217 l 87 217 l 87 326 l 267 326 l 332 586 l 130 586 l 130 694 l 358 694 l 434 998 l 543 966 l 475 694 l 684 694 l 760 998 l 869 966 l 801 694 l 955 694 l 955 586 l 774 586 l 709 326 l 911 326 l 911 217 l 683 217 l 608 -87 l 499 -54 l 566 217 m 383 326 l 593 326 l 658 586 l 448 586 l 383 326 z "},"$":{"ha":1369,"x_min":87,"x_max":1259,"o":"m 619 -24 l 564 -24 q 393 -17 467 -24 q 267 6 320 -9 q 180 44 214 21 q 124 99 145 68 q 96 171 104 131 q 87 260 87 212 l 218 260 q 235 165 218 199 q 294 113 253 130 q 400 91 334 96 q 564 87 467 87 l 619 87 l 619 477 l 608 477 q 403 486 488 477 q 260 512 318 495 q 168 553 203 528 q 116 610 134 578 q 92 681 98 642 q 87 765 87 720 q 95 853 87 812 q 127 927 104 894 q 190 985 150 960 q 293 1028 230 1011 q 444 1055 355 1046 q 619 1063 519 1062 l 619 1128 l 749 1128 l 749 1063 l 781 1063 q 952 1056 879 1063 q 1078 1034 1025 1049 q 1166 996 1131 1019 q 1222 942 1201 973 q 1251 870 1242 910 q 1259 781 1259 830 l 1128 781 q 1111 877 1128 842 q 1053 929 1093 911 q 945 950 1012 946 q 781 955 879 955 l 749 955 l 749 586 l 787 586 q 970 577 894 586 q 1100 551 1047 568 q 1183 508 1152 534 q 1232 449 1215 482 q 1254 376 1249 416 q 1259 288 1259 335 q 1250 198 1259 240 q 1220 122 1242 157 q 1161 60 1198 87 q 1066 14 1124 33 q 927 -14 1008 -5 q 749 -24 850 -24 l 749 -87 l 619 -87 l 619 -24 m 619 586 l 619 955 q 437 945 510 954 q 304 915 353 937 q 236 857 255 893 q 217 765 217 820 q 222 705 217 731 q 241 658 227 678 q 282 625 256 638 q 352 602 309 611 q 458 590 395 593 q 608 586 521 586 l 619 586 m 749 477 l 749 87 q 927 98 856 87 q 1047 132 1002 109 q 1110 194 1092 156 q 1128 288 1128 233 q 1116 379 1128 342 q 1066 437 1103 416 q 962 468 1029 459 q 787 477 895 477 l 749 477 z "},"%":{"ha":694,"x_min":43,"x_max":651,"o":"m 43 0 l 174 0 l 651 1042 l 521 1042 l 43 0 z "},"&":{"ha":1649,"x_min":87,"x_max":1563,"o":"m 1194 521 l 1324 521 l 1324 477 q 1317 297 1324 373 q 1288 168 1310 221 q 1226 82 1266 115 q 1121 31 1186 50 q 962 6 1056 13 q 738 0 868 0 q 524 2 618 0 q 357 13 429 3 q 233 43 285 22 q 149 103 182 64 q 102 201 117 142 q 87 347 87 260 q 101 460 87 412 q 139 542 116 508 q 190 597 162 576 q 244 630 218 618 q 293 647 271 642 q 326 651 315 651 q 281 684 301 667 q 247 722 261 701 q 225 767 233 742 q 217 825 217 792 q 238 933 217 890 q 296 1002 260 976 q 380 1042 332 1029 q 481 1059 428 1055 q 589 1064 534 1064 q 694 1063 644 1063 q 884 1060 803 1063 q 1023 1047 965 1057 q 1118 1017 1080 1037 q 1177 964 1155 998 q 1207 880 1198 930 q 1215 760 1215 830 l 1085 760 q 1080 842 1085 808 q 1061 897 1076 876 q 1020 930 1046 919 q 950 947 994 942 q 844 954 907 953 q 694 955 781 955 q 530 953 597 955 q 423 939 464 951 q 365 900 382 926 q 347 825 347 873 q 353 790 347 807 q 371 758 358 774 q 404 726 383 741 q 456 694 425 710 l 1563 130 l 1519 22 l 434 565 q 345 553 385 565 q 277 514 305 541 q 233 447 248 488 q 217 347 217 406 q 225 256 217 293 q 256 194 234 218 q 315 157 277 170 q 410 138 352 144 q 549 131 468 132 q 738 130 629 130 q 892 131 825 130 q 1010 138 960 132 q 1096 157 1061 144 q 1152 194 1131 170 q 1184 255 1174 218 q 1194 347 1194 292 l 1194 521 z "},"'":{"ha":304,"x_min":87,"x_max":217,"o":"m 87 1042 l 217 1042 l 195 781 l 109 781 l 87 1042 z "},"(":{"ha":521,"x_min":87,"x_max":434,"o":"m 434 -43 q 288 -20 347 -43 q 190 45 229 4 q 130 141 151 86 q 100 259 109 196 q 89 389 90 321 q 87 521 87 456 q 89 653 87 586 q 100 783 90 720 q 130 901 109 846 q 190 997 151 956 q 288 1061 229 1038 q 434 1085 347 1085 l 434 977 q 342 964 379 977 q 280 926 304 951 q 243 863 256 901 q 225 774 231 825 q 218 660 219 724 q 217 521 217 597 q 218 381 217 445 q 225 268 219 318 q 243 179 231 217 q 280 116 256 141 q 342 78 304 90 q 434 65 379 65 l 434 -43 z "},")":{"ha":521,"x_min":87,"x_max":434,"o":"m 87 65 q 179 78 141 65 q 240 116 216 90 q 277 179 264 141 q 296 268 290 217 q 303 381 302 318 q 304 521 304 445 q 303 660 304 597 q 296 774 302 724 q 277 863 290 825 q 240 926 264 901 q 179 964 216 951 q 87 977 141 977 l 87 1085 q 233 1061 174 1085 q 331 997 292 1038 q 391 901 370 956 q 421 783 412 846 q 432 653 431 720 q 434 521 434 586 q 432 389 434 456 q 421 259 431 321 q 391 141 412 196 q 331 45 370 86 q 233 -20 292 4 q 87 -43 174 -43 l 87 65 z "},"*":{"ha":960,"x_min":87,"x_max":873,"o":"m 285 260 l 179 336 l 426 608 l 87 727 l 155 848 l 448 673 l 415 1042 l 545 1042 l 513 673 l 805 848 l 873 727 l 534 608 l 781 336 l 675 260 l 480 566 l 285 260 z "},"+":{"ha":911,"x_min":87,"x_max":825,"o":"m 87 651 l 391 651 l 391 955 l 521 955 l 521 651 l 825 651 l 825 543 l 521 543 l 521 217 l 391 217 l 391 543 l 87 543 l 87 651 z "},",":{"ha":304,"x_min":43,"x_max":217,"o":"m 87 87 l 217 87 l 130 -174 l 43 -174 l 87 87 z "},"-":{"ha":694,"x_min":87,"x_max":608,"o":"m 87 456 l 608 456 l 608 347 l 87 347 l 87 456 z "},".":{"ha":304,"x_min":87,"x_max":217,"o":"m 217 0 l 87 0 l 87 130 l 217 130 l 217 0 z "},"/":{"ha":694,"x_min":43,"x_max":651,"o":"m 521 1042 l 651 1042 l 174 0 l 43 0 l 521 1042 z "},":":{"ha":304,"x_min":87,"x_max":217,"o":"m 217 521 l 87 521 l 87 651 l 217 651 l 217 521 m 217 130 l 87 130 l 87 260 l 217 260 l 217 130 z "},";":{"ha":304,"x_min":43,"x_max":217,"o":"m 87 347 l 217 347 l 130 87 l 43 87 l 87 347 m 217 521 l 87 521 l 87 651 l 217 651 l 217 521 z "},"<":{"ha":781,"x_min":87,"x_max":694,"o":"m 694 998 l 694 825 l 184 564 l 694 304 l 694 130 l 87 499 l 87 629 l 694 998 z "},"=":{"ha":998,"x_min":87,"x_max":911,"o":"m 87 694 l 911 694 l 911 586 l 87 586 l 87 694 m 87 326 l 911 326 l 911 217 l 87 217 l 87 326 z "},">":{"ha":781,"x_min":87,"x_max":694,"o":"m 694 629 l 694 499 l 87 130 l 87 304 l 597 564 l 87 825 l 87 998 l 694 629 z "},"?":{"ha":1259,"x_min":87,"x_max":1172,"o":"m 477 218 l 477 262 q 479 345 477 303 q 490 425 481 387 q 521 496 500 463 q 581 554 542 530 q 679 593 619 579 q 825 608 738 608 q 913 613 873 608 q 982 636 954 618 q 1025 689 1010 654 q 1041 781 1041 723 q 1023 880 1041 845 q 965 932 1006 916 q 859 952 925 949 q 694 955 792 955 q 493 952 575 955 q 358 941 412 949 q 277 920 305 933 q 235 884 248 906 q 219 832 222 863 q 217 761 217 802 l 87 761 q 105 888 87 837 q 158 974 123 940 q 244 1025 193 1007 q 363 1052 296 1044 q 514 1062 431 1061 q 694 1063 597 1063 q 836 1061 770 1063 q 954 1048 901 1058 q 1047 1021 1006 1039 q 1116 971 1088 1002 q 1158 893 1143 940 q 1172 782 1172 847 q 1155 670 1172 722 q 1101 580 1138 618 q 1007 520 1065 542 q 868 499 949 499 q 758 493 803 499 q 685 474 713 488 q 640 440 656 461 q 617 387 625 418 q 609 314 610 356 q 608 218 608 272 l 477 218 m 608 0 l 477 0 l 477 130 l 608 130 l 608 0 z "},"@":{"ha":1519,"x_min":87,"x_max":1432,"o":"m 758 195 q 880 200 830 195 q 961 225 930 205 q 1006 283 992 244 q 1020 389 1020 321 q 1006 496 1020 457 q 961 556 992 536 q 880 581 930 576 q 758 586 830 586 q 647 584 693 586 q 570 574 601 581 q 521 553 539 567 q 493 518 503 540 q 480 465 483 496 q 477 391 477 434 q 480 316 477 347 q 493 263 483 285 q 521 228 503 241 q 570 207 539 214 q 647 198 601 200 q 758 195 693 195 m 1432 326 q 1424 215 1432 260 q 1392 141 1416 170 q 1326 100 1369 113 q 1215 87 1284 87 q 1135 100 1165 87 q 1089 133 1105 113 q 1068 175 1073 152 q 1063 217 1063 197 q 1008 152 1046 180 q 969 128 991 140 q 915 107 946 116 q 845 92 884 98 q 758 87 806 87 q 607 93 671 87 q 498 114 543 100 q 423 151 452 128 q 377 208 394 174 q 354 287 360 242 q 347 391 347 332 q 354 494 347 449 q 377 573 360 539 q 423 630 394 607 q 498 667 452 653 q 607 688 543 682 q 758 694 671 694 q 833 690 800 694 q 893 677 867 685 q 939 660 920 670 q 973 640 959 650 q 1020 586 1006 616 l 1020 673 l 1150 673 l 1150 326 q 1152 258 1150 283 q 1161 219 1154 233 q 1180 200 1167 205 q 1215 195 1193 195 q 1260 200 1243 195 q 1287 219 1278 205 q 1299 258 1296 233 q 1302 326 1302 283 l 1302 521 q 1294 634 1302 586 q 1263 715 1285 682 q 1204 770 1242 749 q 1109 804 1166 791 q 970 820 1051 816 q 781 825 890 825 q 574 821 662 825 q 423 804 486 818 q 320 762 360 790 q 257 686 280 734 q 226 566 235 638 q 218 391 218 494 q 227 223 218 293 q 258 104 235 153 q 321 27 281 56 q 423 -18 361 -2 q 574 -38 486 -33 q 1215 -43 662 -43 l 1215 -152 l 781 -152 q 519 -137 629 -152 q 331 -93 408 -123 q 206 -19 254 -64 q 132 86 158 26 q 96 222 105 146 q 87 391 87 298 q 96 582 87 499 q 132 724 105 664 q 206 825 158 785 q 331 889 254 865 q 519 923 408 913 q 781 933 629 933 q 1010 924 911 933 q 1182 894 1109 914 q 1302 841 1254 873 q 1379 763 1350 808 q 1432 326 1408 717 z "},"A":{"ha":1476,"x_min":43,"x_max":1432,"o":"m 1150 239 l 326 239 l 195 0 l 43 0 l 651 1042 l 825 1042 l 1432 0 l 1280 0 l 1150 239 m 1085 347 l 738 955 l 391 347 l 1085 347 z "},"B":{"ha":1432,"x_min":130,"x_max":1345,"o":"m 130 0 l 130 1042 l 999 1042 q 1156 1026 1097 1042 q 1248 979 1216 1010 q 1291 902 1280 948 q 1302 796 1302 856 q 1295 720 1302 753 q 1275 662 1287 686 q 1247 621 1263 637 q 1215 593 1232 604 q 1128 564 1177 568 q 1237 534 1190 561 q 1277 506 1257 523 q 1311 463 1296 488 q 1336 403 1326 437 q 1345 324 1345 369 q 1340 225 1345 270 q 1320 144 1335 180 q 1275 81 1304 108 q 1197 36 1246 54 q 1079 9 1149 18 q 911 0 1008 0 l 130 0 m 867 109 q 999 111 943 109 q 1093 121 1055 113 q 1156 143 1132 129 q 1193 182 1179 158 q 1211 241 1206 206 q 1215 324 1215 275 q 1211 390 1215 362 q 1193 438 1206 418 q 1156 469 1179 457 q 1093 488 1132 481 q 999 497 1055 494 q 867 499 943 499 l 260 499 l 260 109 l 867 109 m 867 608 q 982 610 934 608 q 1064 621 1030 613 q 1119 641 1098 628 q 1152 675 1140 654 q 1168 726 1164 696 q 1172 796 1172 755 q 1162 867 1172 840 q 1128 908 1153 894 q 1062 928 1104 923 q 956 933 1021 933 l 260 933 l 260 608 l 867 608 z "},"C":{"ha":1432,"x_min":87,"x_max":1345,"o":"m 1215 716 q 1197 845 1215 798 q 1139 917 1179 892 q 1032 948 1098 941 q 868 955 966 955 l 564 955 q 417 950 477 955 q 319 929 358 945 q 260 884 281 913 q 229 807 239 855 q 218 689 220 759 q 217 521 217 618 q 219 353 217 423 q 230 235 220 283 q 260 157 239 186 q 319 113 281 128 q 417 92 358 97 q 564 87 477 87 l 868 87 q 999 91 944 87 q 1093 106 1054 95 q 1155 136 1131 117 q 1192 183 1179 155 q 1210 253 1205 212 q 1215 347 1215 293 l 1345 347 q 1337 230 1345 282 q 1308 136 1329 177 q 1253 65 1287 95 q 1165 16 1218 35 q 1039 -13 1112 -3 q 868 -22 966 -22 l 564 -22 q 362 -7 444 -22 q 228 37 281 7 q 146 111 175 66 q 104 216 117 156 q 89 353 91 277 q 87 521 87 429 q 89 689 87 613 q 104 825 91 765 q 146 930 117 886 q 228 1005 175 975 q 362 1049 281 1034 q 564 1063 444 1063 l 868 1063 q 1039 1054 966 1063 q 1165 1026 1112 1045 q 1253 979 1218 1008 q 1308 912 1287 951 q 1337 825 1329 873 q 1345 716 1345 776 l 1215 716 z "},"D":{"ha":1476,"x_min":130,"x_max":1389,"o":"m 911 109 q 1057 113 997 109 q 1155 133 1116 118 q 1215 175 1194 147 q 1245 249 1236 203 q 1257 361 1255 294 q 1259 521 1259 428 q 1257 681 1259 614 q 1245 793 1255 747 q 1215 867 1236 839 q 1155 909 1194 895 q 1057 928 1116 924 q 911 933 998 933 l 260 933 l 260 109 l 911 109 m 130 0 l 130 1042 l 911 1042 q 1112 1028 1030 1042 q 1247 985 1194 1014 q 1329 914 1300 957 q 1371 813 1358 871 q 1387 683 1384 755 q 1389 521 1389 610 q 1387 359 1389 432 q 1371 228 1384 286 q 1329 127 1358 170 q 1247 56 1300 85 q 1112 14 1194 28 q 911 0 1030 0 l 130 0 z "},"E":{"ha":1215,"x_min":130,"x_max":1172,"o":"m 130 0 l 130 1042 l 1172 1042 l 1172 933 l 260 933 l 260 586 l 1128 586 l 1128 477 l 260 477 l 260 109 l 1172 109 l 1172 0 l 130 0 z "},"F":{"ha":1172,"x_min":130,"x_max":1128,"o":"m 130 0 l 130 1042 l 1128 1042 l 1128 933 l 260 933 l 260 586 l 1085 586 l 1085 477 l 260 477 l 260 0 l 130 0 z "},"G":{"ha":1476,"x_min":87,"x_max":1390,"o":"m 1259 716 q 1242 845 1259 798 q 1183 917 1224 892 q 1076 948 1143 941 q 912 955 1010 955 l 564 955 q 417 950 477 955 q 319 929 358 945 q 260 884 281 913 q 229 807 239 855 q 218 689 220 759 q 217 521 217 618 q 219 353 217 423 q 230 235 220 283 q 260 157 239 186 q 319 113 281 128 q 417 92 358 97 q 564 87 477 87 l 913 87 q 1044 91 989 87 q 1137 106 1099 95 q 1200 136 1176 117 q 1237 183 1223 155 q 1255 253 1250 212 q 1259 347 1259 293 l 1259 412 l 737 412 l 737 521 l 1390 521 l 1390 347 q 1381 230 1390 282 q 1353 136 1373 177 q 1297 65 1332 95 q 1210 16 1263 35 q 1084 -13 1157 -3 q 913 -22 1010 -22 l 564 -22 q 362 -7 444 -22 q 228 37 281 7 q 146 111 175 66 q 104 216 117 156 q 89 353 91 277 q 87 521 87 429 q 89 689 87 613 q 104 825 91 765 q 146 930 117 886 q 228 1005 175 975 q 362 1049 281 1034 q 564 1063 444 1063 l 912 1063 q 1083 1054 1010 1063 q 1209 1026 1156 1045 q 1297 979 1262 1008 q 1353 912 1332 951 q 1381 825 1373 873 q 1390 716 1390 776 l 1259 716 z "},"H":{"ha":1476,"x_min":130,"x_max":1345,"o":"m 1215 1042 l 1345 1042 l 1345 0 l 1215 0 l 1215 477 l 260 477 l 260 0 l 130 0 l 130 1042 l 260 1042 l 260 586 l 1215 586 l 1215 1042 z "},"I":{"ha":391,"x_min":130,"x_max":260,"o":"m 130 1042 l 260 1042 l 260 0 l 130 0 l 130 1042 z "},"J":{"ha":1163,"x_min":87,"x_max":1042,"o":"m 391 0 q 233 18 293 0 q 141 76 174 35 q 98 183 109 117 q 87 347 87 250 l 87 391 l 217 391 l 217 347 q 226 218 217 266 q 255 145 235 170 q 309 113 275 120 q 391 106 342 106 l 694 106 q 802 118 760 106 q 868 154 844 130 q 902 216 892 178 q 911 304 911 253 l 911 1042 l 1042 1042 l 1042 304 q 1024 165 1042 222 q 966 71 1006 107 q 859 17 925 34 q 694 0 792 0 l 391 0 z "},"K":{"ha":1367,"x_min":130,"x_max":1324,"o":"m 1107 1042 l 1302 1042 l 564 532 l 1324 0 l 1128 0 l 434 477 l 260 477 l 260 0 l 130 0 l 130 1042 l 260 1042 l 260 586 l 434 586 l 1107 1042 z "},"L":{"ha":1128,"x_min":130,"x_max":1085,"o":"m 130 0 l 130 1042 l 260 1042 l 260 109 l 1085 109 l 1085 0 l 130 0 z "},"M":{"ha":1899,"x_min":130,"x_max":1769,"o":"m 260 955 l 260 0 l 130 0 l 130 1042 l 347 1042 l 954 130 l 1561 1042 l 1769 1042 l 1769 0 l 1638 0 l 1638 941 l 1020 0 l 888 0 l 260 955 z "},"N":{"ha":1574,"x_min":130,"x_max":1444,"o":"m 260 0 l 130 0 l 130 1042 l 359 1042 l 1314 130 l 1314 1042 l 1444 1042 l 1444 0 l 1270 0 l 260 933 l 260 0 z "},"O":{"ha":1519,"x_min":87,"x_max":1432,"o":"m 956 1063 q 1157 1049 1075 1063 q 1291 1005 1238 1034 q 1373 930 1344 975 q 1414 825 1401 886 q 1430 689 1428 765 q 1432 521 1432 613 q 1430 353 1432 429 q 1414 216 1428 277 q 1373 111 1401 156 q 1291 37 1344 66 q 1157 -7 1238 7 q 956 -22 1075 -22 l 564 -22 q 362 -7 444 -22 q 228 37 281 7 q 146 111 175 66 q 104 216 117 156 q 89 353 91 277 q 87 521 87 429 q 89 689 87 613 q 104 825 91 765 q 146 930 117 886 q 228 1005 175 975 q 362 1049 281 1034 q 564 1063 444 1063 l 956 1063 m 956 87 q 1101 92 1042 87 q 1199 113 1160 97 q 1259 157 1238 128 q 1289 235 1280 186 q 1300 353 1299 283 q 1302 521 1302 423 q 1300 689 1302 618 q 1289 807 1299 759 q 1259 884 1280 855 q 1199 929 1238 913 q 1102 950 1161 945 q 956 955 1042 955 l 564 955 q 417 950 477 955 q 319 929 358 945 q 260 884 281 913 q 229 807 239 855 q 218 689 220 759 q 217 521 217 618 q 219 353 217 423 q 230 235 220 283 q 260 157 239 186 q 319 113 281 128 q 417 92 358 97 q 564 87 477 87 l 956 87 z "},"P":{"ha":1345,"x_min":130,"x_max":1302,"o":"m 130 1042 l 913 1042 q 1077 1033 1010 1042 q 1187 1008 1143 1025 q 1254 966 1230 991 q 1288 907 1277 941 q 1300 831 1299 873 q 1302 738 1302 789 q 1300 640 1302 685 q 1284 559 1297 595 q 1242 495 1271 523 q 1160 450 1213 468 q 1025 422 1107 431 q 824 412 943 412 l 260 412 l 260 0 l 130 0 l 130 1042 m 260 521 l 824 521 q 970 524 911 521 q 1068 535 1029 527 q 1128 558 1107 543 q 1159 597 1149 573 q 1170 656 1168 622 q 1172 738 1172 690 q 1170 814 1172 782 q 1159 867 1168 846 q 1128 902 1149 889 q 1068 922 1107 915 q 970 931 1029 929 q 824 933 911 933 l 260 933 l 260 521 z "},"Q":{"ha":1595,"x_min":87,"x_max":1508,"o":"m 564 1063 q 363 1049 445 1063 q 229 1005 281 1034 q 147 930 176 975 q 105 825 118 886 q 90 689 92 765 q 87 521 87 613 q 90 353 87 429 q 105 216 92 277 q 147 111 118 156 q 229 37 176 66 q 363 -7 281 7 q 564 -22 445 -22 l 956 -22 q 1157 -7 1076 -22 q 1292 37 1239 7 q 1373 111 1345 66 q 1375 115 1375 113 l 1454 65 l 1508 152 l 1414 212 q 1415 216 1415 214 q 1431 353 1428 277 q 1433 521 1433 429 q 1431 689 1433 613 q 1415 825 1428 765 q 1373 930 1402 886 q 1292 1005 1345 975 q 1157 1049 1239 1034 q 956 1063 1076 1063 l 564 1063 m 564 87 q 418 92 477 87 q 320 113 359 97 q 261 157 281 128 q 231 235 240 186 q 219 353 221 283 q 218 521 218 423 q 219 689 218 618 q 230 807 220 759 q 260 884 239 855 q 320 929 281 913 q 418 950 359 945 q 564 955 477 955 l 956 955 q 1102 950 1043 955 q 1200 929 1162 945 q 1259 884 1238 913 q 1290 807 1280 855 q 1301 689 1299 759 q 1303 521 1303 618 q 1301 353 1303 423 q 1297 288 1300 317 l 901 543 l 846 455 l 1273 181 q 1259 157 1267 168 q 1200 113 1238 128 q 1102 92 1161 97 q 956 87 1042 87 l 564 87 z "},"R":{"ha":1432,"x_min":130,"x_max":1345,"o":"m 1324 0 l 1194 0 l 1194 195 q 1192 277 1194 243 q 1180 336 1190 311 q 1149 375 1171 360 q 1090 398 1128 390 q 992 409 1051 406 q 846 412 932 412 l 260 412 l 260 0 l 130 0 l 130 1042 l 867 1042 q 1068 1033 987 1042 q 1203 1008 1150 1025 q 1285 966 1257 991 q 1328 907 1314 941 q 1343 831 1341 873 q 1345 738 1345 789 q 1336 624 1345 673 q 1305 540 1327 574 q 1248 485 1284 505 q 1158 456 1212 464 q 1244 427 1212 448 q 1295 374 1277 407 q 1318 297 1312 342 q 1324 195 1324 252 l 1324 0 m 260 521 l 867 521 q 1014 524 954 521 q 1112 535 1073 527 q 1171 558 1150 543 q 1202 597 1192 573 q 1214 656 1212 622 q 1215 738 1215 690 q 1214 814 1215 782 q 1202 867 1212 846 q 1171 902 1192 889 q 1112 922 1150 915 q 1014 931 1073 929 q 867 933 954 933 l 260 933 l 260 521 z "},"S":{"ha":1345,"x_min":87,"x_max":1259,"o":"m 787 586 q 970 577 894 586 q 1100 551 1047 568 q 1183 508 1152 534 q 1232 449 1215 482 q 1254 376 1249 416 q 1259 288 1259 335 q 1250 198 1259 240 q 1220 122 1242 157 q 1161 60 1198 87 q 1066 14 1124 33 q 927 -15 1008 -5 q 738 -24 846 -24 l 564 -24 q 393 -17 467 -24 q 267 6 320 -9 q 180 44 214 21 q 124 99 145 68 q 96 171 104 131 q 87 260 87 212 l 218 260 q 235 165 218 199 q 294 113 253 130 q 400 91 334 96 q 564 87 467 87 l 738 87 q 927 98 852 87 q 1047 132 1002 109 q 1110 194 1092 156 q 1128 288 1128 233 q 1116 379 1128 342 q 1066 437 1103 416 q 962 468 1029 459 q 787 477 895 477 l 608 477 q 403 486 488 477 q 260 512 318 495 q 168 553 203 528 q 116 610 134 578 q 92 681 98 642 q 87 765 87 720 q 95 853 87 812 q 127 927 104 894 q 190 985 150 960 q 293 1028 230 1011 q 444 1055 355 1046 q 651 1063 532 1063 l 781 1063 q 952 1056 879 1063 q 1078 1034 1025 1049 q 1166 996 1131 1019 q 1222 942 1201 973 q 1251 870 1242 910 q 1259 781 1259 830 l 1128 781 q 1111 877 1128 842 q 1053 929 1093 911 q 945 950 1012 946 q 781 955 879 955 l 651 955 q 437 946 521 955 q 304 915 353 937 q 236 857 255 893 q 217 765 217 820 q 222 705 217 731 q 241 658 227 678 q 282 625 256 638 q 352 602 309 611 q 458 590 395 593 q 608 586 521 586 l 787 586 z "},"T":{"ha":1345,"x_min":87,"x_max":1259,"o":"m 1259 1042 l 1259 933 l 738 933 l 738 0 l 608 0 l 608 933 l 87 933 l 87 1042 l 1259 1042 z "},"U":{"ha":1433,"x_min":87,"x_max":1346,"o":"m 1346 1042 l 1346 521 q 1344 353 1346 429 q 1328 216 1341 277 q 1286 111 1315 156 q 1205 37 1258 66 q 1070 -7 1152 7 q 869 -22 989 -22 l 564 -22 q 363 -7 445 -22 q 229 37 281 7 q 147 111 176 66 q 105 216 118 156 q 90 353 92 277 q 87 521 87 429 l 87 1042 l 218 1042 l 218 521 q 219 353 218 423 q 231 235 221 283 q 261 157 240 186 q 320 113 281 128 q 418 92 359 97 q 564 87 477 87 l 869 87 q 1015 92 956 87 q 1113 113 1075 97 q 1173 157 1152 128 q 1203 235 1194 186 q 1215 353 1213 283 q 1216 521 1216 423 l 1215 1042 l 1346 1042 z "},"V":{"ha":1389,"x_min":43,"x_max":1345,"o":"m 1194 1042 l 1345 1042 l 781 0 l 608 0 l 43 1042 l 195 1042 l 694 87 l 1194 1042 z "},"W":{"ha":2257,"x_min":43,"x_max":2214,"o":"m 1074 1042 l 1226 1042 l 1649 109 l 2062 1042 l 2214 1042 l 1736 0 l 1563 0 l 1150 911 l 738 0 l 564 0 l 43 1042 l 195 1042 l 651 109 l 1074 1042 z "},"X":{"ha":1476,"x_min":43,"x_max":1432,"o":"m 820 549 l 1432 0 l 1248 0 l 729 465 l 228 0 l 43 0 l 635 549 l 87 1042 l 271 1042 l 726 633 l 1166 1042 l 1350 1042 l 820 549 z "},"Y":{"ha":1492,"x_min":87,"x_max":1389,"o":"m 87 1042 l 260 1042 l 738 532 l 1215 1042 l 1389 1042 l 803 434 l 803 0 l 673 0 l 673 434 l 87 1042 z "},"Z":{"ha":1388,"x_min":87,"x_max":1302,"o":"m 87 0 l 87 109 l 1095 933 l 130 933 l 130 1042 l 1280 1042 l 1280 933 l 267 109 l 1302 109 l 1302 0 l 87 0 z "},"[":{"ha":564,"x_min":87,"x_max":477,"o":"m 87 1042 l 477 1042 l 477 933 l 217 933 l 217 109 l 477 109 l 477 0 l 87 0 l 87 1042 z "},"\\":{"ha":694,"x_min":43,"x_max":651,"o":"m 651 0 l 521 0 l 43 1042 l 174 1042 l 651 0 z "},"]":{"ha":564,"x_min":87,"x_max":477,"o":"m 477 0 l 87 0 l 87 109 l 347 109 l 347 933 l 87 933 l 87 1042 l 477 1042 l 477 0 z "},"^":{"ha":738,"x_min":43,"x_max":694,"o":"m 369 955 l 130 608 l 43 673 l 304 1042 l 434 1042 l 694 673 l 608 608 l 369 955 z "},"_":{"ha":738,"x_min":0,"x_max":738,"o":"m 0 0 l 738 0 l 738 -109 l 0 -109 l 0 0 z "},"`":{"ha":651,"x_min":87,"x_max":564,"o":"m 87 1128 l 174 1259 l 564 933 l 521 868 l 87 1128 z "},"a":{"ha":1082,"x_min":83,"x_max":995,"o":"m 865 107 q 834 66 863 99 q 780 23 814 42 q 689 -6 746 5 q 541 -16 633 -16 q 331 -4 418 -16 q 189 35 244 9 q 109 102 134 61 q 83 199 83 142 q 97 299 83 258 q 138 368 111 340 q 203 411 165 395 q 289 435 241 427 q 395 445 338 443 q 518 447 453 447 q 673 439 611 447 q 775 419 736 431 q 836 394 815 408 q 865 369 856 380 q 858 498 865 445 q 837 588 852 552 q 800 645 823 624 q 743 677 777 667 q 665 691 709 688 q 562 694 620 694 q 414 690 473 694 q 320 673 355 686 q 271 637 286 660 q 257 578 257 614 l 127 578 q 149 682 127 640 q 222 752 171 725 q 357 791 273 779 q 562 803 440 803 q 764 783 682 803 q 898 714 847 764 q 972 581 949 665 q 995 369 995 497 l 995 0 l 865 0 l 865 107 m 562 87 q 706 95 648 87 q 800 119 764 103 q 850 160 835 136 q 865 217 865 184 q 847 272 865 250 q 790 309 830 295 q 683 330 749 323 q 519 336 616 336 q 361 333 421 336 q 269 317 301 330 q 225 281 236 305 q 214 217 214 258 q 225 151 214 176 q 274 111 237 125 q 379 92 311 97 q 562 87 448 87 z "},"b":{"ha":1107,"x_min":87,"x_max":1042,"o":"m 564 -15 q 409 -2 471 -15 q 307 25 347 10 q 248 71 268 39 q 217 120 227 102 l 217 0 l 87 0 l 87 1042 l 217 1042 l 217 707 q 247 738 226 722 q 307 769 267 755 q 409 793 347 784 q 564 803 471 803 q 785 783 694 803 q 933 716 876 764 q 1016 589 990 669 q 1042 389 1042 509 q 1016 193 1042 271 q 933 69 990 115 q 785 4 876 23 q 564 -15 694 -15 m 564 87 q 695 92 640 87 q 789 109 751 96 q 852 142 828 121 q 889 198 876 164 q 907 278 903 231 q 911 389 911 326 q 907 500 911 453 q 889 582 903 548 q 852 637 876 615 q 789 672 828 659 q 695 689 751 684 q 564 694 640 694 q 448 691 499 694 q 359 677 397 688 q 293 646 320 666 q 250 591 267 625 q 225 507 233 557 q 217 387 217 457 q 225 269 217 318 q 250 186 233 220 q 293 133 267 153 q 359 103 320 113 q 448 90 397 93 q 564 87 499 87 z "},"c":{"ha":1064,"x_min":65,"x_max":977,"o":"m 65 389 q 73 533 65 471 q 102 642 81 595 q 158 719 123 688 q 246 768 193 749 q 372 795 299 787 q 543 804 446 804 q 758 788 673 804 q 890 739 842 772 q 958 655 939 706 q 977 535 977 605 l 847 535 q 846 582 847 560 q 836 621 844 604 q 809 653 827 639 q 757 676 791 667 q 671 690 723 686 q 543 695 619 695 q 397 689 456 695 q 299 669 338 683 q 239 632 260 655 q 209 574 218 608 q 198 495 199 541 q 196 389 196 449 q 198 286 196 331 q 209 207 199 241 q 239 151 218 174 q 299 113 260 127 q 397 93 338 99 q 543 87 456 87 q 671 92 619 87 q 757 108 723 98 q 809 133 791 118 q 836 167 827 148 q 846 210 844 186 q 847 260 847 233 l 977 260 q 958 137 977 189 q 890 51 939 85 q 758 1 842 18 q 543 -15 673 -15 q 372 -7 446 -15 q 246 20 299 1 q 158 69 193 39 q 102 144 123 100 q 73 250 81 189 q 65 389 65 311 z "},"d":{"ha":1107,"x_min":65,"x_max":1020,"o":"m 543 -15 q 321 4 412 -15 q 174 69 231 23 q 91 193 117 115 q 65 389 65 271 q 91 591 65 511 q 174 718 117 671 q 321 784 231 765 q 543 803 412 803 q 697 793 635 803 q 799 770 760 784 q 860 739 839 755 q 890 708 880 722 l 890 1042 l 1020 1042 l 1020 0 l 890 0 l 890 116 q 857 77 890 116 q 794 33 829 50 q 697 0 760 16 q 543 -15 635 -15 m 543 87 q 659 90 608 87 q 748 103 709 93 q 813 133 787 113 q 857 186 840 153 q 882 269 874 220 q 890 387 890 318 q 882 510 890 459 q 857 594 874 560 q 813 648 840 629 q 748 679 787 668 q 659 692 709 689 q 543 694 608 694 q 411 690 467 694 q 317 673 356 685 q 255 639 279 661 q 217 583 231 617 q 200 502 204 549 q 195 389 195 454 q 200 278 195 326 q 217 198 204 231 q 255 142 231 164 q 317 109 279 121 q 411 92 356 96 q 543 87 467 87 z "},"e":{"ha":1063,"x_min":65,"x_max":977,"o":"m 543 -15 q 321 3 412 -15 q 174 65 231 21 q 91 183 117 109 q 65 369 65 257 q 91 581 65 497 q 174 714 117 665 q 321 783 231 764 q 543 803 412 803 q 704 789 635 803 q 820 750 772 776 q 899 688 869 724 q 946 611 929 651 q 970 516 964 570 q 977 401 977 462 l 966 358 l 195 358 q 213 211 195 269 q 271 127 231 154 q 378 94 312 101 q 543 87 445 87 q 691 92 632 87 q 784 111 749 97 q 832 151 819 125 q 846 217 846 176 l 977 217 q 955 110 977 154 q 882 38 932 65 q 748 -2 831 10 q 543 -15 665 -15 m 543 694 q 426 692 477 694 q 337 680 375 689 q 271 653 298 671 q 228 613 244 636 q 203 547 211 589 q 195 445 195 505 l 846 445 q 829 569 846 524 q 776 644 812 614 q 682 684 739 673 q 543 694 624 694 z "},"f":{"ha":716,"x_min":87,"x_max":716,"o":"m 347 682 l 347 0 l 217 0 l 217 682 l 87 682 l 87 781 l 217 781 l 217 788 q 235 920 217 867 q 293 1005 252 973 q 400 1050 334 1037 q 565 1063 467 1063 l 716 1063 l 716 955 l 564 955 q 461 952 503 955 q 394 934 420 949 q 358 884 369 918 q 347 788 347 850 l 347 781 l 716 781 l 716 682 l 347 682 z "},"g":{"ha":1107,"x_min":65,"x_max":1020,"o":"m 543 694 q 411 690 467 694 q 317 673 356 685 q 255 639 279 661 q 217 583 231 617 q 200 502 204 549 q 195 389 195 454 q 200 278 195 326 q 217 198 204 231 q 255 142 231 164 q 317 109 279 121 q 411 92 356 96 q 543 87 467 87 q 659 90 608 87 q 748 103 709 93 q 813 134 787 114 q 857 188 840 154 q 882 271 874 221 q 890 391 890 321 q 882 512 890 462 q 857 596 874 562 q 813 649 840 629 q 748 679 787 669 q 659 692 709 689 q 543 694 608 694 m 1020 109 q 994 -81 1020 -5 q 911 -202 968 -156 q 764 -267 854 -249 q 543 -286 673 -286 q 337 -275 420 -286 q 203 -240 254 -264 q 131 -180 153 -217 q 109 -90 109 -143 l 239 -90 q 253 -134 239 -117 q 301 -160 267 -151 q 394 -173 336 -170 q 543 -177 453 -177 q 707 -170 640 -177 q 814 -136 773 -163 q 872 -56 854 -110 q 890 87 890 -3 q 860 52 880 71 q 799 16 839 33 q 697 -11 760 0 q 543 -22 635 -22 q 321 -2 412 -22 q 174 64 231 17 q 91 190 117 111 q 65 389 65 269 q 91 591 65 511 q 174 718 117 671 q 321 784 231 765 q 543 803 412 803 q 697 793 635 803 q 799 770 760 784 q 860 739 839 755 q 890 709 880 722 l 890 781 l 1020 781 l 1020 109 z "},"h":{"ha":1086,"x_min":87,"x_max":999,"o":"m 868 0 l 868 441 q 857 560 868 511 q 814 638 846 608 q 722 681 781 668 q 564 694 662 694 q 391 679 458 694 q 285 636 323 664 q 232 570 246 609 q 217 484 217 532 l 217 0 l 87 0 l 87 1042 l 217 1042 l 217 658 q 256 713 231 690 q 314 752 281 736 q 385 778 347 768 q 461 793 422 788 q 538 801 500 799 q 608 803 576 803 q 757 792 694 803 q 864 761 820 782 q 934 710 907 741 q 975 639 960 680 q 994 549 989 599 q 999 441 999 499 l 998 0 l 868 0 z "},"i":{"ha":391,"x_min":130,"x_max":260,"o":"m 130 781 l 260 781 l 260 0 l 130 0 l 130 781 m 260 911 l 130 911 l 130 1042 l 260 1042 l 260 911 z "},"j":{"ha":456,"x_min":87,"x_max":326,"o":"m 326 -43 q 319 -134 326 -94 q 288 -202 312 -174 q 216 -245 263 -230 q 87 -260 168 -260 l 87 -152 q 140 -147 119 -152 q 174 -130 161 -142 q 191 -97 186 -118 q 195 -43 195 -76 l 195 781 l 326 781 l 326 -43 m 326 911 l 195 911 l 195 1042 l 326 1042 l 326 911 z "},"k":{"ha":955,"x_min":87,"x_max":955,"o":"m 87 1042 l 217 1042 l 217 472 l 260 472 l 738 781 l 933 781 l 380 418 l 955 0 l 760 0 l 260 374 l 217 374 l 217 0 l 87 0 l 87 1042 z "},"l":{"ha":391,"x_min":130,"x_max":260,"o":"m 130 1042 l 260 1042 l 260 0 l 130 0 l 130 1042 z "},"m":{"ha":1693,"x_min":87,"x_max":1606,"o":"m 911 0 l 781 0 l 781 441 q 772 560 781 511 q 735 638 763 608 q 655 681 707 668 q 521 694 604 694 q 370 679 429 694 q 277 636 311 664 q 230 570 243 609 q 217 484 217 532 l 217 0 l 87 0 l 87 781 l 217 781 l 217 658 q 223 671 218 660 q 242 699 229 683 q 280 733 256 715 q 343 767 304 751 q 435 793 381 783 q 564 803 490 803 q 691 794 637 803 q 784 767 745 785 q 846 722 822 749 q 884 661 870 695 q 920 703 896 679 q 988 750 945 728 q 1098 788 1032 772 q 1259 803 1164 803 q 1393 792 1337 803 q 1487 761 1449 782 q 1549 710 1526 741 q 1585 639 1573 680 q 1602 549 1598 599 q 1606 441 1606 499 l 1606 0 l 1476 0 l 1476 441 q 1467 560 1476 511 q 1429 638 1457 608 q 1350 681 1401 668 q 1215 694 1299 694 q 1065 679 1124 694 q 972 636 1006 664 q 925 570 938 609 q 911 484 911 532 l 911 0 z "},"n":{"ha":1086,"x_min":87,"x_max":999,"o":"m 868 0 l 868 434 q 857 556 868 507 q 814 637 846 606 q 722 681 781 667 q 564 694 662 694 q 391 679 458 694 q 285 635 323 663 q 232 566 246 606 q 217 477 217 526 l 217 0 l 87 0 l 87 781 l 217 781 l 217 651 q 258 708 231 684 q 317 749 284 732 q 389 777 351 766 q 467 793 428 787 q 542 801 505 799 q 608 803 578 803 q 757 792 694 803 q 864 760 820 781 q 934 708 907 739 q 975 636 960 677 q 994 544 989 595 q 999 434 999 494 l 998 0 l 868 0 z "},"o":{"ha":1085,"x_min":65,"x_max":1020,"o":"m 65 396 q 91 595 65 516 q 174 720 117 673 q 321 784 231 766 q 543 803 412 803 q 764 784 673 803 q 911 720 854 766 q 994 595 968 673 q 1020 396 1020 516 q 994 197 1020 276 q 911 71 968 117 q 764 4 854 24 q 543 -15 673 -15 q 321 4 412 -15 q 174 71 231 24 q 91 197 117 117 q 65 396 65 276 m 195 396 q 200 283 195 331 q 218 200 205 235 q 255 144 231 165 q 317 109 279 122 q 411 92 356 96 q 543 87 467 87 q 659 90 608 87 q 748 104 710 93 q 814 135 787 115 q 858 189 841 155 q 882 274 874 224 q 890 396 890 325 q 882 515 890 466 q 858 597 874 564 q 814 650 841 631 q 748 679 787 669 q 659 692 710 689 q 543 694 608 694 q 426 692 477 694 q 337 679 375 689 q 271 650 298 669 q 228 597 244 631 q 203 515 211 564 q 195 396 195 466 z "},"p":{"ha":1107,"x_min":87,"x_max":1042,"o":"m 564 803 q 785 783 694 803 q 933 716 876 764 q 1016 589 990 669 q 1042 389 1042 509 q 1016 193 1042 271 q 933 69 990 115 q 785 4 876 23 q 564 -15 694 -15 q 409 -5 471 -15 q 307 21 347 5 q 247 54 267 36 q 217 87 226 71 l 217 -260 l 87 -260 l 87 781 l 217 781 l 217 709 q 247 739 226 722 q 307 770 267 755 q 409 793 347 784 q 564 803 471 803 m 564 694 q 448 691 499 694 q 359 677 397 688 q 293 647 320 667 q 250 593 267 627 q 225 510 233 559 q 217 391 217 460 q 225 271 217 321 q 250 188 233 221 q 293 134 267 154 q 359 103 320 114 q 448 90 397 93 q 564 87 499 87 q 695 92 640 87 q 789 109 751 96 q 852 142 828 121 q 889 198 876 164 q 907 278 903 231 q 911 389 911 326 q 907 500 911 453 q 889 582 903 548 q 852 637 876 616 q 789 672 828 659 q 695 690 751 685 q 564 694 640 694 z "},"q":{"ha":1107,"x_min":65,"x_max":1020,"o":"m 543 803 q 697 793 635 803 q 799 767 760 783 q 860 734 839 752 q 890 702 880 717 l 890 781 l 1020 781 l 1020 -260 l 890 -260 l 890 87 q 860 54 880 71 q 799 21 839 36 q 697 -5 760 5 q 543 -15 635 -15 q 321 4 412 -15 q 174 71 231 24 q 91 197 117 117 q 65 396 65 276 q 91 595 65 516 q 174 720 117 673 q 321 784 231 766 q 543 803 412 803 m 543 694 q 411 690 467 694 q 317 675 356 686 q 255 643 279 663 q 217 589 231 623 q 200 509 204 556 q 195 396 195 461 q 200 283 195 331 q 217 200 204 235 q 255 144 231 165 q 317 109 279 122 q 411 92 356 96 q 543 87 467 87 q 659 90 608 87 q 748 104 709 93 q 813 135 787 115 q 857 190 840 155 q 882 275 874 224 q 890 398 890 326 q 882 518 890 469 q 857 601 874 568 q 813 652 840 633 q 748 681 787 671 q 659 692 709 690 q 543 694 608 694 z "},"r":{"ha":868,"x_min":87,"x_max":868,"o":"m 760 527 q 752 608 760 576 q 719 660 745 640 q 641 687 692 679 q 499 694 589 694 q 357 679 412 694 q 271 636 302 664 q 228 570 239 608 q 217 484 217 531 l 217 0 l 87 0 l 87 781 l 217 781 l 217 657 q 242 704 224 678 q 298 751 260 729 q 394 788 335 773 q 543 803 454 803 q 708 785 644 803 q 807 732 772 767 q 856 646 843 697 q 868 527 868 594 l 760 527 z "},"s":{"ha":1085,"x_min":87,"x_max":998,"o":"m 543 356 q 672 354 618 356 q 762 346 726 351 q 819 331 798 340 q 851 305 840 322 q 865 270 862 288 q 868 231 868 253 q 865 186 868 206 q 850 150 862 166 q 817 122 839 134 q 755 102 794 111 q 660 91 717 94 q 521 87 602 87 q 373 92 431 87 q 279 111 314 97 q 231 151 245 125 q 217 217 217 176 l 87 217 q 109 113 87 155 q 182 43 131 70 q 316 4 233 16 q 521 -8 399 -8 q 692 -2 618 -8 q 819 15 766 3 q 906 46 871 27 q 962 93 941 66 q 990 154 982 119 q 998 233 998 189 q 990 311 998 277 q 962 369 982 345 q 909 415 942 394 q 825 446 876 436 q 704 460 774 456 q 543 465 635 465 q 413 465 467 465 q 323 469 359 465 q 266 480 287 473 q 234 502 245 488 q 220 538 223 516 q 217 583 217 560 q 235 645 217 623 q 293 678 252 667 q 400 692 334 689 q 564 694 467 694 q 712 689 654 694 q 806 671 771 684 q 854 635 840 658 q 868 575 868 612 l 998 575 q 979 677 998 634 q 910 748 959 720 q 777 789 861 776 q 564 803 693 803 q 343 791 434 803 q 195 754 252 780 q 113 686 138 728 q 87 583 87 644 q 95 500 87 538 q 123 436 103 462 q 176 394 142 410 q 260 370 210 378 q 380 359 311 361 q 543 356 450 356 z "},"t":{"ha":933,"x_min":43,"x_max":846,"o":"m 846 347 q 830 181 846 248 q 775 74 814 114 q 675 17 737 34 q 521 0 612 0 q 372 14 432 0 q 274 60 311 27 q 220 146 237 92 q 204 282 204 201 l 204 674 l 43 674 l 43 781 l 204 781 l 204 995 l 334 995 l 334 781 l 825 781 l 825 674 l 334 674 l 334 282 q 344 182 334 217 q 376 130 354 146 q 433 111 397 114 q 520 109 469 109 q 593 110 561 109 q 649 118 625 111 q 690 140 673 125 q 718 181 707 155 q 733 248 728 208 q 738 347 738 288 l 846 347 z "},"u":{"ha":1086,"x_min":87,"x_max":999,"o":"m 218 781 l 218 347 q 229 225 218 275 q 272 144 239 175 q 364 100 304 114 q 522 87 424 87 q 695 102 627 87 q 801 146 762 118 q 854 215 840 175 q 869 304 869 255 l 869 781 l 999 781 l 999 0 l 869 0 l 869 130 q 837 84 859 109 q 770 37 814 58 q 654 0 725 15 q 478 -15 583 -15 q 328 -4 391 -15 q 221 27 265 6 q 151 78 178 47 q 111 149 125 109 q 92 239 96 189 q 87 347 87 288 l 87 781 l 218 781 z "},"v":{"ha":1085,"x_min":43,"x_max":1042,"o":"m 456 0 l 629 0 l 1042 781 l 890 781 l 543 87 l 195 781 l 43 781 l 456 0 z "},"w":{"ha":1519,"x_min":43,"x_max":1476,"o":"m 1476 781 l 1324 781 l 1082 98 l 825 781 l 694 781 l 434 98 l 195 781 l 43 781 l 347 0 l 521 0 l 760 640 l 998 0 l 1172 0 l 1476 781 z "},"x":{"ha":1104,"x_min":65,"x_max":1039,"o":"m 865 0 l 1039 0 l 639 398 l 1020 781 l 846 781 l 555 479 l 258 781 l 84 781 l 465 397 l 65 0 l 239 0 l 552 327 l 865 0 z "},"y":{"ha":1063,"x_min":43,"x_max":1020,"o":"m 456 0 l 499 0 q 480 -41 488 -22 q 459 -78 471 -61 q 429 -109 447 -95 q 380 -132 410 -122 q 305 -147 350 -142 q 195 -152 260 -152 l 195 -260 q 327 -253 271 -260 q 423 -233 382 -246 q 491 -201 463 -220 q 539 -158 519 -182 q 575 -105 559 -134 q 608 -43 591 -76 l 629 0 l 1020 781 l 868 781 l 543 87 l 195 781 l 43 781 l 456 0 z "},"z":{"ha":998,"x_min":87,"x_max":911,"o":"m 130 781 l 130 686 l 749 686 l 87 109 l 87 0 l 911 0 l 911 97 l 259 97 l 911 673 l 911 781 l 130 781 z "},"{":{"ha":651,"x_min":87,"x_max":564,"o":"m 217 363 q 219 272 217 319 q 230 179 220 224 q 260 93 239 134 q 320 22 281 53 q 418 -26 359 -8 q 564 -43 477 -43 l 564 65 q 472 74 509 65 q 411 101 435 83 q 374 144 387 118 q 355 203 361 170 q 348 276 349 236 q 347 363 347 317 q 346 404 347 383 q 336 446 345 425 q 311 485 328 466 q 260 521 293 505 q 311 556 293 537 q 336 596 328 576 q 346 637 345 616 q 347 678 347 659 q 348 765 347 725 q 355 839 349 806 q 374 898 361 872 q 411 941 387 924 q 472 967 435 958 q 564 977 509 977 l 564 1085 q 418 1067 477 1085 q 320 1019 359 1050 q 260 948 281 989 q 230 863 239 908 q 219 770 220 817 q 217 678 217 722 q 215 634 217 654 q 201 602 213 615 q 162 582 189 589 q 87 575 136 575 l 87 467 q 162 460 136 467 q 201 441 189 454 q 215 409 213 428 q 217 363 217 389 z "},"|":{"ha":304,"x_min":87,"x_max":217,"o":"m 87 -87 l 217 -87 l 217 1085 l 87 1085 l 87 -87 z "},"}":{"ha":651,"x_min":87,"x_max":564,"o":"m 434 363 q 436 409 434 389 q 450 441 438 428 q 489 460 463 454 q 564 467 515 467 l 564 575 q 489 582 515 575 q 450 602 463 589 q 436 634 438 615 q 434 678 434 654 q 432 770 434 722 q 421 863 430 817 q 391 948 412 908 q 331 1019 370 989 q 233 1067 292 1050 q 87 1085 174 1085 l 87 977 q 179 967 141 977 q 240 941 216 958 q 277 898 264 924 q 296 839 290 872 q 303 765 302 806 q 304 678 304 725 q 305 637 304 659 q 315 596 307 616 q 340 556 323 576 q 391 521 358 537 q 340 485 358 505 q 315 446 323 466 q 305 404 307 425 q 304 363 304 383 q 303 276 304 317 q 296 203 302 236 q 277 144 290 170 q 240 101 264 118 q 179 74 216 83 q 87 65 141 65 l 87 -43 q 233 -26 174 -43 q 331 22 292 -8 q 391 93 370 53 q 421 179 412 134 q 432 272 431 224 q 434 363 434 319 z "},"~":{"ha":781,"x_min":87,"x_max":694,"o":"m 260 629 q 317 619 291 629 q 372 597 343 609 q 437 574 401 585 q 521 564 472 564 q 575 573 545 564 q 632 601 606 581 q 676 654 659 621 q 694 738 694 688 l 564 738 q 562 705 564 718 q 553 685 559 692 q 540 675 548 677 q 521 673 532 673 q 464 683 490 673 q 409 705 438 693 q 345 728 380 718 q 260 738 309 738 q 206 730 236 738 q 149 703 176 722 q 105 650 123 684 q 87 564 87 616 l 217 564 q 220 598 217 585 q 228 618 222 611 q 241 627 233 625 q 260 629 250 629 z "}," ":{"ha":0,"x_min":0,"x_max":0,"o":""},"¡":{"ha":304,"x_min":87,"x_max":217,"o":"m 87 0 l 217 0 l 184 738 l 119 738 l 87 0 m 217 1042 l 87 1042 l 87 911 l 217 911 l 217 1042 z "},"¢":{"ha":1086,"x_min":87,"x_max":999,"o":"m 87 369 q 95 235 87 293 q 124 133 103 176 q 179 60 144 90 q 268 12 214 30 q 394 -14 321 -6 q 565 -22 467 -22 q 779 -5 695 -22 q 912 46 863 12 q 980 134 961 81 q 999 260 999 187 l 869 260 q 867 210 869 233 q 858 167 866 186 q 831 133 849 148 q 779 108 812 118 q 693 92 745 98 q 565 87 641 87 q 419 93 478 87 q 321 112 359 98 q 261 146 282 125 q 231 199 240 168 q 219 273 221 231 q 218 369 218 315 q 219 465 218 423 q 231 538 221 507 q 261 591 240 570 q 321 626 282 613 q 419 645 359 640 q 565 651 478 651 q 693 646 641 651 q 779 630 745 640 q 831 605 812 620 q 858 571 849 590 q 867 528 866 551 q 869 477 869 505 l 999 477 q 980 604 999 551 q 912 692 961 657 q 779 743 863 726 q 565 760 695 760 q 394 752 467 760 q 268 726 321 744 q 179 678 214 708 q 124 605 144 648 q 95 503 103 562 q 87 369 87 445 z "},"£":{"ha":1128,"x_min":43,"x_max":1042,"o":"m 43 543 l 174 543 l 174 650 q 182 793 174 731 q 210 902 190 856 q 266 979 231 948 q 354 1029 300 1010 q 480 1056 407 1048 q 651 1064 553 1064 q 843 1048 767 1064 q 962 999 918 1032 q 1024 916 1006 966 q 1042 795 1042 865 l 911 795 q 910 842 911 821 q 901 882 909 864 q 877 913 893 899 q 832 937 861 927 q 759 951 804 946 q 651 956 715 956 q 505 949 564 956 q 407 929 446 943 q 347 892 368 916 q 317 835 326 869 q 306 755 307 801 q 304 650 304 709 l 304 543 l 868 543 l 868 434 l 304 434 l 304 109 l 998 109 l 998 0 l 174 0 l 174 434 l 43 434 l 43 543 z "},"¤":{"ha":868,"x_min":76,"x_max":792,"o":"m 434 629 q 325 616 375 629 q 235 575 275 603 l 133 663 l 76 597 l 174 513 q 141 439 153 480 q 130 347 130 398 q 141 255 130 296 q 174 182 153 214 l 76 98 l 133 32 l 235 119 q 325 78 274 91 q 434 65 375 65 q 543 78 492 65 q 633 119 593 91 l 735 32 l 792 98 l 694 182 q 726 255 715 214 q 738 347 738 296 q 727 439 738 398 q 694 513 715 480 l 792 597 l 735 663 l 633 575 q 543 616 593 603 q 434 629 492 629 m 434 174 q 366 182 397 174 q 310 212 334 191 q 274 265 287 232 q 260 347 260 298 q 274 429 260 396 q 310 483 287 463 q 366 512 334 503 q 434 521 397 521 q 502 512 471 521 q 557 483 534 503 q 594 429 581 463 q 608 347 608 396 q 594 265 608 298 q 557 212 581 232 q 502 182 534 191 q 434 174 471 174 z "},"¥":{"ha":1389,"x_min":43,"x_max":1345,"o":"m 282 282 l 629 282 l 629 434 l 282 434 l 282 543 l 524 543 l 43 1042 l 217 1042 l 694 521 l 1172 1042 l 1345 1042 l 864 543 l 1107 543 l 1107 434 l 760 434 l 760 282 l 1107 282 l 1107 174 l 760 174 l 760 0 l 629 0 l 629 174 l 282 174 l 282 282 z "},"¦":{"ha":304,"x_min":87,"x_max":217,"o":"m 87 608 l 217 608 l 217 1085 l 87 1085 l 87 608 m 87 -87 l 217 -87 l 217 391 l 87 391 l 87 -87 z "},"§":{"ha":1020,"x_min":87,"x_max":933,"o":"m 477 326 q 607 323 553 326 q 697 316 661 321 q 754 302 733 311 q 786 282 775 294 q 800 254 797 270 q 803 217 803 238 q 800 177 803 195 q 785 144 797 159 q 751 119 774 130 q 690 101 729 108 q 594 90 652 94 q 456 87 537 87 q 341 92 387 87 q 269 111 296 97 q 231 151 241 125 q 220 217 220 176 l 90 217 q 108 106 90 152 q 170 33 127 61 q 282 -9 212 4 q 456 -22 353 -22 q 627 -16 553 -22 q 753 2 701 -10 q 841 33 806 14 q 897 79 876 52 q 925 141 917 106 q 933 220 933 176 q 920 312 933 274 q 872 374 907 349 q 917 449 901 414 q 932 513 932 484 q 909 573 932 547 q 839 616 886 599 q 718 642 791 633 q 543 651 644 651 q 413 653 467 651 q 323 661 359 656 q 266 674 287 666 q 235 694 245 682 q 221 723 224 707 q 218 760 218 739 q 221 800 218 781 q 235 832 224 818 q 269 858 247 847 q 330 876 292 869 q 426 886 369 883 q 565 890 484 890 q 680 885 634 890 q 752 865 725 880 q 790 826 779 851 q 801 760 801 800 l 931 760 q 912 870 931 825 q 851 944 894 916 q 738 985 808 972 q 565 998 668 998 q 394 992 467 998 q 267 975 320 987 q 179 944 214 963 q 124 898 144 924 q 96 836 104 871 q 87 757 87 801 q 101 664 87 702 q 149 602 115 627 q 103 534 120 566 q 87 474 87 503 q 92 432 87 452 q 112 395 97 412 q 153 366 126 379 q 223 344 180 353 q 329 330 267 335 q 477 326 391 326 m 477 434 q 345 437 396 434 q 266 446 294 439 q 228 465 238 453 q 218 497 218 477 q 224 527 218 510 q 239 564 231 543 q 363 548 289 553 q 543 543 438 543 q 665 540 615 543 q 746 530 715 537 q 791 511 777 524 q 804 480 804 499 q 799 450 804 467 q 782 412 793 433 q 655 429 730 424 q 477 434 581 434 z "},"¨":{"ha":738,"x_min":43,"x_max":694,"o":"m 174 1042 l 43 1042 l 43 911 l 174 911 l 174 1042 m 694 1042 l 564 1042 l 564 911 l 694 911 l 694 1042 z "},"©":{"ha":1302,"x_min":87,"x_max":1215,"o":"m 651 1128 q 444 1114 532 1128 q 293 1070 355 1099 q 190 996 230 1040 q 127 890 150 951 q 95 754 104 830 q 87 586 87 678 q 95 418 87 494 q 127 281 104 342 q 190 176 150 221 q 293 102 230 132 q 444 58 355 73 q 651 43 532 43 q 859 58 770 43 q 1009 102 947 73 q 1112 176 1072 132 q 1175 281 1152 221 q 1207 418 1198 342 q 1215 586 1215 494 q 1207 754 1215 678 q 1175 890 1198 830 q 1112 996 1152 951 q 1009 1070 1072 1040 q 859 1114 947 1099 q 651 1128 770 1128 m 651 152 q 498 157 564 152 q 384 178 433 162 q 304 222 336 193 q 253 300 272 252 q 225 418 233 348 q 217 586 217 488 q 225 754 217 684 q 253 872 233 824 q 304 949 272 920 q 384 994 336 979 q 498 1015 433 1010 q 651 1020 564 1020 q 804 1015 738 1020 q 918 994 869 1010 q 998 949 966 979 q 1049 872 1030 920 q 1077 754 1069 824 q 1085 586 1085 684 q 1077 418 1085 488 q 1049 300 1069 348 q 998 222 1030 252 q 918 178 966 193 q 804 157 869 162 q 651 152 738 152 m 304 606 q 318 447 304 510 q 371 346 332 384 q 476 293 409 309 q 650 278 544 278 q 821 292 753 278 q 927 335 888 306 q 983 408 967 363 q 998 515 998 453 l 890 515 q 888 472 890 492 q 880 437 887 453 q 858 408 873 420 q 817 387 844 395 q 749 373 790 378 q 650 369 709 369 q 551 374 591 369 q 484 390 511 378 q 444 419 458 401 q 422 464 429 437 q 415 525 416 490 q 414 606 414 560 q 415 686 414 651 q 422 748 416 722 q 444 792 429 774 q 484 821 458 810 q 551 837 511 832 q 650 842 591 842 q 749 837 709 842 q 817 824 790 833 q 858 803 844 816 q 880 774 873 791 q 888 739 887 758 q 890 696 890 719 l 998 696 q 983 802 998 758 q 927 876 967 847 q 821 919 888 905 q 650 932 753 932 q 476 917 544 932 q 371 864 409 902 q 318 764 332 827 q 304 606 304 701 z "},"ª":{"ha":1085,"x_min":87,"x_max":998,"o":"m 868 107 q 838 66 866 99 q 783 23 817 42 q 693 -6 749 5 q 544 -16 636 -16 q 334 -4 421 -16 q 193 35 248 9 q 112 102 138 61 q 87 199 87 142 q 101 299 87 258 q 141 368 115 340 q 206 411 168 395 q 293 435 244 427 q 399 445 341 443 q 522 447 456 447 q 677 439 614 447 q 779 419 739 431 q 839 394 819 408 q 868 369 859 380 q 862 498 868 445 q 841 588 855 552 q 803 645 826 624 q 746 677 780 667 q 668 691 713 688 q 566 694 623 694 q 417 690 476 694 q 323 673 358 686 q 275 637 289 660 q 260 578 260 614 l 130 578 q 152 682 130 640 q 225 752 174 725 q 360 791 277 779 q 566 803 444 803 q 768 783 685 803 q 902 714 850 764 q 976 581 953 665 q 998 369 998 497 l 998 0 l 868 0 l 868 107 m 566 87 q 710 95 652 87 q 803 119 768 103 q 853 160 838 136 q 868 217 868 184 q 851 272 868 250 q 793 309 833 295 q 686 330 753 323 q 522 336 620 336 q 365 333 425 336 q 272 317 304 330 q 228 281 239 305 q 217 217 217 258 q 229 151 217 176 q 277 111 241 125 q 383 92 314 97 q 566 87 452 87 z "},"«":{"ha":911,"x_min":87,"x_max":825,"o":"m 521 174 l 456 87 l 87 347 l 87 477 l 456 738 l 521 651 l 174 412 l 521 174 m 825 174 l 760 87 l 391 347 l 391 477 l 760 738 l 825 651 l 477 412 l 825 174 z "},"¬":{"ha":825,"x_min":87,"x_max":738,"o":"m 738 434 l 608 434 l 608 629 l 87 629 l 87 738 l 738 738 l 738 434 z "},"®":{"ha":1302,"x_min":87,"x_max":1215,"o":"m 953 363 q 947 449 953 411 q 924 514 941 487 q 873 559 906 542 q 787 583 841 576 q 873 603 841 587 q 924 643 906 620 q 947 691 941 665 q 952 738 952 716 q 937 822 951 785 q 881 883 922 859 q 769 921 840 908 q 583 933 697 933 l 389 933 l 389 260 l 497 260 l 497 543 l 562 543 q 672 540 626 543 q 749 530 718 537 q 799 510 781 523 q 828 478 818 498 q 841 430 838 458 q 844 363 844 401 l 844 260 l 953 260 l 953 363 m 497 846 l 583 846 q 715 841 665 846 q 795 822 766 835 q 833 788 823 809 q 844 738 844 768 q 833 686 844 707 q 795 653 823 665 q 715 635 766 640 q 583 629 665 629 l 497 629 l 497 846 m 651 1128 q 444 1114 532 1128 q 293 1070 355 1099 q 190 996 230 1040 q 127 890 150 951 q 95 754 104 830 q 87 586 87 678 q 95 418 87 494 q 127 281 104 342 q 190 176 150 221 q 293 102 230 132 q 444 58 355 73 q 651 43 532 43 q 859 58 770 43 q 1009 102 947 73 q 1112 176 1072 132 q 1175 281 1152 221 q 1207 418 1198 342 q 1215 586 1215 494 q 1207 754 1215 678 q 1175 890 1198 830 q 1112 996 1152 951 q 1009 1070 1072 1040 q 859 1114 947 1099 q 651 1128 770 1128 m 651 152 q 498 157 564 152 q 384 178 433 162 q 304 222 336 193 q 253 300 272 252 q 225 418 233 348 q 217 586 217 488 q 225 754 217 684 q 253 872 233 824 q 304 949 272 920 q 384 994 336 979 q 498 1015 433 1010 q 651 1020 564 1020 q 804 1015 738 1020 q 918 994 869 1010 q 998 949 966 979 q 1049 872 1030 920 q 1077 754 1069 824 q 1085 586 1085 684 q 1077 418 1085 488 q 1049 300 1069 348 q 998 222 1030 252 q 918 178 966 193 q 804 157 869 162 q 651 152 738 152 z "},"¯":{"ha":694,"x_min":87,"x_max":608,"o":"m 87 911 l 608 911 l 608 1020 l 87 1020 l 87 911 z "},"°":{"ha":868,"x_min":130,"x_max":738,"o":"m 434 629 q 313 613 369 629 q 217 562 258 596 q 153 474 176 527 q 130 347 130 420 q 153 221 130 274 q 217 133 176 168 q 313 82 258 98 q 434 65 369 65 q 555 82 499 65 q 651 133 610 98 q 715 221 692 168 q 738 347 738 274 q 715 474 738 420 q 651 562 692 527 q 555 613 610 596 q 434 629 499 629 m 434 174 q 366 182 397 174 q 310 212 334 191 q 274 265 287 232 q 260 347 260 298 q 274 429 260 396 q 310 483 287 463 q 366 512 334 503 q 434 521 397 521 q 502 512 471 521 q 557 483 534 503 q 594 429 581 463 q 608 347 608 396 q 594 265 608 298 q 557 212 581 232 q 502 182 534 191 q 434 174 471 174 z "},"±":{"ha":911,"x_min":87,"x_max":825,"o":"m 87 651 l 391 651 l 391 955 l 521 955 l 521 651 l 825 651 l 825 543 l 521 543 l 521 217 l 391 217 l 391 543 l 87 543 l 87 651 z "},"²":{"ha":911,"x_min":87,"x_max":825,"o":"m 87 304 l 804 304 l 804 412 l 217 412 q 218 458 217 439 q 225 491 219 477 q 244 513 231 504 q 282 531 258 523 q 343 546 306 538 q 434 565 380 554 l 609 600 q 714 632 672 612 q 780 681 755 652 q 815 750 805 710 q 825 843 825 790 q 802 966 825 922 q 733 1032 779 1010 q 618 1059 688 1054 q 456 1063 549 1063 q 345 1062 396 1063 q 253 1055 294 1061 q 181 1035 212 1048 q 129 998 150 1022 q 97 937 108 974 q 87 846 87 900 l 217 846 q 218 886 217 869 q 224 915 218 903 q 244 935 231 927 q 284 947 258 943 q 353 953 311 951 q 456 955 395 955 q 571 952 526 955 q 645 939 617 950 q 683 906 672 928 q 694 842 694 883 q 686 777 694 802 q 661 738 677 752 q 621 715 645 723 q 566 702 597 708 l 304 652 q 186 619 229 638 q 121 576 143 600 q 93 522 99 551 q 87 456 87 492 l 87 304 z "},"³":{"ha":998,"x_min":87,"x_max":911,"o":"m 521 716 l 521 608 l 650 608 q 675 608 661 608 q 703 607 689 608 q 731 599 718 605 q 756 581 745 593 q 773 549 767 569 q 780 498 780 528 q 768 435 780 457 q 728 403 757 413 q 649 392 699 393 q 522 391 599 391 q 394 391 446 391 q 309 394 342 392 q 256 402 275 397 q 229 417 238 408 q 219 441 220 427 q 217 477 217 456 l 87 477 q 99 389 87 424 q 137 332 112 353 q 198 300 161 311 q 283 286 235 290 q 391 282 332 281 q 522 282 451 282 q 695 287 622 282 q 816 312 768 292 q 887 376 864 333 q 911 497 911 420 q 904 565 911 538 q 885 610 898 592 q 851 639 871 627 q 802 662 831 650 q 851 683 831 671 q 885 715 871 696 q 904 761 898 734 q 911 826 911 788 q 901 919 911 881 q 869 980 890 956 q 817 1017 848 1004 q 741 1035 785 1029 q 643 1041 698 1040 q 522 1042 588 1042 q 391 1042 451 1042 q 283 1039 332 1043 q 198 1023 235 1035 q 137 987 161 1011 q 99 924 112 964 q 87 826 87 885 l 217 826 q 219 870 217 852 q 229 900 220 888 q 256 919 238 912 q 309 929 275 926 q 394 932 342 932 q 522 933 446 933 q 649 934 599 933 q 728 926 699 935 q 768 895 757 917 q 780 825 780 872 q 772 770 780 791 q 748 737 764 749 q 707 721 732 725 q 650 716 683 716 l 521 716 z "},"´":{"ha":651,"x_min":87,"x_max":564,"o":"m 564 1128 l 477 1259 l 87 933 l 130 868 l 564 1128 z "},"µ":{"ha":1086,"x_min":87,"x_max":999,"o":"m 87 -260 q 87 -70 87 -153 q 87 79 87 13 q 87 199 87 146 q 87 300 87 252 q 87 393 87 348 q 87 490 87 439 q 87 601 87 541 q 87 738 87 661 l 218 738 l 218 347 q 229 225 218 275 q 272 144 239 175 q 364 100 304 114 q 522 87 424 87 q 695 102 627 87 q 801 146 762 118 q 854 215 840 175 q 869 304 869 255 l 869 738 l 999 738 l 999 0 l 869 0 l 869 130 q 862 116 868 128 q 841 87 857 104 q 799 52 826 71 q 729 16 772 33 q 625 -11 686 0 q 478 -22 563 -22 q 325 -11 389 -22 q 218 22 262 1 l 218 -260 l 87 -260 z "},"¶":{"ha":1345,"x_min":87,"x_max":1259,"o":"m 738 933 l 998 933 l 998 0 l 1128 0 l 1128 933 l 1259 933 l 1259 1042 l 565 1042 q 379 1033 456 1042 q 248 1008 301 1025 q 163 966 195 991 q 114 907 131 941 q 92 831 97 873 q 87 738 87 789 q 92 640 87 685 q 114 559 97 595 q 163 495 131 523 q 248 450 195 468 q 378 422 300 431 q 565 412 456 412 l 608 412 l 608 0 l 738 0 l 738 933 z "},"·":{"ha":304,"x_min":87,"x_max":217,"o":"m 217 608 l 87 608 l 87 477 l 217 477 l 217 608 z "},"¸":{"ha":434,"x_min":87,"x_max":347,"o":"m 87 -260 q 144 -259 119 -260 q 184 -252 168 -258 q 209 -233 201 -246 q 217 -195 217 -220 q 215 -179 217 -187 q 201 -165 213 -172 q 162 -156 189 -159 q 87 -152 136 -152 l 87 43 l 174 43 l 174 -87 q 237 -92 206 -87 q 293 -109 269 -96 q 332 -142 317 -121 q 347 -195 347 -163 q 325 -287 347 -252 q 266 -339 302 -321 q 182 -363 229 -357 q 87 -369 136 -369 l 87 -260 z "},"¹":{"ha":608,"x_min":43,"x_max":521,"o":"m 43 760 l 109 673 l 391 933 l 391 304 l 521 304 l 521 1042 l 347 1042 l 43 760 z "},"º":{"ha":1128,"x_min":87,"x_max":1042,"o":"m 87 652 q 113 841 87 766 q 195 961 138 916 q 343 1024 252 1006 q 564 1042 434 1042 q 785 1024 694 1042 q 933 961 876 1006 q 1016 841 990 916 q 1042 652 1042 766 q 1016 463 1042 538 q 933 342 990 387 q 785 279 876 298 q 564 261 694 261 q 343 279 434 261 q 195 342 252 298 q 113 463 138 387 q 87 652 87 538 m 217 652 q 222 548 217 592 q 240 472 227 504 q 277 421 253 441 q 339 390 300 401 q 433 374 378 378 q 564 370 488 370 q 728 377 662 370 q 836 413 795 385 q 894 498 876 441 q 911 652 911 554 q 894 806 911 749 q 836 890 876 862 q 728 926 795 919 q 564 934 662 934 q 400 926 467 934 q 293 890 334 919 q 235 806 252 862 q 217 652 217 749 z "},"»":{"ha":911,"x_min":87,"x_max":825,"o":"m 434 412 l 87 651 l 152 738 l 521 477 l 521 347 l 152 87 l 87 174 l 434 412 m 738 412 l 391 651 l 456 738 l 825 477 l 825 347 l 456 87 l 391 174 l 738 412 z "},"¼":{"ha":1931,"x_min":87,"x_max":1845,"o":"m 87 760 l 152 673 l 434 933 l 434 304 l 564 304 l 564 1042 l 391 1042 l 87 760 m 1085 1042 l 1215 1042 l 738 0 l 608 0 l 1085 1042 m 1845 130 l 1845 239 l 1714 239 l 1714 738 l 1541 738 l 1020 260 l 1020 130 l 1584 130 l 1584 0 l 1714 0 l 1714 130 l 1845 130 m 1150 239 l 1584 651 l 1584 239 l 1150 239 z "},"½":{"ha":1953,"x_min":87,"x_max":1866,"o":"m 87 760 l 152 673 l 434 933 l 434 304 l 564 304 l 564 1042 l 391 1042 l 87 760 m 1064 1042 l 1194 1042 l 717 0 l 587 0 l 1064 1042 m 1128 3 l 1846 3 l 1846 111 l 1259 111 q 1260 157 1259 138 q 1267 190 1261 176 q 1286 212 1273 203 q 1323 230 1299 222 q 1384 245 1348 237 q 1476 264 1421 253 l 1651 298 q 1755 331 1714 311 q 1822 380 1797 351 q 1856 449 1847 409 q 1866 542 1866 489 q 1844 665 1866 621 q 1775 731 1821 709 q 1660 758 1729 753 q 1498 762 1591 762 q 1387 761 1438 762 q 1295 753 1336 760 q 1222 734 1253 747 q 1171 697 1192 721 q 1139 636 1149 673 q 1128 545 1128 599 l 1259 545 q 1259 585 1259 568 q 1266 614 1260 602 q 1286 634 1272 626 q 1326 646 1299 642 q 1395 652 1353 650 q 1498 654 1436 654 q 1613 651 1567 654 q 1686 638 1659 649 q 1725 605 1714 627 q 1736 541 1736 582 q 1728 476 1736 500 q 1703 436 1719 451 q 1663 414 1687 422 q 1607 401 1638 407 l 1345 351 q 1228 318 1271 337 q 1163 275 1185 299 q 1135 220 1141 250 q 1128 155 1128 191 l 1128 3 z "},"¾":{"ha":2083,"x_min":87,"x_max":1997,"o":"m 521 716 l 521 608 l 650 608 q 675 608 661 608 q 703 607 689 608 q 731 599 718 605 q 756 581 745 593 q 773 549 767 569 q 780 498 780 528 q 768 435 780 457 q 728 403 757 413 q 649 392 699 393 q 522 391 599 391 q 394 391 446 391 q 309 394 342 392 q 256 402 275 397 q 229 417 238 408 q 219 441 220 427 q 217 477 217 456 l 87 477 q 99 389 87 424 q 137 332 112 353 q 198 300 161 311 q 283 286 235 290 q 391 282 332 281 q 522 282 451 282 q 695 287 622 282 q 816 312 768 292 q 887 376 864 333 q 911 497 911 420 q 904 565 911 538 q 885 610 898 592 q 851 639 871 627 q 802 662 831 650 q 851 683 831 671 q 885 715 871 696 q 904 761 898 734 q 911 826 911 788 q 901 919 911 881 q 869 980 890 956 q 817 1017 848 1004 q 741 1035 785 1029 q 643 1041 698 1040 q 522 1042 588 1042 q 391 1042 451 1042 q 283 1039 332 1043 q 198 1023 235 1035 q 137 987 161 1011 q 99 924 112 964 q 87 826 87 885 l 217 826 q 219 870 217 852 q 229 900 220 888 q 256 919 238 912 q 309 929 275 926 q 394 932 342 932 q 522 933 446 933 q 649 934 599 933 q 728 926 699 935 q 768 895 757 917 q 780 825 780 872 q 772 770 780 791 q 748 737 764 749 q 707 721 732 725 q 650 716 683 716 l 521 716 m 1302 1042 l 1432 1042 l 955 0 l 825 0 l 1302 1042 m 1997 130 l 1997 239 l 1866 239 l 1866 738 l 1693 738 l 1172 260 l 1172 130 l 1736 130 l 1736 0 l 1866 0 l 1866 130 l 1997 130 m 1302 239 l 1736 651 l 1736 239 l 1302 239 z "},"¿":{"ha":1259,"x_min":87,"x_max":1172,"o":"m 477 218 l 477 262 q 479 345 477 303 q 490 425 481 387 q 521 496 500 463 q 581 554 542 530 q 679 593 619 579 q 825 608 738 608 q 913 613 873 608 q 982 636 954 618 q 1025 689 1010 654 q 1041 781 1041 723 q 1023 880 1041 845 q 965 932 1006 916 q 859 952 925 949 q 694 955 792 955 q 493 952 575 955 q 358 941 412 949 q 277 920 305 933 q 235 884 248 906 q 219 832 222 863 q 217 761 217 802 l 87 761 q 105 888 87 837 q 158 974 123 940 q 244 1025 193 1007 q 363 1052 296 1044 q 514 1062 431 1061 q 694 1063 597 1063 q 836 1061 770 1063 q 954 1048 901 1058 q 1047 1021 1006 1039 q 1116 971 1088 1002 q 1158 893 1143 940 q 1172 782 1172 847 q 1155 670 1172 722 q 1101 580 1138 618 q 1007 520 1065 542 q 868 499 949 499 q 758 493 803 499 q 685 474 713 488 q 640 440 656 461 q 617 387 625 418 q 609 314 610 356 q 608 218 608 272 l 477 218 m 608 0 l 477 0 l 477 130 l 608 130 l 608 0 z "},"À":{"ha":1563,"x_min":87,"x_max":1476,"o":"m 1194 239 l 369 239 l 239 0 l 87 0 l 694 1042 l 868 1042 l 1476 0 l 1324 0 l 1194 239 m 1128 347 l 781 955 l 434 347 l 1128 347 m 543 1432 l 629 1563 l 1020 1237 l 977 1172 l 543 1432 z "},"Á":{"ha":1563,"x_min":87,"x_max":1476,"o":"m 1194 239 l 369 239 l 239 0 l 87 0 l 694 1042 l 868 1042 l 1476 0 l 1324 0 l 1194 239 m 1128 347 l 781 955 l 434 347 l 1128 347 m 1020 1432 l 933 1563 l 543 1237 l 586 1172 l 1020 1432 z "},"Â":{"ha":1563,"x_min":87,"x_max":1476,"o":"m 1194 239 l 369 239 l 239 0 l 87 0 l 694 1042 l 868 1042 l 1476 0 l 1324 0 l 1194 239 m 1128 347 l 781 955 l 434 347 l 1128 347 m 977 1172 l 1063 1237 l 846 1563 l 716 1563 l 499 1237 l 586 1172 l 781 1476 l 977 1172 z "},"Ã":{"ha":1563,"x_min":87,"x_max":1476,"o":"m 1194 239 l 369 239 l 239 0 l 87 0 l 694 1042 l 868 1042 l 1476 0 l 1324 0 l 1194 239 m 1128 347 l 781 955 l 434 347 l 1128 347 m 651 1280 q 708 1270 682 1280 q 763 1248 734 1260 q 827 1225 792 1236 q 911 1215 863 1215 q 966 1224 936 1215 q 1023 1252 996 1232 q 1067 1305 1049 1272 q 1085 1389 1085 1339 l 955 1389 q 952 1356 955 1369 q 944 1336 949 1343 q 930 1326 939 1329 q 911 1324 922 1324 q 855 1334 881 1324 q 800 1357 829 1344 q 735 1379 770 1369 q 651 1390 700 1390 q 596 1382 627 1390 q 540 1354 566 1374 q 495 1301 513 1335 q 477 1215 477 1267 l 608 1215 q 610 1249 608 1236 q 618 1269 613 1262 q 632 1278 624 1276 q 651 1280 640 1280 z "},"Ä":{"ha":1563,"x_min":87,"x_max":1476,"o":"m 1194 239 l 369 239 l 239 0 l 87 0 l 694 1042 l 868 1042 l 1476 0 l 1324 0 l 1194 239 m 1128 347 l 781 955 l 434 347 l 1128 347 m 586 1345 l 456 1345 l 456 1215 l 586 1215 l 586 1345 m 1107 1345 l 977 1345 l 977 1215 l 1107 1215 l 1107 1345 z "},"Å":{"ha":1563,"x_min":87,"x_max":1476,"o":"m 1194 239 l 369 239 l 239 0 l 87 0 l 694 1042 l 868 1042 l 1476 0 l 1324 0 l 1194 239 m 1128 347 l 781 955 l 434 347 l 1128 347 m 781 1606 q 671 1587 716 1606 q 597 1538 625 1569 q 555 1469 568 1508 q 543 1389 543 1430 q 555 1309 543 1348 q 597 1240 568 1270 q 671 1191 625 1209 q 781 1172 716 1172 q 892 1191 846 1172 q 966 1240 937 1209 q 1007 1309 994 1270 q 1020 1389 1020 1348 q 1007 1469 1020 1430 q 966 1538 994 1508 q 892 1587 937 1569 q 781 1606 846 1606 m 781 1259 q 715 1270 741 1259 q 675 1299 690 1281 q 656 1341 661 1318 q 651 1389 651 1364 q 656 1437 651 1413 q 675 1478 661 1460 q 715 1508 690 1497 q 781 1519 741 1519 q 847 1508 822 1519 q 887 1478 873 1497 q 906 1437 901 1460 q 911 1389 911 1413 q 906 1341 911 1364 q 887 1299 901 1318 q 847 1270 873 1281 q 781 1259 822 1259 z "},"Æ":{"ha":2083,"x_min":0,"x_max":1997,"o":"m 998 0 l 998 239 l 395 239 l 174 0 l 0 0 l 955 1042 l 1997 1042 l 1997 933 l 1128 933 l 1128 586 l 1953 586 l 1953 477 l 1128 477 l 1128 109 l 1997 109 l 1997 0 l 998 0 m 998 347 l 998 933 l 477 347 l 998 347 z "},"Ç":{"ha":1432,"x_min":87,"x_max":1345,"o":"m 650 -260 q 707 -259 683 -260 q 748 -252 732 -258 q 772 -233 764 -246 q 781 -195 781 -220 q 779 -179 781 -187 q 764 -165 777 -172 q 726 -156 752 -159 q 650 -152 699 -152 l 650 -22 l 564 -22 q 362 -7 444 -22 q 228 37 281 7 q 146 111 175 66 q 104 216 117 156 q 89 353 91 277 q 87 521 87 429 q 89 689 87 613 q 104 825 91 765 q 146 930 117 886 q 228 1005 175 975 q 362 1049 281 1034 q 564 1063 444 1063 l 868 1063 q 1039 1054 966 1063 q 1165 1026 1112 1045 q 1253 979 1218 1008 q 1308 912 1287 951 q 1337 825 1329 873 q 1345 716 1345 776 l 1215 716 q 1197 845 1215 798 q 1139 917 1179 892 q 1032 948 1098 941 q 868 955 966 955 l 564 955 q 417 950 477 955 q 319 929 358 945 q 260 884 281 913 q 229 807 239 855 q 218 689 220 759 q 217 521 217 618 q 219 353 217 423 q 230 235 220 283 q 260 157 239 186 q 319 113 281 128 q 417 92 358 97 q 564 87 477 87 l 868 87 q 999 91 944 87 q 1093 106 1054 95 q 1155 136 1131 117 q 1192 183 1179 155 q 1210 253 1205 212 q 1215 347 1215 293 l 1345 347 q 1337 230 1345 282 q 1308 136 1329 177 q 1253 65 1287 95 q 1165 16 1218 35 q 1039 -13 1112 -3 q 868 -22 966 -22 l 737 -22 l 737 -87 q 801 -92 770 -87 q 857 -109 832 -96 q 896 -142 881 -121 q 911 -195 911 -163 q 888 -287 911 -252 q 829 -339 866 -321 q 746 -363 793 -357 q 650 -369 699 -369 l 650 -260 z "},"È":{"ha":1215,"x_min":130,"x_max":1172,"o":"m 130 0 l 130 1042 l 1172 1042 l 1172 933 l 260 933 l 260 586 l 1128 586 l 1128 477 l 260 477 l 260 109 l 1172 109 l 1172 0 l 130 0 m 412 1432 l 499 1563 l 890 1237 l 846 1172 l 412 1432 z "},"É":{"ha":1215,"x_min":130,"x_max":1172,"o":"m 130 0 l 130 1042 l 1172 1042 l 1172 933 l 260 933 l 260 586 l 1128 586 l 1128 477 l 260 477 l 260 109 l 1172 109 l 1172 0 l 130 0 m 890 1432 l 803 1563 l 412 1237 l 456 1172 l 890 1432 z "},"Ê":{"ha":1215,"x_min":130,"x_max":1172,"o":"m 130 0 l 130 1042 l 1172 1042 l 1172 933 l 260 933 l 260 586 l 1128 586 l 1128 477 l 260 477 l 260 109 l 1172 109 l 1172 0 l 130 0 m 846 1172 l 933 1237 l 716 1563 l 586 1563 l 369 1237 l 456 1172 l 651 1476 l 846 1172 z "},"Ë":{"ha":1215,"x_min":130,"x_max":1172,"o":"m 130 0 l 130 1042 l 1172 1042 l 1172 933 l 260 933 l 260 586 l 1128 586 l 1128 477 l 260 477 l 260 109 l 1172 109 l 1172 0 l 130 0 m 456 1345 l 326 1345 l 326 1215 l 456 1215 l 456 1345 m 977 1345 l 846 1345 l 846 1215 l 977 1215 l 977 1345 z "},"Ì":{"ha":304,"x_min":-85,"x_max":393,"o":"m 87 1042 l 218 1042 l 218 0 l 87 0 l 87 1042 m -85 1432 l 2 1563 l 393 1237 l 349 1172 l -85 1432 z "},"Í":{"ha":304,"x_min":-85,"x_max":393,"o":"m 87 1042 l 218 1042 l 218 0 l 87 0 l 87 1042 m 393 1432 l 306 1563 l -85 1237 l -41 1172 l 393 1432 z "},"Î":{"ha":304,"x_min":-128,"x_max":436,"o":"m 87 1042 l 218 1042 l 218 0 l 87 0 l 87 1042 m 349 1172 l 436 1237 l 219 1563 l 89 1563 l -128 1237 l -41 1172 l 154 1476 l 349 1172 z "},"Ï":{"ha":304,"x_min":-172,"x_max":479,"o":"m 87 1042 l 218 1042 l 218 0 l 87 0 l 87 1042 m -41 1345 l -172 1345 l -172 1215 l -41 1215 l -41 1345 m 479 1345 l 349 1345 l 349 1215 l 479 1215 l 479 1345 z "},"Ð":{"ha":1432,"x_min":0,"x_max":1345,"o":"m 0 477 l 87 477 l 87 0 l 867 0 q 1068 14 987 0 q 1203 56 1150 28 q 1285 127 1257 85 q 1328 228 1314 170 q 1343 359 1341 286 q 1345 521 1345 432 q 1343 683 1345 610 q 1328 813 1341 755 q 1285 914 1314 871 q 1203 985 1257 957 q 1068 1028 1150 1014 q 867 1042 987 1042 l 87 1042 l 87 586 l 0 586 l 0 477 m 217 109 l 217 477 l 521 477 l 521 586 l 217 586 l 217 933 l 867 933 q 1014 928 954 933 q 1112 909 1073 924 q 1171 867 1150 895 q 1202 793 1192 839 q 1214 681 1212 747 q 1215 521 1215 614 q 1214 361 1215 428 q 1202 249 1212 294 q 1171 175 1192 203 q 1112 133 1150 147 q 1013 113 1073 118 q 867 109 954 109 l 217 109 z "},"Ñ":{"ha":1487,"x_min":87,"x_max":1401,"o":"m 218 0 l 87 0 l 87 1042 l 316 1042 l 1271 130 l 1271 1042 l 1401 1042 l 1401 0 l 1227 0 l 218 933 l 218 0 m 613 1280 q 670 1270 644 1280 q 725 1248 696 1260 q 789 1225 754 1236 q 873 1215 825 1215 q 928 1224 898 1215 q 985 1252 958 1232 q 1029 1305 1011 1272 q 1047 1389 1047 1339 l 917 1389 q 914 1356 917 1369 q 906 1336 911 1343 q 892 1326 901 1329 q 873 1324 884 1324 q 817 1334 843 1324 q 762 1357 791 1344 q 697 1379 732 1369 q 613 1390 662 1390 q 558 1382 589 1390 q 502 1354 528 1374 q 457 1301 475 1335 q 439 1215 439 1267 l 570 1215 q 572 1249 570 1236 q 581 1269 575 1262 q 594 1278 586 1276 q 613 1280 602 1280 z "},"Ò":{"ha":1519,"x_min":87,"x_max":1432,"o":"m 956 1063 q 1157 1049 1075 1063 q 1291 1005 1238 1034 q 1373 930 1344 975 q 1414 825 1401 886 q 1430 689 1428 765 q 1432 521 1432 613 q 1430 353 1432 429 q 1414 216 1428 277 q 1373 111 1401 156 q 1291 37 1344 66 q 1157 -7 1238 7 q 956 -22 1075 -22 l 564 -22 q 362 -7 444 -22 q 228 37 281 7 q 146 111 175 66 q 104 216 117 156 q 89 353 91 277 q 87 521 87 429 q 89 689 87 613 q 104 825 91 765 q 146 930 117 886 q 228 1005 175 975 q 362 1049 281 1034 q 564 1063 444 1063 l 956 1063 m 956 87 q 1101 92 1042 87 q 1199 113 1160 97 q 1259 157 1238 128 q 1289 235 1280 186 q 1300 353 1299 283 q 1302 521 1302 423 q 1300 689 1302 618 q 1289 807 1299 759 q 1259 884 1280 855 q 1199 929 1238 913 q 1102 950 1161 945 q 956 955 1042 955 l 564 955 q 417 950 477 955 q 319 929 358 945 q 260 884 281 913 q 229 807 239 855 q 218 689 220 759 q 217 521 217 618 q 219 353 217 423 q 230 235 220 283 q 260 157 239 186 q 319 113 281 128 q 417 92 358 97 q 564 87 477 87 l 956 87 m 520 1432 l 607 1563 l 998 1237 l 954 1172 l 520 1432 z "},"Ó":{"ha":1519,"x_min":87,"x_max":1432,"o":"m 956 1063 q 1157 1049 1075 1063 q 1291 1005 1238 1034 q 1373 930 1344 975 q 1414 825 1401 886 q 1430 689 1428 765 q 1432 521 1432 613 q 1430 353 1432 429 q 1414 216 1428 277 q 1373 111 1401 156 q 1291 37 1344 66 q 1157 -7 1238 7 q 956 -22 1075 -22 l 564 -22 q 362 -7 444 -22 q 228 37 281 7 q 146 111 175 66 q 104 216 117 156 q 89 353 91 277 q 87 521 87 429 q 89 689 87 613 q 104 825 91 765 q 146 930 117 886 q 228 1005 175 975 q 362 1049 281 1034 q 564 1063 444 1063 l 956 1063 m 956 87 q 1101 92 1042 87 q 1199 113 1160 97 q 1259 157 1238 128 q 1289 235 1280 186 q 1300 353 1299 283 q 1302 521 1302 423 q 1300 689 1302 618 q 1289 807 1299 759 q 1259 884 1280 855 q 1199 929 1238 913 q 1102 950 1161 945 q 956 955 1042 955 l 564 955 q 417 950 477 955 q 319 929 358 945 q 260 884 281 913 q 229 807 239 855 q 218 689 220 759 q 217 521 217 618 q 219 353 217 423 q 230 235 220 283 q 260 157 239 186 q 319 113 281 128 q 417 92 358 97 q 564 87 477 87 l 956 87 m 998 1432 l 911 1563 l 520 1237 l 564 1172 l 998 1432 z "},"Ô":{"ha":1519,"x_min":87,"x_max":1432,"o":"m 956 1063 q 1157 1049 1075 1063 q 1291 1005 1238 1034 q 1373 930 1344 975 q 1414 825 1401 886 q 1430 689 1428 765 q 1432 521 1432 613 q 1430 353 1432 429 q 1414 216 1428 277 q 1373 111 1401 156 q 1291 37 1344 66 q 1157 -7 1238 7 q 956 -22 1075 -22 l 564 -22 q 362 -7 444 -22 q 228 37 281 7 q 146 111 175 66 q 104 216 117 156 q 89 353 91 277 q 87 521 87 429 q 89 689 87 613 q 104 825 91 765 q 146 930 117 886 q 228 1005 175 975 q 362 1049 281 1034 q 564 1063 444 1063 l 956 1063 m 956 87 q 1101 92 1042 87 q 1199 113 1160 97 q 1259 157 1238 128 q 1289 235 1280 186 q 1300 353 1299 283 q 1302 521 1302 423 q 1300 689 1302 618 q 1289 807 1299 759 q 1259 884 1280 855 q 1199 929 1238 913 q 1102 950 1161 945 q 956 955 1042 955 l 564 955 q 417 950 477 955 q 319 929 358 945 q 260 884 281 913 q 229 807 239 855 q 218 689 220 759 q 217 521 217 618 q 219 353 217 423 q 230 235 220 283 q 260 157 239 186 q 319 113 281 128 q 417 92 358 97 q 564 87 477 87 l 956 87 m 954 1172 l 1041 1237 l 824 1563 l 694 1563 l 477 1237 l 564 1172 l 759 1476 l 954 1172 z "},"Õ":{"ha":1519,"x_min":87,"x_max":1432,"o":"m 956 1063 q 1157 1049 1075 1063 q 1291 1005 1238 1034 q 1373 930 1344 975 q 1414 825 1401 886 q 1430 689 1428 765 q 1432 521 1432 613 q 1430 353 1432 429 q 1414 216 1428 277 q 1373 111 1401 156 q 1291 37 1344 66 q 1157 -7 1238 7 q 956 -22 1075 -22 l 564 -22 q 362 -7 444 -22 q 228 37 281 7 q 146 111 175 66 q 104 216 117 156 q 89 353 91 277 q 87 521 87 429 q 89 689 87 613 q 104 825 91 765 q 146 930 117 886 q 228 1005 175 975 q 362 1049 281 1034 q 564 1063 444 1063 l 956 1063 m 956 87 q 1101 92 1042 87 q 1199 113 1160 97 q 1259 157 1238 128 q 1289 235 1280 186 q 1300 353 1299 283 q 1302 521 1302 423 q 1300 689 1302 618 q 1289 807 1299 759 q 1259 884 1280 855 q 1199 929 1238 913 q 1102 950 1161 945 q 956 955 1042 955 l 564 955 q 417 950 477 955 q 319 929 358 945 q 260 884 281 913 q 229 807 239 855 q 218 689 220 759 q 217 521 217 618 q 219 353 217 423 q 230 235 220 283 q 260 157 239 186 q 319 113 281 128 q 417 92 358 97 q 564 87 477 87 l 956 87 m 629 1280 q 685 1270 659 1280 q 741 1248 711 1260 q 805 1225 770 1236 q 889 1215 840 1215 q 944 1224 913 1215 q 1000 1252 974 1232 q 1045 1305 1027 1272 q 1063 1389 1063 1339 l 932 1389 q 930 1356 932 1369 q 922 1336 927 1343 q 908 1326 916 1329 q 889 1324 900 1324 q 832 1334 859 1324 q 777 1357 806 1344 q 713 1379 748 1369 q 629 1390 677 1390 q 574 1382 604 1390 q 517 1354 544 1374 q 473 1301 491 1335 q 455 1215 455 1267 l 585 1215 q 588 1249 585 1236 q 596 1269 591 1262 q 610 1278 602 1276 q 629 1280 618 1280 z "},"Ö":{"ha":1519,"x_min":87,"x_max":1432,"o":"m 956 1063 q 1157 1049 1075 1063 q 1291 1005 1238 1034 q 1373 930 1344 975 q 1414 825 1401 886 q 1430 689 1428 765 q 1432 521 1432 613 q 1430 353 1432 429 q 1414 216 1428 277 q 1373 111 1401 156 q 1291 37 1344 66 q 1157 -7 1238 7 q 956 -22 1075 -22 l 564 -22 q 362 -7 444 -22 q 228 37 281 7 q 146 111 175 66 q 104 216 117 156 q 89 353 91 277 q 87 521 87 429 q 89 689 87 613 q 104 825 91 765 q 146 930 117 886 q 228 1005 175 975 q 362 1049 281 1034 q 564 1063 444 1063 l 956 1063 m 956 87 q 1101 92 1042 87 q 1199 113 1160 97 q 1259 157 1238 128 q 1289 235 1280 186 q 1300 353 1299 283 q 1302 521 1302 423 q 1300 689 1302 618 q 1289 807 1299 759 q 1259 884 1280 855 q 1199 929 1238 913 q 1102 950 1161 945 q 956 955 1042 955 l 564 955 q 417 950 477 955 q 319 929 358 945 q 260 884 281 913 q 229 807 239 855 q 218 689 220 759 q 217 521 217 618 q 219 353 217 423 q 230 235 220 283 q 260 157 239 186 q 319 113 281 128 q 417 92 358 97 q 564 87 477 87 l 956 87 m 564 1345 l 433 1345 l 433 1215 l 564 1215 l 564 1345 m 1084 1345 l 954 1345 l 954 1215 l 1084 1215 l 1084 1345 z "},"×":{"ha":911,"x_min":149,"x_max":763,"o":"m 763 801 l 671 893 l 456 678 l 241 893 l 149 801 l 363 586 l 149 371 l 241 279 l 456 494 l 671 279 l 763 371 l 548 586 l 763 801 z "},"Ø":{"ha":1520,"x_min":87,"x_max":1433,"o":"m 956 1063 l 959 1063 l 1020 1215 l 1128 1172 l 1082 1059 q 1157 1048 1123 1055 q 1292 1005 1239 1034 q 1373 930 1345 975 q 1415 825 1402 886 q 1431 689 1428 765 q 1433 521 1433 613 q 1431 353 1433 429 q 1415 216 1428 277 q 1373 111 1402 156 q 1292 37 1345 66 q 1157 -7 1239 7 q 956 -22 1076 -22 l 647 -22 l 586 -174 l 477 -130 l 522 -21 q 363 -7 430 -19 q 229 37 281 7 q 147 111 176 66 q 105 216 118 156 q 90 353 92 277 q 87 521 87 429 q 90 689 87 613 q 105 825 92 765 q 147 930 118 886 q 229 1005 176 975 q 363 1049 281 1034 q 564 1063 445 1063 l 956 1063 m 418 949 q 320 929 359 945 q 260 884 281 913 q 230 807 239 855 q 219 689 220 759 q 218 521 218 618 q 219 353 218 423 q 231 235 221 283 q 261 157 240 186 q 320 113 281 128 q 418 92 359 97 q 564 87 477 87 l 565 87 l 915 955 l 564 955 q 418 949 477 955 m 956 87 q 1102 92 1042 87 q 1200 113 1161 97 q 1259 157 1238 128 q 1290 235 1280 186 q 1301 353 1299 283 q 1303 521 1303 423 q 1301 689 1303 618 q 1290 807 1299 759 q 1259 884 1280 855 q 1200 929 1238 913 q 1102 949 1162 945 q 1040 954 1074 952 l 691 87 l 956 87 z "},"Ù":{"ha":1433,"x_min":87,"x_max":1346,"o":"m 1346 1042 l 1346 521 q 1344 353 1346 429 q 1328 216 1341 277 q 1286 111 1315 156 q 1205 37 1258 66 q 1070 -7 1152 7 q 869 -22 989 -22 l 564 -22 q 363 -7 445 -22 q 229 37 281 7 q 147 111 176 66 q 105 216 118 156 q 90 353 92 277 q 87 521 87 429 l 87 1042 l 218 1042 l 218 521 q 219 353 218 423 q 231 235 221 283 q 261 157 240 186 q 320 113 281 128 q 418 92 359 97 q 564 87 477 87 l 869 87 q 1015 92 956 87 q 1113 113 1075 97 q 1173 157 1152 128 q 1203 235 1194 186 q 1215 353 1213 283 q 1216 521 1216 423 l 1215 1042 l 1346 1042 m 477 1432 l 564 1563 l 955 1237 l 911 1172 l 477 1432 z "},"Ú":{"ha":1433,"x_min":87,"x_max":1346,"o":"m 1346 1042 l 1346 521 q 1344 353 1346 429 q 1328 216 1341 277 q 1286 111 1315 156 q 1205 37 1258 66 q 1070 -7 1152 7 q 869 -22 989 -22 l 564 -22 q 363 -7 445 -22 q 229 37 281 7 q 147 111 176 66 q 105 216 118 156 q 90 353 92 277 q 87 521 87 429 l 87 1042 l 218 1042 l 218 521 q 219 353 218 423 q 231 235 221 283 q 261 157 240 186 q 320 113 281 128 q 418 92 359 97 q 564 87 477 87 l 869 87 q 1015 92 956 87 q 1113 113 1075 97 q 1173 157 1152 128 q 1203 235 1194 186 q 1215 353 1213 283 q 1216 521 1216 423 l 1215 1042 l 1346 1042 m 955 1432 l 868 1563 l 477 1237 l 521 1172 l 955 1432 z "},"Û":{"ha":1433,"x_min":87,"x_max":1346,"o":"m 1346 1042 l 1346 521 q 1344 353 1346 429 q 1328 216 1341 277 q 1286 111 1315 156 q 1205 37 1258 66 q 1070 -7 1152 7 q 869 -22 989 -22 l 564 -22 q 363 -7 445 -22 q 229 37 281 7 q 147 111 176 66 q 105 216 118 156 q 90 353 92 277 q 87 521 87 429 l 87 1042 l 218 1042 l 218 521 q 219 353 218 423 q 231 235 221 283 q 261 157 240 186 q 320 113 281 128 q 418 92 359 97 q 564 87 477 87 l 869 87 q 1015 92 956 87 q 1113 113 1075 97 q 1173 157 1152 128 q 1203 235 1194 186 q 1215 353 1213 283 q 1216 521 1216 423 l 1215 1042 l 1346 1042 m 911 1172 l 998 1237 l 781 1563 l 651 1563 l 434 1237 l 521 1172 l 716 1476 l 911 1172 z "},"Ü":{"ha":1433,"x_min":87,"x_max":1346,"o":"m 1346 1042 l 1346 521 q 1344 353 1346 429 q 1328 216 1341 277 q 1286 111 1315 156 q 1205 37 1258 66 q 1070 -7 1152 7 q 869 -22 989 -22 l 564 -22 q 363 -7 445 -22 q 229 37 281 7 q 147 111 176 66 q 105 216 118 156 q 90 353 92 277 q 87 521 87 429 l 87 1042 l 218 1042 l 218 521 q 219 353 218 423 q 231 235 221 283 q 261 157 240 186 q 320 113 281 128 q 418 92 359 97 q 564 87 477 87 l 869 87 q 1015 92 956 87 q 1113 113 1075 97 q 1173 157 1152 128 q 1203 235 1194 186 q 1215 353 1213 283 q 1216 521 1216 423 l 1215 1042 l 1346 1042 m 521 1345 l 391 1345 l 391 1215 l 521 1215 l 521 1345 m 1042 1345 l 911 1345 l 911 1215 l 1042 1215 l 1042 1345 z "},"Ý":{"ha":1476,"x_min":87,"x_max":1389,"o":"m 87 1042 l 260 1042 l 738 532 l 1215 1042 l 1389 1042 l 803 434 l 803 0 l 673 0 l 673 434 l 87 1042 m 985 1432 l 898 1563 l 507 1237 l 551 1172 l 985 1432 z "},"Þ":{"ha":1302,"x_min":87,"x_max":1259,"o":"m 87 0 l 217 0 l 217 282 l 781 282 q 982 292 900 282 q 1117 319 1063 301 q 1199 365 1170 338 q 1241 429 1227 393 q 1256 510 1254 465 q 1259 608 1259 555 q 1257 701 1259 659 q 1244 777 1255 743 q 1210 836 1234 810 q 1143 878 1187 861 q 1033 903 1100 895 q 869 911 966 911 l 217 911 l 217 1042 l 87 1042 l 87 0 m 217 803 l 781 803 q 927 801 867 803 q 1025 792 986 799 q 1084 772 1063 785 q 1115 737 1105 759 q 1127 684 1125 715 q 1128 608 1128 652 q 1127 526 1128 560 q 1115 467 1125 492 q 1084 428 1105 443 q 1025 405 1063 413 q 927 394 986 397 q 781 391 867 391 l 217 391 l 217 803 z "},"ß":{"ha":1389,"x_min":87,"x_max":1302,"o":"m 522 1042 q 354 1033 424 1042 q 235 1006 283 1024 q 157 961 186 988 q 113 898 128 934 q 92 817 97 862 q 87 718 87 772 l 87 -87 l 217 -87 l 217 718 q 222 801 217 766 q 240 860 227 836 q 277 898 253 884 q 339 921 300 913 q 433 931 378 928 q 565 933 489 933 l 825 933 q 939 928 890 933 q 1020 908 987 923 q 1069 867 1053 894 q 1085 796 1085 840 q 1076 699 1085 736 q 1038 642 1066 662 q 959 614 1010 621 q 824 608 907 608 l 347 608 l 347 499 l 824 499 q 956 497 900 499 q 1050 488 1011 494 q 1112 469 1088 481 q 1149 438 1136 457 q 1167 390 1162 418 q 1172 324 1172 362 q 1167 241 1172 275 q 1149 182 1162 206 q 1112 143 1136 158 q 1050 121 1088 129 q 956 111 1011 113 q 824 109 900 109 l 347 109 l 347 0 l 867 0 q 1035 9 965 0 q 1154 36 1105 18 q 1232 81 1202 54 q 1276 144 1261 108 q 1297 225 1292 180 q 1302 324 1302 270 q 1293 403 1302 369 q 1268 463 1283 437 q 1233 506 1253 488 q 1194 534 1214 523 q 1085 564 1146 561 q 1150 593 1122 568 q 1174 621 1162 604 q 1195 662 1185 637 q 1210 720 1204 686 q 1215 796 1215 753 q 1198 902 1215 856 q 1139 979 1180 948 q 1032 1026 1099 1010 q 868 1042 966 1042 l 522 1042 z "},"à":{"ha":1085,"x_min":87,"x_max":998,"o":"m 868 107 q 838 66 866 99 q 783 23 817 42 q 693 -6 749 5 q 544 -16 636 -16 q 334 -4 421 -16 q 193 35 248 9 q 112 102 138 61 q 87 199 87 142 q 101 299 87 258 q 141 368 115 340 q 206 411 168 395 q 293 435 244 427 q 399 445 341 443 q 522 447 456 447 q 677 439 614 447 q 779 419 739 431 q 839 394 819 408 q 868 369 859 380 q 862 498 868 445 q 841 588 855 552 q 803 645 826 624 q 746 677 780 667 q 668 691 713 688 q 566 694 623 694 q 417 690 476 694 q 323 673 358 686 q 275 637 289 660 q 260 578 260 614 l 130 578 q 152 682 130 640 q 225 752 174 725 q 360 791 277 779 q 566 803 444 803 q 768 783 685 803 q 902 714 850 764 q 976 581 953 665 q 998 369 998 497 l 998 0 l 868 0 l 868 107 m 566 87 q 710 95 652 87 q 803 119 768 103 q 853 160 838 136 q 868 217 868 184 q 851 272 868 250 q 793 309 833 295 q 686 330 753 323 q 522 336 620 336 q 365 333 425 336 q 272 317 304 330 q 228 281 239 305 q 217 217 217 258 q 229 151 217 176 q 277 111 241 125 q 383 92 314 97 q 566 87 452 87 m 304 1128 l 391 1259 l 781 933 l 738 868 l 304 1128 z "},"á":{"ha":1085,"x_min":87,"x_max":998,"o":"m 868 107 q 838 66 866 99 q 783 23 817 42 q 693 -6 749 5 q 544 -16 636 -16 q 334 -4 421 -16 q 193 35 248 9 q 112 102 138 61 q 87 199 87 142 q 101 299 87 258 q 141 368 115 340 q 206 411 168 395 q 293 435 244 427 q 399 445 341 443 q 522 447 456 447 q 677 439 614 447 q 779 419 739 431 q 839 394 819 408 q 868 369 859 380 q 862 498 868 445 q 841 588 855 552 q 803 645 826 624 q 746 677 780 667 q 668 691 713 688 q 566 694 623 694 q 417 690 476 694 q 323 673 358 686 q 275 637 289 660 q 260 578 260 614 l 130 578 q 152 682 130 640 q 225 752 174 725 q 360 791 277 779 q 566 803 444 803 q 768 783 685 803 q 902 714 850 764 q 976 581 953 665 q 998 369 998 497 l 998 0 l 868 0 l 868 107 m 566 87 q 710 95 652 87 q 803 119 768 103 q 853 160 838 136 q 868 217 868 184 q 851 272 868 250 q 793 309 833 295 q 686 330 753 323 q 522 336 620 336 q 365 333 425 336 q 272 317 304 330 q 228 281 239 305 q 217 217 217 258 q 229 151 217 176 q 277 111 241 125 q 383 92 314 97 q 566 87 452 87 m 781 1128 l 694 1259 l 304 933 l 347 868 l 781 1128 z "},"â":{"ha":1085,"x_min":87,"x_max":998,"o":"m 868 107 q 838 66 866 99 q 783 23 817 42 q 693 -6 749 5 q 544 -16 636 -16 q 334 -4 421 -16 q 193 35 248 9 q 112 102 138 61 q 87 199 87 142 q 101 299 87 258 q 141 368 115 340 q 206 411 168 395 q 293 435 244 427 q 399 445 341 443 q 522 447 456 447 q 677 439 614 447 q 779 419 739 431 q 839 394 819 408 q 868 369 859 380 q 862 498 868 445 q 841 588 855 552 q 803 645 826 624 q 746 677 780 667 q 668 691 713 688 q 566 694 623 694 q 417 690 476 694 q 323 673 358 686 q 275 637 289 660 q 260 578 260 614 l 130 578 q 152 682 130 640 q 225 752 174 725 q 360 791 277 779 q 566 803 444 803 q 768 783 685 803 q 902 714 850 764 q 976 581 953 665 q 998 369 998 497 l 998 0 l 868 0 l 868 107 m 566 87 q 710 95 652 87 q 803 119 768 103 q 853 160 838 136 q 868 217 868 184 q 851 272 868 250 q 793 309 833 295 q 686 330 753 323 q 522 336 620 336 q 365 333 425 336 q 272 317 304 330 q 228 281 239 305 q 217 217 217 258 q 229 151 217 176 q 277 111 241 125 q 383 92 314 97 q 566 87 452 87 m 738 868 l 825 933 l 608 1259 l 477 1259 l 260 933 l 347 868 l 543 1172 l 738 868 z "},"ã":{"ha":1085,"x_min":87,"x_max":998,"o":"m 868 107 q 838 66 866 99 q 783 23 817 42 q 693 -6 749 5 q 544 -16 636 -16 q 334 -4 421 -16 q 193 35 248 9 q 112 102 138 61 q 87 199 87 142 q 101 299 87 258 q 141 368 115 340 q 206 411 168 395 q 293 435 244 427 q 399 445 341 443 q 522 447 456 447 q 677 439 614 447 q 779 419 739 431 q 839 394 819 408 q 868 369 859 380 q 862 498 868 445 q 841 588 855 552 q 803 645 826 624 q 746 677 780 667 q 668 691 713 688 q 566 694 623 694 q 417 690 476 694 q 323 673 358 686 q 275 637 289 660 q 260 578 260 614 l 130 578 q 152 682 130 640 q 225 752 174 725 q 360 791 277 779 q 566 803 444 803 q 768 783 685 803 q 902 714 850 764 q 976 581 953 665 q 998 369 998 497 l 998 0 l 868 0 l 868 107 m 566 87 q 710 95 652 87 q 803 119 768 103 q 853 160 838 136 q 868 217 868 184 q 851 272 868 250 q 793 309 833 295 q 686 330 753 323 q 522 336 620 336 q 365 333 425 336 q 272 317 304 330 q 228 281 239 305 q 217 217 217 258 q 229 151 217 176 q 277 111 241 125 q 383 92 314 97 q 566 87 452 87 m 412 977 q 469 966 443 977 q 524 944 495 956 q 589 922 553 932 q 673 911 624 911 q 727 920 697 911 q 784 948 758 928 q 828 1002 810 968 q 846 1085 846 1035 l 716 1085 q 713 1052 716 1065 q 705 1032 711 1039 q 692 1022 700 1025 q 673 1020 684 1020 q 616 1030 642 1020 q 561 1053 590 1040 q 496 1076 532 1065 q 412 1086 461 1086 q 358 1078 388 1086 q 301 1050 328 1070 q 257 997 275 1031 q 239 911 239 963 l 369 911 q 372 945 369 932 q 380 965 374 958 q 393 974 385 972 q 412 977 401 977 z "},"ä":{"ha":1085,"x_min":87,"x_max":998,"o":"m 868 107 q 838 66 866 99 q 783 23 817 42 q 693 -6 749 5 q 544 -16 636 -16 q 334 -4 421 -16 q 193 35 248 9 q 112 102 138 61 q 87 199 87 142 q 101 299 87 258 q 141 368 115 340 q 206 411 168 395 q 293 435 244 427 q 399 445 341 443 q 522 447 456 447 q 677 439 614 447 q 779 419 739 431 q 839 394 819 408 q 868 369 859 380 q 862 498 868 445 q 841 588 855 552 q 803 645 826 624 q 746 677 780 667 q 668 691 713 688 q 566 694 623 694 q 417 690 476 694 q 323 673 358 686 q 275 637 289 660 q 260 578 260 614 l 130 578 q 152 682 130 640 q 225 752 174 725 q 360 791 277 779 q 566 803 444 803 q 768 783 685 803 q 902 714 850 764 q 976 581 953 665 q 998 369 998 497 l 998 0 l 868 0 l 868 107 m 566 87 q 710 95 652 87 q 803 119 768 103 q 853 160 838 136 q 868 217 868 184 q 851 272 868 250 q 793 309 833 295 q 686 330 753 323 q 522 336 620 336 q 365 333 425 336 q 272 317 304 330 q 228 281 239 305 q 217 217 217 258 q 229 151 217 176 q 277 111 241 125 q 383 92 314 97 q 566 87 452 87 m 347 1042 l 217 1042 l 217 911 l 347 911 l 347 1042 m 868 1042 l 738 1042 l 738 911 l 868 911 l 868 1042 z "},"å":{"ha":1085,"x_min":87,"x_max":998,"o":"m 868 107 q 838 66 866 99 q 783 23 817 42 q 693 -6 749 5 q 544 -16 636 -16 q 334 -4 421 -16 q 193 35 248 9 q 112 102 138 61 q 87 199 87 142 q 101 299 87 258 q 141 368 115 340 q 206 411 168 395 q 293 435 244 427 q 399 445 341 443 q 522 447 456 447 q 677 439 614 447 q 779 419 739 431 q 839 394 819 408 q 868 369 859 380 q 862 498 868 445 q 841 588 855 552 q 803 645 826 624 q 746 677 780 667 q 668 691 713 688 q 566 694 623 694 q 417 690 476 694 q 323 673 358 686 q 275 637 289 660 q 260 578 260 614 l 130 578 q 152 682 130 640 q 225 752 174 725 q 360 791 277 779 q 566 803 444 803 q 768 783 685 803 q 902 714 850 764 q 976 581 953 665 q 998 369 998 497 l 998 0 l 868 0 l 868 107 m 566 87 q 710 95 652 87 q 803 119 768 103 q 853 160 838 136 q 868 217 868 184 q 851 272 868 250 q 793 309 833 295 q 686 330 753 323 q 522 336 620 336 q 365 333 425 336 q 272 317 304 330 q 228 281 239 305 q 217 217 217 258 q 229 151 217 176 q 277 111 241 125 q 383 92 314 97 q 566 87 452 87 m 543 1302 q 432 1283 477 1302 q 358 1234 387 1265 q 317 1165 330 1204 q 304 1085 304 1126 q 317 1005 304 1044 q 358 936 330 966 q 432 887 387 905 q 543 868 477 868 q 653 887 608 868 q 727 936 699 905 q 768 1005 755 966 q 781 1085 781 1044 q 768 1165 781 1126 q 727 1234 755 1204 q 653 1283 699 1265 q 543 1302 608 1302 m 543 955 q 476 966 502 955 q 437 996 451 977 q 417 1037 422 1014 q 412 1085 412 1061 q 417 1133 412 1109 q 437 1175 422 1156 q 476 1204 451 1193 q 543 1215 502 1215 q 609 1204 583 1215 q 648 1175 634 1193 q 668 1133 663 1156 q 673 1085 673 1109 q 668 1037 673 1061 q 648 996 663 1014 q 609 966 634 977 q 543 955 583 955 z "},"æ":{"ha":1866,"x_min":87,"x_max":1780,"o":"m 1345 -22 q 1204 -16 1267 -22 q 1090 5 1141 -9 q 1002 42 1040 19 q 937 98 964 64 q 888 53 918 73 q 836 25 866 39 q 763 0 805 11 q 667 -18 722 -11 q 544 -24 613 -24 q 334 -12 421 -24 q 193 29 248 1 q 112 98 138 56 q 87 199 87 140 q 101 299 87 258 q 141 368 115 340 q 206 411 168 395 q 293 435 244 427 q 399 445 341 443 q 522 447 456 447 q 624 444 578 447 q 704 435 669 440 q 765 422 739 429 q 809 408 791 415 q 868 369 852 390 q 862 480 868 434 q 841 558 855 526 q 803 608 826 589 q 746 636 780 626 q 668 648 713 646 q 566 651 623 651 q 417 646 476 651 q 323 627 358 641 q 275 587 289 612 q 260 521 260 562 l 130 521 q 152 631 130 586 q 225 705 174 677 q 360 747 277 734 q 566 760 444 760 q 694 754 637 760 q 797 732 751 749 q 877 686 842 716 q 937 608 911 656 q 998 686 960 656 q 1086 732 1035 716 q 1203 754 1138 749 q 1345 760 1267 760 q 1507 747 1438 760 q 1623 711 1575 734 q 1702 655 1672 688 q 1749 581 1732 622 q 1773 492 1767 541 q 1780 391 1780 444 l 1769 347 l 998 347 l 998 330 q 1018 198 1000 246 q 1078 125 1037 149 q 1184 94 1119 100 q 1345 87 1250 87 q 1494 92 1435 87 q 1587 111 1552 97 q 1635 151 1622 125 q 1649 217 1649 176 l 1780 217 q 1757 106 1780 152 q 1685 33 1735 61 q 1551 -9 1634 4 q 1345 -22 1468 -22 m 566 87 q 710 95 652 87 q 803 119 768 103 q 853 160 838 136 q 868 217 868 184 q 851 272 868 250 q 793 309 833 295 q 686 330 753 323 q 522 336 620 336 q 365 333 425 336 q 272 317 304 330 q 228 281 239 305 q 217 217 217 258 q 229 151 217 176 q 277 111 241 125 q 383 92 314 97 q 566 87 452 87 m 1345 651 q 1181 645 1248 651 q 1074 616 1115 638 q 1016 550 1034 593 q 998 434 998 507 l 1649 434 q 1632 541 1649 499 q 1579 608 1615 583 q 1485 642 1542 632 q 1345 651 1427 651 z "},"ç":{"ha":1086,"x_min":87,"x_max":999,"o":"m 477 -369 q 573 -363 526 -369 q 656 -339 620 -357 q 715 -287 693 -321 q 738 -195 738 -252 q 723 -142 738 -163 q 684 -109 708 -121 q 628 -92 659 -96 q 564 -87 597 -87 l 564 -22 l 565 -22 q 779 -5 695 -22 q 912 46 863 12 q 980 134 961 81 q 999 260 999 187 l 869 260 q 867 210 869 233 q 858 167 866 186 q 831 133 849 148 q 779 108 812 118 q 693 92 745 98 q 565 87 641 87 q 419 93 478 87 q 321 112 359 98 q 261 146 282 125 q 231 199 240 168 q 219 273 221 231 q 218 369 218 315 q 219 465 218 423 q 231 538 221 507 q 261 591 240 570 q 321 626 282 613 q 419 645 359 640 q 565 651 478 651 q 693 646 641 651 q 779 630 745 640 q 831 605 812 620 q 858 571 849 590 q 867 528 866 551 q 869 477 869 505 l 999 477 q 980 604 999 551 q 912 692 961 657 q 779 743 863 726 q 565 760 695 760 q 394 752 467 760 q 268 726 321 744 q 179 678 214 708 q 124 605 144 648 q 95 503 103 562 q 87 369 87 445 q 95 235 87 293 q 124 133 103 176 q 179 60 144 90 q 268 12 214 30 q 394 -14 321 -6 q 477 -20 432 -18 l 477 -152 q 553 -156 526 -152 q 591 -165 579 -159 q 606 -179 604 -172 q 608 -195 608 -187 q 600 -233 608 -220 q 575 -252 591 -246 q 534 -259 559 -258 q 477 -260 510 -260 l 477 -369 z "},"è":{"ha":1085,"x_min":87,"x_max":998,"o":"m 564 -15 q 343 3 434 -15 q 195 65 252 21 q 113 183 138 109 q 87 369 87 257 q 113 581 87 497 q 195 714 138 665 q 343 783 252 764 q 564 803 434 803 q 725 789 657 803 q 842 750 793 776 q 921 688 890 724 q 968 611 951 651 q 992 516 985 570 q 998 401 998 462 l 987 358 l 217 358 q 235 211 217 269 q 293 127 252 154 q 400 94 334 101 q 564 87 467 87 q 712 92 654 87 q 806 111 771 97 q 854 151 840 125 q 868 217 868 176 l 998 217 q 976 110 998 154 q 903 38 954 65 q 769 -2 852 10 q 564 -15 686 -15 m 564 694 q 448 692 499 694 q 358 680 397 689 q 293 653 320 671 q 249 613 266 636 q 225 547 233 589 q 217 445 217 505 l 868 445 q 851 569 868 524 q 798 644 834 614 q 703 684 761 673 q 564 694 646 694 m 304 1128 l 391 1259 l 781 933 l 738 868 l 304 1128 z "},"é":{"ha":1085,"x_min":87,"x_max":998,"o":"m 564 -15 q 343 3 434 -15 q 195 65 252 21 q 113 183 138 109 q 87 369 87 257 q 113 581 87 497 q 195 714 138 665 q 343 783 252 764 q 564 803 434 803 q 725 789 657 803 q 842 750 793 776 q 921 688 890 724 q 968 611 951 651 q 992 516 985 570 q 998 401 998 462 l 987 358 l 217 358 q 235 211 217 269 q 293 127 252 154 q 400 94 334 101 q 564 87 467 87 q 712 92 654 87 q 806 111 771 97 q 854 151 840 125 q 868 217 868 176 l 998 217 q 976 110 998 154 q 903 38 954 65 q 769 -2 852 10 q 564 -15 686 -15 m 564 694 q 448 692 499 694 q 358 680 397 689 q 293 653 320 671 q 249 613 266 636 q 225 547 233 589 q 217 445 217 505 l 868 445 q 851 569 868 524 q 798 644 834 614 q 703 684 761 673 q 564 694 646 694 m 781 1128 l 694 1259 l 304 933 l 347 868 l 781 1128 z "},"ê":{"ha":1085,"x_min":87,"x_max":998,"o":"m 564 -15 q 343 3 434 -15 q 195 65 252 21 q 113 183 138 109 q 87 369 87 257 q 113 581 87 497 q 195 714 138 665 q 343 783 252 764 q 564 803 434 803 q 725 789 657 803 q 842 750 793 776 q 921 688 890 724 q 968 611 951 651 q 992 516 985 570 q 998 401 998 462 l 987 358 l 217 358 q 235 211 217 269 q 293 127 252 154 q 400 94 334 101 q 564 87 467 87 q 712 92 654 87 q 806 111 771 97 q 854 151 840 125 q 868 217 868 176 l 998 217 q 976 110 998 154 q 903 38 954 65 q 769 -2 852 10 q 564 -15 686 -15 m 564 694 q 448 692 499 694 q 358 680 397 689 q 293 653 320 671 q 249 613 266 636 q 225 547 233 589 q 217 445 217 505 l 868 445 q 851 569 868 524 q 798 644 834 614 q 703 684 761 673 q 564 694 646 694 m 738 868 l 825 933 l 608 1259 l 477 1259 l 260 933 l 347 868 l 543 1172 l 738 868 z "},"ë":{"ha":1085,"x_min":87,"x_max":998,"o":"m 564 -15 q 343 3 434 -15 q 195 65 252 21 q 113 183 138 109 q 87 369 87 257 q 113 581 87 497 q 195 714 138 665 q 343 783 252 764 q 564 803 434 803 q 725 789 657 803 q 842 750 793 776 q 921 688 890 724 q 968 611 951 651 q 992 516 985 570 q 998 401 998 462 l 987 358 l 217 358 q 235 211 217 269 q 293 127 252 154 q 400 94 334 101 q 564 87 467 87 q 712 92 654 87 q 806 111 771 97 q 854 151 840 125 q 868 217 868 176 l 998 217 q 976 110 998 154 q 903 38 954 65 q 769 -2 852 10 q 564 -15 686 -15 m 564 694 q 448 692 499 694 q 358 680 397 689 q 293 653 320 671 q 249 613 266 636 q 225 547 233 589 q 217 445 217 505 l 868 445 q 851 569 868 524 q 798 644 834 614 q 703 684 761 673 q 564 694 646 694 m 347 1042 l 217 1042 l 217 911 l 347 911 l 347 1042 m 868 1042 l 738 1042 l 738 911 l 868 911 l 868 1042 z "},"ì":{"ha":304,"x_min":-85,"x_max":393,"o":"m 87 0 l 217 0 l 217 738 l 87 738 l 87 0 m -85 1128 l 2 1259 l 393 933 l 349 868 l -85 1128 z "},"í":{"ha":304,"x_min":-85,"x_max":393,"o":"m 87 0 l 217 0 l 217 738 l 87 738 l 87 0 m 393 1128 l 306 1259 l -85 933 l -41 868 l 393 1128 z "},"î":{"ha":304,"x_min":-128,"x_max":436,"o":"m 87 0 l 217 0 l 217 738 l 87 738 l 87 0 m 349 868 l 436 933 l 219 1259 l 89 1259 l -128 933 l -41 868 l 154 1172 l 349 868 z "},"ï":{"ha":304,"x_min":-172,"x_max":479,"o":"m 87 0 l 217 0 l 217 738 l 87 738 l 87 0 m -41 1042 l -172 1042 l -172 911 l -41 911 l -41 1042 m 479 1042 l 349 1042 l 349 911 l 479 911 l 479 1042 z "},"ð":{"ha":1345,"x_min":87,"x_max":1388,"o":"m 898 696 l 1106 770 q 1128 564 1128 692 q 1089 584 1111 575 q 1036 600 1067 593 q 964 613 1006 608 q 866 622 923 618 q 734 628 809 626 q 564 629 660 629 q 324 609 417 629 q 179 548 231 589 q 106 446 126 507 q 87 304 87 385 q 106 161 87 222 q 179 60 126 100 q 324 -1 231 19 q 564 -22 417 -22 l 781 -22 q 982 -7 901 -22 q 1117 37 1064 7 q 1199 111 1171 66 q 1241 216 1227 156 q 1256 353 1254 277 q 1259 521 1259 429 q 1249 682 1259 610 q 1218 811 1240 753 l 1388 872 l 1359 954 l 1179 889 q 1105 968 1149 935 q 1002 1022 1061 1001 q 866 1053 943 1043 q 694 1063 790 1063 q 487 1055 575 1063 q 336 1028 399 1046 q 233 985 273 1010 q 171 925 193 959 q 139 850 148 891 q 131 760 131 808 l 239 760 q 242 812 239 787 q 260 859 246 837 q 304 898 275 880 q 384 928 333 916 q 510 948 434 941 q 694 955 586 955 q 824 952 766 955 q 930 938 883 949 q 1011 907 977 928 q 1071 850 1046 886 l 869 777 l 898 696 m 564 521 q 780 519 689 521 q 933 511 871 517 q 1035 494 996 505 q 1094 463 1073 482 q 1122 415 1115 444 q 1128 347 1128 387 q 1114 215 1128 266 q 1062 136 1100 164 q 956 97 1023 107 q 781 87 888 87 l 564 87 q 432 91 488 87 q 339 104 377 95 q 276 130 300 114 q 239 171 252 146 q 221 228 226 195 q 217 304 217 260 q 222 380 217 347 q 240 437 227 413 q 277 477 253 461 q 339 503 300 494 q 433 517 378 513 q 564 521 488 521 z "},"ñ":{"ha":1086,"x_min":87,"x_max":999,"o":"m 868 0 l 868 434 q 857 556 868 507 q 814 637 846 606 q 722 681 781 667 q 564 694 662 694 q 391 679 458 694 q 285 635 323 663 q 232 566 246 606 q 217 477 217 526 l 217 0 l 87 0 l 87 781 l 217 781 l 217 651 q 258 708 231 684 q 317 749 284 732 q 389 777 351 766 q 467 793 428 787 q 542 801 505 799 q 608 803 578 803 q 757 792 694 803 q 864 760 820 781 q 934 708 907 739 q 975 636 960 677 q 994 544 989 595 q 999 434 999 494 l 998 0 l 868 0 m 413 977 q 470 966 444 977 q 525 944 496 956 q 589 922 554 932 q 673 911 625 911 q 728 920 698 911 q 785 948 758 928 q 829 1002 811 968 q 847 1085 847 1035 l 717 1085 q 714 1052 717 1065 q 706 1032 711 1039 q 692 1022 701 1025 q 673 1020 684 1020 q 617 1030 643 1020 q 562 1053 591 1040 q 497 1076 532 1065 q 413 1086 462 1086 q 358 1078 389 1086 q 302 1050 328 1070 q 257 997 275 1031 q 239 911 239 963 l 370 911 q 372 945 370 932 q 380 965 375 958 q 394 974 386 972 q 413 977 402 977 z "},"ò":{"ha":1128,"x_min":87,"x_max":1042,"o":"m 87 396 q 113 595 87 516 q 195 720 138 673 q 343 784 252 766 q 564 803 434 803 q 785 784 694 803 q 933 720 876 766 q 1016 595 990 673 q 1042 396 1042 516 q 1016 197 1042 276 q 933 71 990 117 q 785 4 876 24 q 564 -15 694 -15 q 343 4 434 -15 q 195 71 252 24 q 113 197 138 117 q 87 396 87 276 m 217 396 q 222 283 217 331 q 240 200 227 235 q 277 144 253 165 q 339 109 300 122 q 433 92 378 96 q 564 87 488 87 q 681 90 629 87 q 770 104 732 93 q 836 135 808 115 q 879 189 863 155 q 904 274 896 224 q 911 396 911 325 q 904 515 911 466 q 879 597 896 564 q 836 650 863 631 q 770 679 808 669 q 681 692 732 689 q 564 694 629 694 q 448 692 499 694 q 358 679 397 689 q 293 650 320 669 q 249 597 266 631 q 225 515 233 564 q 217 396 217 466 m 326 1128 l 412 1259 l 803 933 l 760 868 l 326 1128 z "},"ó":{"ha":1128,"x_min":87,"x_max":1042,"o":"m 87 396 q 113 595 87 516 q 195 720 138 673 q 343 784 252 766 q 564 803 434 803 q 785 784 694 803 q 933 720 876 766 q 1016 595 990 673 q 1042 396 1042 516 q 1016 197 1042 276 q 933 71 990 117 q 785 4 876 24 q 564 -15 694 -15 q 343 4 434 -15 q 195 71 252 24 q 113 197 138 117 q 87 396 87 276 m 217 396 q 222 283 217 331 q 240 200 227 235 q 277 144 253 165 q 339 109 300 122 q 433 92 378 96 q 564 87 488 87 q 681 90 629 87 q 770 104 732 93 q 836 135 808 115 q 879 189 863 155 q 904 274 896 224 q 911 396 911 325 q 904 515 911 466 q 879 597 896 564 q 836 650 863 631 q 770 679 808 669 q 681 692 732 689 q 564 694 629 694 q 448 692 499 694 q 358 679 397 689 q 293 650 320 669 q 249 597 266 631 q 225 515 233 564 q 217 396 217 466 m 803 1128 l 716 1259 l 326 933 l 369 868 l 803 1128 z "},"ô":{"ha":1128,"x_min":87,"x_max":1042,"o":"m 87 396 q 113 595 87 516 q 195 720 138 673 q 343 784 252 766 q 564 803 434 803 q 785 784 694 803 q 933 720 876 766 q 1016 595 990 673 q 1042 396 1042 516 q 1016 197 1042 276 q 933 71 990 117 q 785 4 876 24 q 564 -15 694 -15 q 343 4 434 -15 q 195 71 252 24 q 113 197 138 117 q 87 396 87 276 m 217 396 q 222 283 217 331 q 240 200 227 235 q 277 144 253 165 q 339 109 300 122 q 433 92 378 96 q 564 87 488 87 q 681 90 629 87 q 770 104 732 93 q 836 135 808 115 q 879 189 863 155 q 904 274 896 224 q 911 396 911 325 q 904 515 911 466 q 879 597 896 564 q 836 650 863 631 q 770 679 808 669 q 681 692 732 689 q 564 694 629 694 q 448 692 499 694 q 358 679 397 689 q 293 650 320 669 q 249 597 266 631 q 225 515 233 564 q 217 396 217 466 m 760 868 l 846 933 l 629 1259 l 499 1259 l 282 933 l 369 868 l 564 1172 l 760 868 z "},"õ":{"ha":1128,"x_min":87,"x_max":1042,"o":"m 87 396 q 113 595 87 516 q 195 720 138 673 q 343 784 252 766 q 564 803 434 803 q 785 784 694 803 q 933 720 876 766 q 1016 595 990 673 q 1042 396 1042 516 q 1016 197 1042 276 q 933 71 990 117 q 785 4 876 24 q 564 -15 694 -15 q 343 4 434 -15 q 195 71 252 24 q 113 197 138 117 q 87 396 87 276 m 217 396 q 222 283 217 331 q 240 200 227 235 q 277 144 253 165 q 339 109 300 122 q 433 92 378 96 q 564 87 488 87 q 681 90 629 87 q 770 104 732 93 q 836 135 808 115 q 879 189 863 155 q 904 274 896 224 q 911 396 911 325 q 904 515 911 466 q 879 597 896 564 q 836 650 863 631 q 770 679 808 669 q 681 692 732 689 q 564 694 629 694 q 448 692 499 694 q 358 679 397 689 q 293 650 320 669 q 249 597 266 631 q 225 515 233 564 q 217 396 217 466 m 434 977 q 491 966 465 977 q 546 944 517 956 q 610 922 575 932 q 694 911 646 911 q 749 920 719 911 q 806 948 779 928 q 850 1002 832 968 q 868 1085 868 1035 l 738 1085 q 735 1052 738 1065 q 727 1032 732 1039 q 713 1022 722 1025 q 694 1020 705 1020 q 638 1030 664 1020 q 583 1053 612 1040 q 518 1076 553 1065 q 434 1086 483 1086 q 379 1078 410 1086 q 323 1050 349 1070 q 278 997 296 1031 q 260 911 260 963 l 391 911 q 393 945 391 932 q 401 965 396 958 q 415 974 407 972 q 434 977 423 977 z "},"ö":{"ha":1128,"x_min":87,"x_max":1042,"o":"m 87 396 q 113 595 87 516 q 195 720 138 673 q 343 784 252 766 q 564 803 434 803 q 785 784 694 803 q 933 720 876 766 q 1016 595 990 673 q 1042 396 1042 516 q 1016 197 1042 276 q 933 71 990 117 q 785 4 876 24 q 564 -15 694 -15 q 343 4 434 -15 q 195 71 252 24 q 113 197 138 117 q 87 396 87 276 m 217 396 q 222 283 217 331 q 240 200 227 235 q 277 144 253 165 q 339 109 300 122 q 433 92 378 96 q 564 87 488 87 q 681 90 629 87 q 770 104 732 93 q 836 135 808 115 q 879 189 863 155 q 904 274 896 224 q 911 396 911 325 q 904 515 911 466 q 879 597 896 564 q 836 650 863 631 q 770 679 808 669 q 681 692 732 689 q 564 694 629 694 q 448 692 499 694 q 358 679 397 689 q 293 650 320 669 q 249 597 266 631 q 225 515 233 564 q 217 396 217 466 m 369 1042 l 239 1042 l 239 911 l 369 911 l 369 1042 m 890 1042 l 760 1042 l 760 911 l 890 911 l 890 1042 z "},"÷":{"ha":868,"x_min":87,"x_max":781,"o":"m 87 347 l 781 347 l 781 456 l 87 456 l 87 347 m 521 651 l 391 651 l 391 521 l 521 521 l 521 651 m 521 260 l 391 260 l 391 130 l 521 130 l 521 260 z "},"ø":{"ha":1128,"x_min":87,"x_max":1042,"o":"m 87 369 q 113 558 87 483 q 195 678 138 633 q 343 741 252 723 q 564 760 434 760 q 661 756 616 760 l 716 890 l 825 846 l 781 742 q 785 741 783 741 q 933 678 876 723 q 1016 558 990 633 q 1042 369 1042 483 q 1016 180 1042 255 q 933 60 990 104 q 785 -3 876 15 q 564 -22 694 -22 q 467 -18 513 -22 l 412 -152 l 304 -109 l 347 -4 q 343 -3 345 -3 q 195 60 252 15 q 113 180 138 104 q 87 369 87 255 m 217 369 q 222 265 217 309 q 240 190 227 221 q 277 138 253 158 q 339 107 300 119 q 388 96 361 100 l 617 650 q 564 651 592 651 q 400 644 467 651 q 293 608 334 636 q 235 523 252 579 q 217 369 217 467 m 564 87 q 728 94 662 87 q 836 130 795 102 q 894 215 876 159 q 911 369 911 271 q 894 523 911 467 q 836 608 876 579 q 740 642 798 633 l 511 87 q 564 87 536 87 z "},"ù":{"ha":1086,"x_min":87,"x_max":999,"o":"m 218 781 l 218 347 q 229 225 218 275 q 272 144 239 175 q 364 100 304 114 q 522 87 424 87 q 695 102 627 87 q 801 146 762 118 q 854 215 840 175 q 869 304 869 255 l 869 781 l 999 781 l 999 0 l 869 0 l 869 130 q 837 84 859 109 q 770 37 814 58 q 654 0 725 15 q 478 -15 583 -15 q 328 -4 391 -15 q 221 27 265 6 q 151 78 178 47 q 111 149 125 109 q 92 239 96 189 q 87 347 87 288 l 87 781 l 218 781 m 304 1128 l 391 1259 l 782 933 l 739 868 l 304 1128 z "},"ú":{"ha":1086,"x_min":87,"x_max":999,"o":"m 218 781 l 218 347 q 229 225 218 275 q 272 144 239 175 q 364 100 304 114 q 522 87 424 87 q 695 102 627 87 q 801 146 762 118 q 854 215 840 175 q 869 304 869 255 l 869 781 l 999 781 l 999 0 l 869 0 l 869 130 q 837 84 859 109 q 770 37 814 58 q 654 0 725 15 q 478 -15 583 -15 q 328 -4 391 -15 q 221 27 265 6 q 151 78 178 47 q 111 149 125 109 q 92 239 96 189 q 87 347 87 288 l 87 781 l 218 781 m 782 1128 l 695 1259 l 304 933 l 348 868 l 782 1128 z "},"û":{"ha":1086,"x_min":87,"x_max":999,"o":"m 218 781 l 218 347 q 229 225 218 275 q 272 144 239 175 q 364 100 304 114 q 522 87 424 87 q 695 102 627 87 q 801 146 762 118 q 854 215 840 175 q 869 304 869 255 l 869 781 l 999 781 l 999 0 l 869 0 l 869 130 q 837 84 859 109 q 770 37 814 58 q 654 0 725 15 q 478 -15 583 -15 q 328 -4 391 -15 q 221 27 265 6 q 151 78 178 47 q 111 149 125 109 q 92 239 96 189 q 87 347 87 288 l 87 781 l 218 781 m 739 868 l 825 933 l 608 1259 l 478 1259 l 261 933 l 348 868 l 543 1172 l 739 868 z "},"ü":{"ha":1086,"x_min":87,"x_max":999,"o":"m 218 781 l 218 347 q 229 225 218 275 q 272 144 239 175 q 364 100 304 114 q 522 87 424 87 q 695 102 627 87 q 801 146 762 118 q 854 215 840 175 q 869 304 869 255 l 869 781 l 999 781 l 999 0 l 869 0 l 869 130 q 837 84 859 109 q 770 37 814 58 q 654 0 725 15 q 478 -15 583 -15 q 328 -4 391 -15 q 221 27 265 6 q 151 78 178 47 q 111 149 125 109 q 92 239 96 189 q 87 347 87 288 l 87 781 l 218 781 m 348 1042 l 218 1042 l 218 911 l 348 911 l 348 1042 m 869 1042 l 739 1042 l 739 911 l 869 911 l 869 1042 z "},"ý":{"ha":1063,"x_min":43,"x_max":1020,"o":"m 456 0 l 499 0 q 480 -41 488 -22 q 459 -78 471 -61 q 429 -109 447 -95 q 380 -132 410 -122 q 305 -147 350 -142 q 195 -152 260 -152 l 195 -260 q 327 -253 271 -260 q 423 -233 382 -246 q 491 -201 463 -220 q 539 -158 519 -182 q 575 -105 559 -134 q 608 -43 591 -76 l 629 0 l 1020 781 l 868 781 l 543 87 l 195 781 l 43 781 l 456 0 m 770 1128 l 684 1259 l 293 933 l 336 868 l 770 1128 z "},"þ":{"ha":1085,"x_min":87,"x_max":1042,"o":"m 564 760 q 462 755 507 760 q 382 743 417 750 q 321 725 347 735 q 277 705 295 715 q 217 652 234 682 l 217 1042 l 87 1042 l 87 -260 l 217 -260 l 217 87 q 277 33 234 56 q 321 13 295 22 q 382 -5 347 3 q 462 -17 417 -12 q 564 -22 507 -22 q 785 -3 694 -22 q 933 60 876 15 q 1016 180 990 104 q 1042 369 1042 255 q 1016 558 1042 483 q 933 678 990 633 q 785 741 876 723 q 564 760 694 760 m 564 651 q 695 647 640 651 q 789 631 751 642 q 852 600 828 619 q 889 548 876 580 q 907 473 903 517 q 911 369 911 429 q 907 265 911 309 q 889 190 903 221 q 852 138 876 158 q 789 107 828 119 q 695 91 751 96 q 564 87 640 87 q 448 90 499 87 q 359 102 397 92 q 293 131 320 112 q 250 181 267 149 q 225 259 233 212 q 217 371 217 305 q 225 481 217 435 q 250 558 233 528 q 293 608 267 589 q 359 636 320 626 q 448 648 397 646 q 564 651 499 651 z "},"ÿ":{"ha":1063,"x_min":43,"x_max":1020,"o":"m 456 0 l 499 0 q 480 -41 488 -22 q 459 -78 471 -61 q 429 -109 447 -95 q 380 -132 410 -122 q 305 -147 350 -142 q 195 -152 260 -152 l 195 -260 q 327 -253 271 -260 q 423 -233 382 -246 q 491 -201 463 -220 q 539 -158 519 -182 q 575 -105 559 -134 q 608 -43 591 -76 l 629 0 l 1020 781 l 868 781 l 543 87 l 195 781 l 43 781 l 456 0 m 336 1042 l 206 1042 l 206 911 l 336 911 l 336 1042 m 857 1042 l 727 1042 l 727 911 l 857 911 l 857 1042 z "},"Ā":{"ha":1563,"x_min":87,"x_max":1476,"o":"m 521 1146 l 1042 1146 l 1042 1255 l 521 1255 l 521 1146 m 1194 239 l 369 239 l 239 0 l 87 0 l 694 1042 l 868 1042 l 1476 0 l 1324 0 l 1194 239 m 1128 347 l 781 955 l 434 347 l 1128 347 z "},"ā":{"ha":1085,"x_min":87,"x_max":998,"o":"m 305 844 l 826 844 l 826 952 l 305 952 l 305 844 m 868 107 q 838 66 866 99 q 783 23 817 42 q 693 -6 749 5 q 544 -16 636 -16 q 334 -4 421 -16 q 193 35 248 9 q 112 102 138 61 q 87 199 87 142 q 101 299 87 258 q 141 368 115 340 q 206 411 168 395 q 293 435 244 427 q 399 445 341 443 q 522 447 456 447 q 677 439 614 447 q 779 419 739 431 q 839 394 819 408 q 868 369 859 380 q 862 498 868 445 q 841 588 855 552 q 803 645 826 624 q 746 677 780 667 q 668 691 713 688 q 566 694 623 694 q 417 690 476 694 q 323 673 358 686 q 275 637 289 660 q 260 578 260 614 l 130 578 q 152 682 130 640 q 225 752 174 725 q 360 791 277 779 q 566 803 444 803 q 768 783 685 803 q 902 714 850 764 q 976 581 953 665 q 998 369 998 497 l 998 0 l 868 0 l 868 107 m 566 87 q 710 95 652 87 q 803 119 768 103 q 853 160 838 136 q 868 217 868 184 q 851 272 868 250 q 793 309 833 295 q 686 330 753 323 q 522 336 620 336 q 365 333 425 336 q 272 317 304 330 q 228 281 239 305 q 217 217 217 258 q 229 151 217 176 q 277 111 241 125 q 383 92 314 97 q 566 87 452 87 z "},"Ą":{"ha":1563,"x_min":87,"x_max":1476,"o":"m 1412 -376 q 1316 -368 1363 -376 q 1233 -338 1270 -359 q 1174 -285 1196 -318 q 1152 -203 1152 -252 q 1159 -156 1152 -178 q 1179 -114 1166 -134 q 1206 -77 1191 -94 q 1238 -45 1222 -60 q 1325 14 1276 -12 l 1412 14 q 1337 -50 1363 -18 q 1298 -108 1310 -81 q 1284 -154 1286 -134 q 1282 -181 1282 -173 q 1314 -249 1282 -230 q 1412 -268 1346 -268 l 1412 -376 m 1194 239 l 369 239 l 239 0 l 87 0 l 694 1042 l 868 1042 l 1476 0 l 1324 0 l 1194 239 m 1128 347 l 781 955 l 434 347 l 1128 347 z "},"ą":{"ha":1085,"x_min":87,"x_max":998,"o":"m 958 -388 q 863 -379 909 -388 q 779 -350 816 -370 q 720 -296 743 -330 q 698 -214 698 -263 q 705 -168 698 -190 q 725 -125 713 -145 q 753 -89 737 -106 q 785 -57 768 -71 q 871 3 823 -24 l 958 3 q 883 -61 909 -30 q 844 -119 857 -93 q 830 -165 832 -146 q 828 -193 828 -184 q 860 -260 828 -241 q 958 -279 892 -279 l 958 -388 m 868 107 q 838 66 866 99 q 783 23 817 42 q 693 -6 749 5 q 544 -16 636 -16 q 334 -4 421 -16 q 193 35 248 9 q 112 102 138 61 q 87 199 87 142 q 101 299 87 258 q 141 368 115 340 q 206 411 168 395 q 293 435 244 427 q 399 445 341 443 q 522 447 456 447 q 677 439 614 447 q 779 419 739 431 q 839 394 819 408 q 868 369 859 380 q 862 498 868 445 q 841 588 855 552 q 803 645 826 624 q 746 677 780 667 q 668 691 713 688 q 566 694 623 694 q 417 690 476 694 q 323 673 358 686 q 275 637 289 660 q 260 578 260 614 l 130 578 q 152 682 130 640 q 225 752 174 725 q 360 791 277 779 q 566 803 444 803 q 768 783 685 803 q 902 714 850 764 q 976 581 953 665 q 998 369 998 497 l 998 0 l 868 0 l 868 107 m 566 87 q 710 95 652 87 q 803 119 768 103 q 853 160 838 136 q 868 217 868 184 q 851 272 868 250 q 793 309 833 295 q 686 330 753 323 q 522 336 620 336 q 365 333 425 336 q 272 317 304 330 q 228 281 239 305 q 217 217 217 258 q 229 151 217 176 q 277 111 241 125 q 383 92 314 97 q 566 87 452 87 z "},"Ĉ":{"ha":1432,"x_min":87,"x_max":1345,"o":"m 911 1146 l 998 1211 l 781 1537 l 650 1537 l 433 1211 l 520 1146 l 715 1450 l 911 1146 m 1215 716 q 1197 845 1215 798 q 1139 917 1179 892 q 1032 948 1098 941 q 868 955 966 955 l 564 955 q 417 950 477 955 q 319 929 358 945 q 260 884 281 913 q 229 807 239 855 q 218 689 220 759 q 217 521 217 618 q 219 353 217 423 q 230 235 220 283 q 260 157 239 186 q 319 113 281 128 q 417 92 358 97 q 564 87 477 87 l 868 87 q 999 91 944 87 q 1093 106 1054 95 q 1155 136 1131 117 q 1192 183 1179 155 q 1210 253 1205 212 q 1215 347 1215 293 l 1345 347 q 1337 230 1345 282 q 1308 136 1329 177 q 1253 65 1287 95 q 1165 16 1218 35 q 1039 -13 1112 -3 q 868 -22 966 -22 l 564 -22 q 362 -7 444 -22 q 228 37 281 7 q 146 111 175 66 q 104 216 117 156 q 89 353 91 277 q 87 521 87 429 q 89 689 87 613 q 104 825 91 765 q 146 930 117 886 q 228 1005 175 975 q 362 1049 281 1034 q 564 1063 444 1063 l 868 1063 q 1039 1054 966 1063 q 1165 1026 1112 1045 q 1253 979 1218 1008 q 1308 912 1287 951 q 1337 825 1329 873 q 1345 716 1345 776 l 1215 716 z "},"ĉ":{"ha":1086,"x_min":87,"x_max":999,"o":"m 760 844 l 847 909 l 630 1234 l 500 1234 l 283 909 l 370 844 l 565 1147 l 760 844 m 87 389 q 95 533 87 471 q 124 642 103 595 q 179 719 144 688 q 268 768 214 749 q 394 795 321 787 q 565 804 467 804 q 779 788 695 804 q 912 739 863 772 q 980 655 961 706 q 999 535 999 605 l 869 535 q 867 582 869 560 q 858 621 866 604 q 831 653 849 639 q 779 676 812 667 q 693 690 745 686 q 565 695 641 695 q 419 689 478 695 q 321 669 359 683 q 261 632 282 655 q 231 574 240 608 q 219 495 221 541 q 218 389 218 449 q 219 286 218 331 q 231 207 221 241 q 261 151 240 174 q 321 113 282 127 q 419 93 359 99 q 565 87 478 87 q 693 92 641 87 q 779 108 745 98 q 831 133 812 118 q 858 167 849 148 q 867 210 866 186 q 869 260 869 233 l 999 260 q 980 137 999 189 q 912 51 961 85 q 779 1 863 18 q 565 -15 695 -15 q 394 -7 467 -15 q 268 20 321 1 q 179 69 214 39 q 124 144 144 100 q 95 250 103 189 q 87 389 87 311 z "},"Ċ":{"ha":1432,"x_min":87,"x_max":1345,"o":"m 781 1276 l 650 1276 l 650 1146 l 781 1146 l 781 1276 m 1215 716 q 1197 845 1215 798 q 1139 917 1179 892 q 1032 948 1098 941 q 868 955 966 955 l 564 955 q 417 950 477 955 q 319 929 358 945 q 260 884 281 913 q 229 807 239 855 q 218 689 220 759 q 217 521 217 618 q 219 353 217 423 q 230 235 220 283 q 260 157 239 186 q 319 113 281 128 q 417 92 358 97 q 564 87 477 87 l 868 87 q 999 91 944 87 q 1093 106 1054 95 q 1155 136 1131 117 q 1192 183 1179 155 q 1210 253 1205 212 q 1215 347 1215 293 l 1345 347 q 1337 230 1345 282 q 1308 136 1329 177 q 1253 65 1287 95 q 1165 16 1218 35 q 1039 -13 1112 -3 q 868 -22 966 -22 l 564 -22 q 362 -7 444 -22 q 228 37 281 7 q 146 111 175 66 q 104 216 117 156 q 89 353 91 277 q 87 521 87 429 q 89 689 87 613 q 104 825 91 765 q 146 930 117 886 q 228 1005 175 975 q 362 1049 281 1034 q 564 1063 444 1063 l 868 1063 q 1039 1054 966 1063 q 1165 1026 1112 1045 q 1253 979 1218 1008 q 1308 912 1287 951 q 1337 825 1329 873 q 1345 716 1345 776 l 1215 716 z "},"ċ":{"ha":1086,"x_min":87,"x_max":999,"o":"m 630 974 l 500 974 l 500 844 l 630 844 l 630 974 m 87 389 q 95 533 87 471 q 124 642 103 595 q 179 719 144 688 q 268 768 214 749 q 394 795 321 787 q 565 804 467 804 q 779 788 695 804 q 912 739 863 772 q 980 655 961 706 q 999 535 999 605 l 869 535 q 867 582 869 560 q 858 621 866 604 q 831 653 849 639 q 779 676 812 667 q 693 690 745 686 q 565 695 641 695 q 419 689 478 695 q 321 669 359 683 q 261 632 282 655 q 231 574 240 608 q 219 495 221 541 q 218 389 218 449 q 219 286 218 331 q 231 207 221 241 q 261 151 240 174 q 321 113 282 127 q 419 93 359 99 q 565 87 478 87 q 693 92 641 87 q 779 108 745 98 q 831 133 812 118 q 858 167 849 148 q 867 210 866 186 q 869 260 869 233 l 999 260 q 980 137 999 189 q 912 51 961 85 q 779 1 863 18 q 565 -15 695 -15 q 394 -7 467 -15 q 268 20 321 1 q 179 69 214 39 q 124 144 144 100 q 95 250 103 189 q 87 389 87 311 z "},"Č":{"ha":1432,"x_min":87,"x_max":1345,"o":"m 716 1233 l 521 1537 l 434 1472 l 651 1146 l 781 1146 l 998 1472 l 911 1537 l 716 1233 m 1215 716 q 1198 845 1215 798 q 1139 917 1180 892 q 1033 948 1099 941 q 869 955 966 955 l 564 955 q 418 950 477 955 q 320 929 359 945 q 260 884 281 913 q 230 807 239 855 q 219 689 220 759 q 218 521 218 618 q 219 353 218 423 q 231 235 221 283 q 261 157 240 186 q 320 113 281 128 q 418 92 359 97 q 564 87 477 87 l 869 87 q 1000 91 945 87 q 1093 106 1055 95 q 1156 136 1132 117 q 1193 183 1179 155 q 1211 253 1206 212 q 1215 347 1215 293 l 1345 347 q 1337 230 1345 282 q 1309 136 1329 177 q 1253 65 1288 95 q 1166 16 1219 35 q 1040 -13 1113 -3 q 869 -22 966 -22 l 564 -22 q 363 -7 445 -22 q 229 37 281 7 q 147 111 176 66 q 105 216 118 156 q 90 353 92 277 q 87 521 87 429 q 90 689 87 613 q 105 825 92 765 q 147 930 118 886 q 229 1005 176 975 q 363 1049 281 1034 q 564 1063 445 1063 l 869 1063 q 1040 1054 966 1063 q 1166 1026 1113 1045 q 1253 979 1219 1008 q 1309 912 1288 951 q 1337 825 1329 873 q 1345 716 1345 776 l 1215 716 z "},"č":{"ha":1086,"x_min":87,"x_max":999,"o":"m 565 930 l 370 1234 l 283 1169 l 500 844 l 630 844 l 847 1169 l 760 1234 l 565 930 m 87 389 q 95 533 87 471 q 124 642 103 595 q 179 719 144 688 q 268 768 214 749 q 394 795 321 787 q 565 804 467 804 q 779 788 695 804 q 912 739 863 772 q 980 655 961 706 q 999 535 999 605 l 869 535 q 867 582 869 560 q 858 621 866 604 q 831 653 849 639 q 779 676 812 667 q 693 690 745 686 q 565 695 641 695 q 419 689 478 695 q 321 669 359 683 q 261 632 282 655 q 231 574 240 608 q 219 495 221 541 q 218 389 218 449 q 219 286 218 331 q 231 207 221 241 q 261 151 240 174 q 321 113 282 127 q 419 93 359 99 q 565 87 478 87 q 693 92 641 87 q 779 108 745 98 q 831 133 812 118 q 858 167 849 148 q 867 210 866 186 q 869 260 869 233 l 999 260 q 980 137 999 189 q 912 51 961 85 q 779 1 863 18 q 565 -15 695 -15 q 394 -7 467 -15 q 268 20 321 1 q 179 69 214 39 q 124 144 144 100 q 95 250 103 189 q 87 389 87 311 z "},"Đ":{"ha":1432,"x_min":0,"x_max":1345,"o":"m 0 477 l 87 477 l 87 0 l 867 0 q 1068 14 987 0 q 1203 56 1150 28 q 1285 127 1257 85 q 1328 228 1314 170 q 1343 359 1341 286 q 1345 521 1345 432 q 1343 683 1345 610 q 1328 813 1341 755 q 1285 914 1314 871 q 1203 985 1257 957 q 1068 1028 1150 1014 q 867 1042 987 1042 l 87 1042 l 87 586 l 0 586 l 0 477 m 217 109 l 217 477 l 521 477 l 521 586 l 217 586 l 217 933 l 867 933 q 1014 928 954 933 q 1112 909 1073 924 q 1171 867 1150 895 q 1202 793 1192 839 q 1214 681 1212 747 q 1215 521 1215 614 q 1214 361 1215 428 q 1202 249 1212 294 q 1171 175 1192 203 q 1112 133 1150 147 q 1013 113 1073 118 q 867 109 954 109 l 217 109 z "},"đ":{"ha":1128,"x_min":87,"x_max":1128,"o":"m 608 956 l 911 956 l 911 1042 l 1042 1042 l 1042 956 l 1128 956 l 1128 847 l 1042 847 l 1042 0 l 911 0 l 911 86 q 852 32 895 56 q 808 12 833 22 q 747 -5 782 3 q 666 -17 711 -13 q 564 -22 621 -22 q 343 -3 434 -22 q 195 60 252 15 q 113 180 138 104 q 87 369 87 255 q 113 558 87 483 q 195 678 138 633 q 343 741 252 723 q 564 760 434 760 q 666 755 621 760 q 747 743 711 750 q 808 725 782 735 q 852 705 833 715 q 911 651 895 682 l 911 847 l 608 847 l 608 956 m 564 87 q 680 90 629 87 q 770 102 731 92 q 835 130 808 112 q 879 179 862 149 q 904 256 896 210 q 911 367 911 302 q 904 479 911 433 q 879 557 896 526 q 835 607 862 589 q 770 636 808 626 q 680 648 731 646 q 564 651 629 651 q 433 647 488 651 q 339 631 378 642 q 276 600 300 619 q 239 548 252 580 q 221 473 226 517 q 217 369 217 429 q 221 265 217 309 q 239 190 226 221 q 276 138 252 158 q 339 107 300 119 q 433 91 378 96 q 564 87 488 87 z "},"Ē":{"ha":1215,"x_min":130,"x_max":1172,"o":"m 391 1146 l 911 1146 l 911 1255 l 391 1255 l 391 1146 m 130 0 l 130 1042 l 1172 1042 l 1172 933 l 260 933 l 260 586 l 1128 586 l 1128 477 l 260 477 l 260 109 l 1172 109 l 1172 0 l 130 0 z "},"ē":{"ha":1085,"x_min":87,"x_max":998,"o":"m 304 844 l 825 844 l 825 952 l 304 952 l 304 844 m 564 -15 q 343 3 434 -15 q 195 65 252 21 q 113 183 138 109 q 87 369 87 257 q 113 581 87 497 q 195 714 138 665 q 343 783 252 764 q 564 803 434 803 q 725 789 657 803 q 842 750 793 776 q 921 688 890 724 q 968 611 951 651 q 992 516 985 570 q 998 401 998 462 l 987 358 l 217 358 q 235 211 217 269 q 293 127 252 154 q 400 94 334 101 q 564 87 467 87 q 712 92 654 87 q 806 111 771 97 q 854 151 840 125 q 868 217 868 176 l 998 217 q 976 110 998 154 q 903 38 954 65 q 769 -2 852 10 q 564 -15 686 -15 m 564 694 q 448 692 499 694 q 358 680 397 689 q 293 653 320 671 q 249 613 266 636 q 225 547 233 589 q 217 445 217 505 l 868 445 q 851 569 868 524 q 798 644 834 614 q 703 684 761 673 q 564 694 646 694 z "},"Ė":{"ha":1215,"x_min":130,"x_max":1172,"o":"m 716 1276 l 586 1276 l 586 1146 l 716 1146 l 716 1276 m 130 0 l 130 1042 l 1172 1042 l 1172 933 l 260 933 l 260 586 l 1128 586 l 1128 477 l 260 477 l 260 109 l 1172 109 l 1172 0 l 130 0 z "},"ė":{"ha":1085,"x_min":87,"x_max":998,"o":"m 629 974 l 499 974 l 499 844 l 629 844 l 629 974 m 564 -15 q 343 3 434 -15 q 195 65 252 21 q 113 183 138 109 q 87 369 87 257 q 113 581 87 497 q 195 714 138 665 q 343 783 252 764 q 564 803 434 803 q 725 789 657 803 q 842 750 793 776 q 921 688 890 724 q 968 611 951 651 q 992 516 985 570 q 998 401 998 462 l 987 358 l 217 358 q 235 211 217 269 q 293 127 252 154 q 400 94 334 101 q 564 87 467 87 q 712 92 654 87 q 806 111 771 97 q 854 151 840 125 q 868 217 868 176 l 998 217 q 976 110 998 154 q 903 38 954 65 q 769 -2 852 10 q 564 -15 686 -15 m 564 694 q 448 692 499 694 q 358 680 397 689 q 293 653 320 671 q 249 613 266 636 q 225 547 233 589 q 217 445 217 505 l 868 445 q 851 569 868 524 q 798 644 834 614 q 703 684 761 673 q 564 694 646 694 z "},"Ę":{"ha":1215,"x_min":130,"x_max":1172,"o":"m 1162 -376 q 1067 -368 1114 -376 q 983 -338 1020 -359 q 924 -285 947 -318 q 902 -203 902 -252 q 909 -156 902 -178 q 929 -114 917 -134 q 957 -77 941 -94 q 989 -45 972 -60 q 1076 14 1027 -12 l 1162 14 q 1087 -50 1114 -18 q 1048 -108 1061 -81 q 1034 -154 1036 -134 q 1032 -181 1032 -173 q 1064 -249 1032 -230 q 1162 -268 1097 -268 l 1162 -376 m 130 0 l 130 1042 l 1172 1042 l 1172 933 l 260 933 l 260 586 l 1128 586 l 1128 477 l 260 477 l 260 109 l 1172 109 l 1172 0 l 130 0 z "},"ę":{"ha":1085,"x_min":87,"x_max":998,"o":"m 721 -398 q 625 -389 672 -398 q 542 -360 578 -380 q 483 -307 505 -340 q 460 -224 460 -273 q 468 -178 460 -200 q 488 -136 475 -155 q 515 -99 500 -116 q 547 -67 531 -81 q 634 -7 585 -34 l 721 -7 q 646 -72 672 -40 q 607 -130 619 -103 q 593 -175 595 -156 q 591 -203 591 -195 q 623 -271 591 -252 q 721 -290 655 -290 l 721 -398 m 564 -15 q 343 3 434 -15 q 195 65 252 21 q 113 183 138 109 q 87 369 87 257 q 113 581 87 497 q 195 714 138 665 q 343 783 252 764 q 564 803 434 803 q 725 789 657 803 q 842 750 793 776 q 921 688 890 724 q 968 611 951 651 q 992 516 985 570 q 998 401 998 462 l 987 358 l 217 358 q 235 211 217 269 q 293 127 252 154 q 400 94 334 101 q 564 87 467 87 q 712 92 654 87 q 806 111 771 97 q 854 151 840 125 q 868 217 868 176 l 998 217 q 976 110 998 154 q 903 38 954 65 q 769 -2 852 10 q 564 -15 686 -15 m 564 694 q 448 692 499 694 q 358 680 397 689 q 293 653 320 671 q 249 613 266 636 q 225 547 233 589 q 217 445 217 505 l 868 445 q 851 569 868 524 q 798 644 834 614 q 703 684 761 673 q 564 694 646 694 z "},"Ě":{"ha":1215,"x_min":130,"x_max":1172,"o":"m 651 1233 l 456 1537 l 369 1472 l 586 1146 l 716 1146 l 933 1472 l 846 1537 l 651 1233 m 130 0 l 130 1042 l 1172 1042 l 1172 933 l 260 933 l 260 586 l 1128 586 l 1128 477 l 260 477 l 260 109 l 1172 109 l 1172 0 l 130 0 z "},"ě":{"ha":1085,"x_min":87,"x_max":998,"o":"m 564 930 l 369 1234 l 282 1168 l 499 843 l 629 843 l 846 1168 l 760 1234 l 564 930 m 564 -15 q 343 3 434 -15 q 195 65 252 21 q 113 183 138 109 q 87 369 87 257 q 113 581 87 497 q 195 714 138 665 q 343 783 252 764 q 564 803 434 803 q 725 789 657 803 q 842 750 793 776 q 921 688 890 724 q 968 611 951 651 q 992 516 985 570 q 998 401 998 462 l 987 358 l 217 358 q 235 211 217 269 q 293 127 252 154 q 400 94 334 101 q 564 87 467 87 q 712 92 654 87 q 806 111 771 97 q 854 151 840 125 q 868 217 868 176 l 998 217 q 976 110 998 154 q 903 38 954 65 q 769 -2 852 10 q 564 -15 686 -15 m 564 694 q 448 692 499 694 q 358 680 397 689 q 293 653 320 671 q 249 613 266 636 q 225 547 233 589 q 217 445 217 505 l 868 445 q 851 569 868 524 q 798 644 834 614 q 703 684 761 673 q 564 694 646 694 z "},"Ĝ":{"ha":1476,"x_min":87,"x_max":1390,"o":"m 933 1146 l 1020 1211 l 803 1537 l 673 1537 l 456 1211 l 543 1146 l 738 1450 l 933 1146 m 1259 716 q 1242 845 1259 798 q 1183 917 1224 892 q 1076 948 1143 941 q 912 955 1010 955 l 564 955 q 417 950 477 955 q 319 929 358 945 q 260 884 281 913 q 229 807 239 855 q 218 689 220 759 q 217 521 217 618 q 219 353 217 423 q 230 235 220 283 q 260 157 239 186 q 319 113 281 128 q 417 92 358 97 q 564 87 477 87 l 913 87 q 1044 91 989 87 q 1137 106 1099 95 q 1200 136 1176 117 q 1237 183 1223 155 q 1255 253 1250 212 q 1259 347 1259 293 l 1259 412 l 737 412 l 737 521 l 1390 521 l 1390 347 q 1381 230 1390 282 q 1353 136 1373 177 q 1297 65 1332 95 q 1210 16 1263 35 q 1084 -13 1157 -3 q 913 -22 1010 -22 l 564 -22 q 362 -7 444 -22 q 228 37 281 7 q 146 111 175 66 q 104 216 117 156 q 89 353 91 277 q 87 521 87 429 q 89 689 87 613 q 104 825 91 765 q 146 930 117 886 q 228 1005 175 975 q 362 1049 281 1034 q 564 1063 444 1063 l 912 1063 q 1083 1054 1010 1063 q 1209 1026 1156 1045 q 1297 979 1262 1008 q 1353 912 1332 951 q 1381 825 1373 873 q 1390 716 1390 776 l 1259 716 z "},"ĝ":{"ha":1128,"x_min":87,"x_max":1042,"o":"m 760 844 l 846 909 l 629 1234 l 499 1234 l 282 909 l 369 844 l 564 1147 l 760 844 m 564 694 q 433 690 488 694 q 339 673 378 685 q 276 639 300 661 q 239 583 252 617 q 221 502 226 549 q 217 389 217 454 q 221 278 217 326 q 239 198 226 231 q 276 142 252 164 q 339 109 300 121 q 433 92 378 96 q 564 87 488 87 q 680 90 629 87 q 770 103 731 93 q 835 134 808 114 q 879 188 862 154 q 904 271 896 221 q 911 391 911 321 q 904 512 911 462 q 879 596 896 562 q 835 649 862 629 q 770 679 808 669 q 680 692 731 689 q 564 694 629 694 m 1042 109 q 1016 -81 1042 -5 q 933 -202 990 -156 q 785 -267 876 -249 q 564 -286 694 -286 q 359 -275 442 -286 q 225 -240 276 -264 q 152 -180 174 -217 q 130 -90 130 -143 l 260 -90 q 274 -134 260 -117 q 323 -160 288 -151 q 416 -173 357 -170 q 564 -177 475 -177 q 728 -170 662 -177 q 836 -136 795 -163 q 894 -56 876 -110 q 911 87 911 -3 q 881 52 902 71 q 821 16 861 33 q 719 -11 781 0 q 564 -22 656 -22 q 343 -2 434 -22 q 195 64 252 17 q 113 190 138 111 q 87 389 87 269 q 113 591 87 511 q 195 718 138 671 q 343 784 252 765 q 564 803 434 803 q 719 793 656 803 q 821 770 781 784 q 881 739 861 755 q 911 709 902 722 l 911 781 l 1042 781 l 1042 109 z "},"Ğ":{"ha":1476,"x_min":87,"x_max":1390,"o":"m 477 1363 q 543 1198 477 1249 q 738 1146 608 1146 q 933 1198 868 1146 q 998 1363 998 1249 l 890 1363 q 878 1288 890 1314 q 846 1249 867 1261 q 798 1235 826 1237 q 738 1233 770 1233 q 677 1235 705 1233 q 629 1249 650 1237 q 597 1288 609 1261 q 586 1363 586 1314 l 477 1363 m 1259 716 q 1242 845 1259 798 q 1183 917 1224 892 q 1076 948 1143 941 q 912 955 1010 955 l 564 955 q 417 950 477 955 q 319 929 358 945 q 260 884 281 913 q 229 807 239 855 q 218 689 220 759 q 217 521 217 618 q 219 353 217 423 q 230 235 220 283 q 260 157 239 186 q 319 113 281 128 q 417 92 358 97 q 564 87 477 87 l 913 87 q 1044 91 989 87 q 1137 106 1099 95 q 1200 136 1176 117 q 1237 183 1223 155 q 1255 253 1250 212 q 1259 347 1259 293 l 1259 412 l 737 412 l 737 521 l 1390 521 l 1390 347 q 1381 230 1390 282 q 1353 136 1373 177 q 1297 65 1332 95 q 1210 16 1263 35 q 1084 -13 1157 -3 q 913 -22 1010 -22 l 564 -22 q 362 -7 444 -22 q 228 37 281 7 q 146 111 175 66 q 104 216 117 156 q 89 353 91 277 q 87 521 87 429 q 89 689 87 613 q 104 825 91 765 q 146 930 117 886 q 228 1005 175 975 q 362 1049 281 1034 q 564 1063 444 1063 l 912 1063 q 1083 1054 1010 1063 q 1209 1026 1156 1045 q 1297 979 1262 1008 q 1353 912 1332 951 q 1381 825 1373 873 q 1390 716 1390 776 l 1259 716 z "},"ğ":{"ha":1128,"x_min":87,"x_max":1042,"o":"m 304 1061 q 369 895 304 947 q 564 844 434 844 q 760 895 694 844 q 825 1061 825 947 l 716 1061 q 705 985 716 1012 q 673 947 693 959 q 625 932 652 935 q 564 930 597 930 q 504 932 532 930 q 456 947 476 935 q 424 985 435 959 q 412 1061 412 1012 l 304 1061 m 564 694 q 433 690 488 694 q 339 673 378 685 q 276 639 300 661 q 239 583 252 617 q 221 502 226 549 q 217 389 217 454 q 221 278 217 326 q 239 198 226 231 q 276 142 252 164 q 339 109 300 121 q 433 92 378 96 q 564 87 488 87 q 680 90 629 87 q 770 103 731 93 q 835 134 808 114 q 879 188 862 154 q 904 271 896 221 q 911 391 911 321 q 904 512 911 462 q 879 596 896 562 q 835 649 862 629 q 770 679 808 669 q 680 692 731 689 q 564 694 629 694 m 1042 109 q 1016 -81 1042 -5 q 933 -202 990 -156 q 785 -267 876 -249 q 564 -286 694 -286 q 359 -275 442 -286 q 225 -240 276 -264 q 152 -180 174 -217 q 130 -90 130 -143 l 260 -90 q 274 -134 260 -117 q 323 -160 288 -151 q 416 -173 357 -170 q 564 -177 475 -177 q 728 -170 662 -177 q 836 -136 795 -163 q 894 -56 876 -110 q 911 87 911 -3 q 881 52 902 71 q 821 16 861 33 q 719 -11 781 0 q 564 -22 656 -22 q 343 -2 434 -22 q 195 64 252 17 q 113 190 138 111 q 87 389 87 269 q 113 591 87 511 q 195 718 138 671 q 343 784 252 765 q 564 803 434 803 q 719 793 656 803 q 821 770 781 784 q 881 739 861 755 q 911 709 902 722 l 911 781 l 1042 781 l 1042 109 z "},"Ġ":{"ha":1476,"x_min":87,"x_max":1390,"o":"m 803 1276 l 673 1276 l 673 1146 l 803 1146 l 803 1276 m 1259 716 q 1242 845 1259 798 q 1183 917 1224 892 q 1076 948 1143 941 q 912 955 1010 955 l 564 955 q 417 950 477 955 q 319 929 358 945 q 260 884 281 913 q 229 807 239 855 q 218 689 220 759 q 217 521 217 618 q 219 353 217 423 q 230 235 220 283 q 260 157 239 186 q 319 113 281 128 q 417 92 358 97 q 564 87 477 87 l 913 87 q 1044 91 989 87 q 1137 106 1099 95 q 1200 136 1176 117 q 1237 183 1223 155 q 1255 253 1250 212 q 1259 347 1259 293 l 1259 412 l 737 412 l 737 521 l 1390 521 l 1390 347 q 1381 230 1390 282 q 1353 136 1373 177 q 1297 65 1332 95 q 1210 16 1263 35 q 1084 -13 1157 -3 q 913 -22 1010 -22 l 564 -22 q 362 -7 444 -22 q 228 37 281 7 q 146 111 175 66 q 104 216 117 156 q 89 353 91 277 q 87 521 87 429 q 89 689 87 613 q 104 825 91 765 q 146 930 117 886 q 228 1005 175 975 q 362 1049 281 1034 q 564 1063 444 1063 l 912 1063 q 1083 1054 1010 1063 q 1209 1026 1156 1045 q 1297 979 1262 1008 q 1353 912 1332 951 q 1381 825 1373 873 q 1390 716 1390 776 l 1259 716 z "},"ġ":{"ha":1128,"x_min":87,"x_max":1042,"o":"m 629 974 l 499 974 l 499 844 l 629 844 l 629 974 m 564 694 q 433 690 488 694 q 339 673 378 685 q 276 639 300 661 q 239 583 252 617 q 221 502 226 549 q 217 389 217 454 q 221 278 217 326 q 239 198 226 231 q 276 142 252 164 q 339 109 300 121 q 433 92 378 96 q 564 87 488 87 q 680 90 629 87 q 770 103 731 93 q 835 134 808 114 q 879 188 862 154 q 904 271 896 221 q 911 391 911 321 q 904 512 911 462 q 879 596 896 562 q 835 649 862 629 q 770 679 808 669 q 680 692 731 689 q 564 694 629 694 m 1042 109 q 1016 -81 1042 -5 q 933 -202 990 -156 q 785 -267 876 -249 q 564 -286 694 -286 q 359 -275 442 -286 q 225 -240 276 -264 q 152 -180 174 -217 q 130 -90 130 -143 l 260 -90 q 274 -134 260 -117 q 323 -160 288 -151 q 416 -173 357 -170 q 564 -177 475 -177 q 728 -170 662 -177 q 836 -136 795 -163 q 894 -56 876 -110 q 911 87 911 -3 q 881 52 902 71 q 821 16 861 33 q 719 -11 781 0 q 564 -22 656 -22 q 343 -2 434 -22 q 195 64 252 17 q 113 190 138 111 q 87 389 87 269 q 113 591 87 511 q 195 718 138 671 q 343 784 252 765 q 564 803 434 803 q 719 793 656 803 q 821 770 781 784 q 881 739 861 755 q 911 709 902 722 l 911 781 l 1042 781 l 1042 109 z "},"Ģ":{"ha":1476,"x_min":87,"x_max":1390,"o":"m 695 -103 l 825 -103 l 739 -363 l 652 -363 l 695 -103 m 1259 716 q 1242 845 1259 798 q 1183 917 1224 892 q 1076 948 1143 941 q 912 955 1010 955 l 564 955 q 417 950 477 955 q 319 929 358 945 q 260 884 281 913 q 229 807 239 855 q 218 689 220 759 q 217 521 217 618 q 219 353 217 423 q 230 235 220 283 q 260 157 239 186 q 319 113 281 128 q 417 92 358 97 q 564 87 477 87 l 913 87 q 1044 91 989 87 q 1137 106 1099 95 q 1200 136 1176 117 q 1237 183 1223 155 q 1255 253 1250 212 q 1259 347 1259 293 l 1259 412 l 737 412 l 737 521 l 1390 521 l 1390 347 q 1381 230 1390 282 q 1353 136 1373 177 q 1297 65 1332 95 q 1210 16 1263 35 q 1084 -13 1157 -3 q 913 -22 1010 -22 l 564 -22 q 362 -7 444 -22 q 228 37 281 7 q 146 111 175 66 q 104 216 117 156 q 89 353 91 277 q 87 521 87 429 q 89 689 87 613 q 104 825 91 765 q 146 930 117 886 q 228 1005 175 975 q 362 1049 281 1034 q 564 1063 444 1063 l 912 1063 q 1083 1054 1010 1063 q 1209 1026 1156 1045 q 1297 979 1262 1008 q 1353 912 1332 951 q 1381 825 1373 873 q 1390 716 1390 776 l 1259 716 z "},"Ĥ":{"ha":1389,"x_min":87,"x_max":1303,"o":"m 890 1146 l 977 1211 l 760 1537 l 629 1537 l 412 1211 l 499 1146 l 694 1450 l 890 1146 m 1173 1042 l 1303 1042 l 1303 0 l 1173 0 l 1173 477 l 218 477 l 218 0 l 87 0 l 87 1042 l 218 1042 l 218 586 l 1173 586 l 1173 1042 z "},"ĥ":{"ha":1086,"x_min":87,"x_max":999,"o":"m 738 1124 l 825 1190 l 608 1515 l 477 1515 l 260 1190 l 347 1124 l 543 1428 l 738 1124 m 868 0 l 868 441 q 857 560 868 511 q 814 638 846 608 q 722 681 781 668 q 564 694 662 694 q 391 679 458 694 q 285 636 323 664 q 232 570 246 609 q 217 484 217 532 l 217 0 l 87 0 l 87 1042 l 217 1042 l 217 658 q 256 713 231 690 q 314 752 281 736 q 385 778 347 768 q 461 793 422 788 q 538 801 500 799 q 608 803 576 803 q 757 792 694 803 q 864 761 820 782 q 934 710 907 741 q 975 639 960 680 q 994 549 989 599 q 999 441 999 499 l 998 0 l 868 0 z "},"Ĩ":{"ha":304,"x_min":-151,"x_max":457,"o":"m 23 1211 q 80 1201 54 1211 q 135 1179 106 1191 q 199 1156 164 1166 q 283 1146 235 1146 q 338 1155 308 1146 q 395 1183 368 1163 q 439 1236 421 1203 q 457 1320 457 1270 l 327 1320 q 324 1286 327 1299 q 316 1266 321 1274 q 302 1257 311 1259 q 283 1255 294 1255 q 227 1265 253 1255 q 172 1288 201 1275 q 107 1310 142 1300 q 23 1320 72 1320 q -32 1313 -1 1320 q -88 1285 -62 1305 q -133 1232 -115 1265 q -151 1146 -151 1198 l -20 1146 q -18 1180 -20 1167 q -9 1200 -15 1193 q 4 1209 -4 1206 q 23 1211 12 1211 m 87 1042 l 218 1042 l 218 0 l 87 0 l 87 1042 z "},"ĩ":{"ha":304,"x_min":-151,"x_max":457,"o":"m 23 909 q 80 899 54 909 q 135 876 106 888 q 199 854 164 864 q 283 844 235 844 q 338 852 308 844 q 395 881 368 861 q 439 934 421 901 q 457 1017 457 967 l 327 1017 q 324 984 327 997 q 316 964 321 971 q 302 955 311 957 q 283 952 294 952 q 227 962 253 952 q 172 985 201 972 q 107 1008 142 998 q 23 1018 72 1018 q -32 1010 -1 1018 q -88 983 -62 1002 q -133 929 -115 963 q -151 844 -151 895 l -20 844 q -18 878 -20 865 q -9 897 -15 890 q 4 906 -4 904 q 23 909 12 909 m 87 0 l 217 0 l 217 738 l 87 738 l 87 0 z "},"Ī":{"ha":304,"x_min":-107,"x_max":414,"o":"m -107 1146 l 414 1146 l 414 1255 l -107 1255 l -107 1146 m 87 1042 l 218 1042 l 218 0 l 87 0 l 87 1042 z "},"ī":{"ha":304,"x_min":-107,"x_max":414,"o":"m -107 844 l 414 844 l 414 952 l -107 952 l -107 844 m 87 0 l 217 0 l 217 738 l 87 738 l 87 0 z "},"Ĭ":{"ha":304,"x_min":-108,"x_max":413,"o":"m -108 1363 q -43 1198 -108 1249 q 153 1146 22 1146 q 348 1198 283 1146 q 413 1363 413 1249 l 304 1363 q 293 1288 304 1314 q 261 1249 281 1261 q 213 1235 241 1237 q 153 1233 185 1233 q 92 1235 120 1233 q 44 1249 64 1237 q 12 1288 24 1261 q 1 1363 1 1314 l -108 1363 m 87 1042 l 218 1042 l 218 0 l 87 0 l 87 1042 z "},"ĭ":{"ha":304,"x_min":-108,"x_max":413,"o":"m -108 1060 q -43 895 -108 946 q 153 843 22 843 q 348 895 283 843 q 413 1060 413 946 l 304 1060 q 293 985 304 1011 q 261 946 281 958 q 213 932 241 934 q 153 930 185 930 q 92 932 120 930 q 44 946 64 934 q 12 985 24 958 q 1 1060 1 1011 l -108 1060 m 87 0 l 217 0 l 217 738 l 87 738 l 87 0 z "},"Į":{"ha":304,"x_min":-64,"x_max":218,"o":"m 197 -376 q 101 -368 148 -376 q 18 -338 54 -359 q -41 -285 -19 -318 q -64 -203 -64 -252 q -56 -156 -64 -178 q -37 -114 -49 -134 q -9 -77 -24 -94 q 23 -45 7 -60 q 110 14 61 -12 l 197 14 q 121 -50 148 -18 q 83 -108 95 -81 q 68 -154 71 -134 q 66 -181 66 -173 q 99 -249 66 -230 q 197 -268 131 -268 l 197 -376 m 87 1042 l 218 1042 l 218 0 l 87 0 l 87 1042 z "},"į":{"ha":304,"x_min":-64,"x_max":218,"o":"m 197 -376 q 101 -368 148 -376 q 18 -338 54 -359 q -41 -285 -19 -318 q -64 -203 -64 -252 q -56 -156 -64 -178 q -37 -114 -49 -134 q -9 -77 -24 -94 q 23 -45 7 -60 q 110 14 61 -12 l 197 14 q 121 -50 148 -18 q 83 -108 95 -81 q 68 -154 71 -134 q 66 -181 66 -173 q 99 -249 66 -230 q 197 -268 131 -268 l 197 -376 m 87 781 l 218 781 l 218 0 l 87 0 l 87 781 m 218 911 l 87 911 l 87 1042 l 218 1042 l 218 911 z "},"İ":{"ha":304,"x_min":87,"x_max":218,"o":"m 217 1276 l 87 1276 l 87 1146 l 217 1146 l 217 1276 m 87 1042 l 218 1042 l 218 0 l 87 0 l 87 1042 z "},"ı":{"ha":304,"x_min":87,"x_max":217,"o":"m 87 0 l 217 0 l 217 738 l 87 738 l 87 0 z "},"Ĳ":{"ha":1432,"x_min":87,"x_max":1345,"o":"m 694 0 q 537 18 597 0 q 445 76 477 35 q 401 183 412 117 q 391 347 391 250 l 391 391 l 521 391 l 521 347 q 530 218 521 266 q 559 145 538 170 q 612 113 579 120 q 694 106 646 106 l 998 106 q 1105 118 1063 106 q 1172 154 1147 130 q 1206 216 1196 178 q 1215 304 1215 253 l 1215 1042 l 1345 1042 l 1345 304 q 1328 165 1345 222 q 1270 71 1310 107 q 1162 17 1229 34 q 998 0 1096 0 l 694 0 m 87 1042 l 218 1042 l 218 0 l 87 0 l 87 1042 z "},"ĳ":{"ha":716,"x_min":87,"x_max":629,"o":"m 629 -43 q 623 -134 629 -94 q 591 -202 616 -174 q 519 -245 567 -230 q 391 -260 472 -260 l 391 -152 q 444 -147 423 -152 q 477 -130 465 -142 q 494 -97 490 -118 q 499 -43 499 -76 l 499 781 l 629 781 l 629 -43 m 629 911 l 499 911 l 499 1042 l 629 1042 l 629 911 m 87 781 l 218 781 l 218 0 l 87 0 l 87 781 m 218 911 l 87 911 l 87 1042 l 218 1042 l 218 911 z "},"Ĵ":{"ha":1128,"x_min":87,"x_max":1259,"o":"m 1172 1146 l 1259 1211 l 1042 1537 l 911 1537 l 694 1211 l 781 1146 l 977 1450 l 1172 1146 m 391 0 q 233 18 293 0 q 141 76 174 35 q 98 183 109 117 q 87 347 87 250 l 87 391 l 217 391 l 217 347 q 226 218 217 266 q 255 145 235 170 q 309 113 275 120 q 391 106 342 106 l 694 106 q 802 118 760 106 q 868 154 844 130 q 902 216 892 178 q 911 304 911 253 l 911 1042 l 1042 1042 l 1042 304 q 1024 165 1042 222 q 966 71 1006 107 q 859 17 925 34 q 694 0 792 0 l 391 0 z "},"ĵ":{"ha":412,"x_min":-20,"x_max":544,"o":"m 457 844 l 544 909 l 327 1234 l 197 1234 l -20 909 l 66 844 l 262 1147 l 457 844 m 326 738 l 195 738 l 195 -43 q 191 -97 195 -76 q 174 -130 186 -118 q 140 -147 161 -142 q 87 -152 119 -152 l 87 -260 q 216 -245 168 -260 q 288 -202 263 -230 q 319 -134 312 -174 q 326 -43 326 -94 l 326 738 z "},"Ķ":{"ha":1367,"x_min":87,"x_max":1281,"o":"m 640 -81 l 770 -81 l 684 -342 l 597 -342 l 640 -81 m 1064 1042 l 1259 1042 l 522 532 l 1281 0 l 1086 0 l 391 477 l 218 477 l 218 0 l 87 0 l 87 1042 l 218 1042 l 218 586 l 391 586 l 1064 1042 z "},"ķ":{"ha":955,"x_min":87,"x_max":955,"o":"m 477 -81 l 608 -81 l 521 -342 l 434 -342 l 477 -81 m 87 1042 l 217 1042 l 217 472 l 260 472 l 738 781 l 933 781 l 380 418 l 955 0 l 760 0 l 260 374 l 217 374 l 217 0 l 87 0 l 87 1042 z "},"ĸ":{"ha":955,"x_min":87,"x_max":955,"o":"m 87 0 l 217 0 l 217 347 l 260 347 l 760 0 l 955 0 l 380 391 l 933 738 l 738 738 l 260 445 l 217 445 l 217 1042 l 87 1042 l 87 0 z "},"Ĺ":{"ha":1128,"x_min":130,"x_max":1085,"o":"m 1042 1407 l 955 1537 l 564 1211 l 608 1146 l 1042 1407 m 130 0 l 130 1042 l 260 1042 l 260 109 l 1085 109 l 1085 0 l 130 0 z "},"ĺ":{"ha":304,"x_min":87,"x_max":586,"o":"m 586 1385 l 499 1515 l 109 1190 l 152 1124 l 586 1385 m 87 1042 l 218 1042 l 218 0 l 87 0 l 87 1042 z "},"Ļ":{"ha":1128,"x_min":130,"x_max":1085,"o":"m 564 -81 l 694 -81 l 608 -342 l 521 -342 l 564 -81 m 130 0 l 130 1042 l 260 1042 l 260 109 l 1085 109 l 1085 0 l 130 0 z "},"ļ":{"ha":304,"x_min":65,"x_max":239,"o":"m 109 -81 l 239 -81 l 152 -342 l 65 -342 l 109 -81 m 87 1042 l 218 1042 l 218 0 l 87 0 l 87 1042 z "},"Ľ":{"ha":1128,"x_min":130,"x_max":1085,"o":"m 564 1063 l 694 1063 l 607 803 l 520 803 l 564 1063 m 130 0 l 130 1042 l 260 1042 l 260 109 l 1085 109 l 1085 0 l 130 0 z "},"ľ":{"ha":304,"x_min":87,"x_max":515,"o":"m 385 1042 l 515 1042 l 428 781 l 341 781 l 385 1042 m 87 1042 l 218 1042 l 218 0 l 87 0 l 87 1042 z "},"Ŀ":{"ha":1128,"x_min":130,"x_max":1085,"o":"m 673 597 l 543 597 l 543 467 l 673 467 l 673 597 m 130 0 l 130 1042 l 260 1042 l 260 109 l 1085 109 l 1085 0 l 130 0 z "},"ŀ":{"ha":608,"x_min":87,"x_max":521,"o":"m 521 608 l 391 608 l 391 477 l 521 477 l 521 608 m 87 1042 l 218 1042 l 218 0 l 87 0 l 87 1042 z "},"Ł":{"ha":1128,"x_min":43,"x_max":1085,"o":"m 43 521 l 521 629 l 521 738 l 43 629 l 43 521 m 1085 0 l 1085 109 l 260 109 l 260 1042 l 130 1042 l 130 0 l 1085 0 z "},"ł":{"ha":347,"x_min":0,"x_max":391,"o":"m 0 521 l 391 629 l 391 738 l 0 629 l 0 521 m 87 0 l 217 0 l 217 1042 l 87 1042 l 87 0 z "},"Ń":{"ha":1487,"x_min":87,"x_max":1401,"o":"m 1177 1407 l 1090 1537 l 700 1211 l 743 1146 l 1177 1407 m 218 0 l 87 0 l 87 1042 l 316 1042 l 1271 130 l 1271 1042 l 1401 1042 l 1401 0 l 1227 0 l 218 933 l 218 0 z "},"ń":{"ha":1086,"x_min":130,"x_max":1042,"o":"m 1020 1103 l 933 1234 l 543 908 l 586 843 l 1020 1103 m 911 0 l 911 434 q 901 556 911 507 q 857 637 890 606 q 765 681 825 667 q 608 694 705 694 q 434 679 502 694 q 328 635 367 663 q 275 566 290 606 q 260 477 260 526 l 260 0 l 130 0 l 130 781 l 260 781 l 260 651 q 301 708 275 684 q 361 749 328 732 q 433 777 394 766 q 510 793 471 787 q 585 801 549 799 q 651 803 621 803 q 801 792 738 803 q 907 760 863 781 q 977 708 951 739 q 1018 636 1004 677 q 1038 544 1033 595 q 1042 434 1042 494 l 1042 0 l 911 0 z "},"Ņ":{"ha":1487,"x_min":87,"x_max":1401,"o":"m 700 -82 l 830 -82 l 743 -342 l 656 -342 l 700 -82 m 218 0 l 87 0 l 87 1042 l 316 1042 l 1271 130 l 1271 1042 l 1401 1042 l 1401 0 l 1227 0 l 218 933 l 218 0 z "},"ņ":{"ha":1086,"x_min":130,"x_max":1042,"o":"m 543 -82 l 673 -82 l 586 -342 l 499 -342 l 543 -82 m 911 0 l 911 434 q 901 556 911 507 q 857 637 890 606 q 765 681 825 667 q 608 694 705 694 q 434 679 502 694 q 328 635 367 663 q 275 566 290 606 q 260 477 260 526 l 260 0 l 130 0 l 130 781 l 260 781 l 260 651 q 301 708 275 684 q 361 749 328 732 q 433 777 394 766 q 510 793 471 787 q 585 801 549 799 q 651 803 621 803 q 801 792 738 803 q 907 760 863 781 q 977 708 951 739 q 1018 636 1004 677 q 1038 544 1033 595 q 1042 434 1042 494 l 1042 0 l 911 0 z "},"Ň":{"ha":1487,"x_min":87,"x_max":1401,"o":"m 743 1233 l 548 1537 l 461 1472 l 678 1146 l 808 1146 l 1025 1472 l 939 1537 l 743 1233 m 218 0 l 87 0 l 87 1042 l 316 1042 l 1271 130 l 1271 1042 l 1401 1042 l 1401 0 l 1227 0 l 218 933 l 218 0 z "},"ň":{"ha":1086,"x_min":130,"x_max":1042,"o":"m 586 930 l 391 1234 l 304 1168 l 521 843 l 651 843 l 868 1168 l 781 1234 l 586 930 m 911 0 l 911 434 q 901 556 911 507 q 857 637 890 606 q 765 681 825 667 q 608 694 705 694 q 434 679 502 694 q 328 635 367 663 q 275 566 290 606 q 260 477 260 526 l 260 0 l 130 0 l 130 781 l 260 781 l 260 651 q 301 708 275 684 q 361 749 328 732 q 433 777 394 766 q 510 793 471 787 q 585 801 549 799 q 651 803 621 803 q 801 792 738 803 q 907 760 863 781 q 977 708 951 739 q 1018 636 1004 677 q 1038 544 1033 595 q 1042 434 1042 494 l 1042 0 l 911 0 z "},"Ō":{"ha":1520,"x_min":87,"x_max":1433,"o":"m 500 1146 l 1021 1146 l 1021 1255 l 500 1255 l 500 1146 m 956 1063 q 1157 1049 1076 1063 q 1292 1005 1239 1034 q 1373 930 1345 975 q 1415 825 1402 886 q 1431 689 1428 765 q 1433 521 1433 613 q 1431 353 1433 429 q 1415 216 1428 277 q 1373 111 1402 156 q 1292 37 1345 66 q 1157 -7 1239 7 q 956 -22 1076 -22 l 564 -22 q 363 -7 445 -22 q 229 37 281 7 q 147 111 176 66 q 105 216 118 156 q 90 353 92 277 q 87 521 87 429 q 90 689 87 613 q 105 825 92 765 q 147 930 118 886 q 229 1005 176 975 q 363 1049 281 1034 q 564 1063 445 1063 l 956 1063 m 956 87 q 1102 92 1042 87 q 1200 113 1161 97 q 1259 157 1238 128 q 1290 235 1280 186 q 1301 353 1299 283 q 1303 521 1303 423 q 1301 689 1303 618 q 1290 807 1299 759 q 1259 884 1280 855 q 1200 929 1238 913 q 1102 950 1162 945 q 956 955 1043 955 l 564 955 q 418 950 477 955 q 320 929 359 945 q 260 884 281 913 q 230 807 239 855 q 219 689 220 759 q 218 521 218 618 q 219 353 218 423 q 231 235 221 283 q 261 157 240 186 q 320 113 281 128 q 418 92 359 97 q 564 87 477 87 l 956 87 z "},"ō":{"ha":1128,"x_min":87,"x_max":1042,"o":"m 304 844 l 825 844 l 825 952 l 304 952 l 304 844 m 87 396 q 113 595 87 516 q 195 720 138 673 q 343 784 252 766 q 564 803 434 803 q 785 784 694 803 q 933 720 876 766 q 1016 595 990 673 q 1042 396 1042 516 q 1016 197 1042 276 q 933 71 990 117 q 785 4 876 24 q 564 -15 694 -15 q 343 4 434 -15 q 195 71 252 24 q 113 197 138 117 q 87 396 87 276 m 217 396 q 222 283 217 331 q 240 200 227 235 q 277 144 253 165 q 339 109 300 122 q 433 92 378 96 q 564 87 488 87 q 681 90 629 87 q 770 104 732 93 q 836 135 808 115 q 879 189 863 155 q 904 274 896 224 q 911 396 911 325 q 904 515 911 466 q 879 597 896 564 q 836 650 863 631 q 770 679 808 669 q 681 692 732 689 q 564 694 629 694 q 448 692 499 694 q 358 679 397 689 q 293 650 320 669 q 249 597 266 631 q 225 515 233 564 q 217 396 217 466 z "},"Ŏ":{"ha":1520,"x_min":87,"x_max":1433,"o":"m 500 1363 q 565 1198 500 1249 q 760 1146 630 1146 q 956 1198 890 1146 q 1021 1363 1021 1249 l 912 1363 q 901 1288 912 1314 q 869 1249 889 1261 q 821 1235 848 1237 q 760 1233 793 1233 q 700 1235 728 1233 q 652 1249 672 1237 q 620 1288 631 1261 q 608 1363 608 1314 l 500 1363 m 956 1063 q 1157 1049 1076 1063 q 1292 1005 1239 1034 q 1373 930 1345 975 q 1415 825 1402 886 q 1431 689 1428 765 q 1433 521 1433 613 q 1431 353 1433 429 q 1415 216 1428 277 q 1373 111 1402 156 q 1292 37 1345 66 q 1157 -7 1239 7 q 956 -22 1076 -22 l 564 -22 q 363 -7 445 -22 q 229 37 281 7 q 147 111 176 66 q 105 216 118 156 q 90 353 92 277 q 87 521 87 429 q 90 689 87 613 q 105 825 92 765 q 147 930 118 886 q 229 1005 176 975 q 363 1049 281 1034 q 564 1063 445 1063 l 956 1063 m 956 87 q 1102 92 1042 87 q 1200 113 1161 97 q 1259 157 1238 128 q 1290 235 1280 186 q 1301 353 1299 283 q 1303 521 1303 423 q 1301 689 1303 618 q 1290 807 1299 759 q 1259 884 1280 855 q 1200 929 1238 913 q 1102 950 1162 945 q 956 955 1043 955 l 564 955 q 418 950 477 955 q 320 929 359 945 q 260 884 281 913 q 230 807 239 855 q 219 689 220 759 q 218 521 218 618 q 219 353 218 423 q 231 235 221 283 q 261 157 240 186 q 320 113 281 128 q 418 92 359 97 q 564 87 477 87 l 956 87 z "},"ŏ":{"ha":1128,"x_min":87,"x_max":1042,"o":"m 304 1060 q 369 895 304 946 q 564 843 434 843 q 760 895 694 843 q 825 1060 825 946 l 716 1060 q 705 985 716 1011 q 673 946 693 958 q 625 932 652 934 q 564 930 597 930 q 504 932 532 930 q 456 946 476 934 q 424 985 435 958 q 412 1060 412 1011 l 304 1060 m 87 396 q 113 595 87 516 q 195 720 138 673 q 343 784 252 766 q 564 803 434 803 q 785 784 694 803 q 933 720 876 766 q 1016 595 990 673 q 1042 396 1042 516 q 1016 197 1042 276 q 933 71 990 117 q 785 4 876 24 q 564 -15 694 -15 q 343 4 434 -15 q 195 71 252 24 q 113 197 138 117 q 87 396 87 276 m 217 396 q 222 283 217 331 q 240 200 227 235 q 277 144 253 165 q 339 109 300 122 q 433 92 378 96 q 564 87 488 87 q 681 90 629 87 q 770 104 732 93 q 836 135 808 115 q 879 189 863 155 q 904 274 896 224 q 911 396 911 325 q 904 515 911 466 q 879 597 896 564 q 836 650 863 631 q 770 679 808 669 q 681 692 732 689 q 564 694 629 694 q 448 692 499 694 q 358 679 397 689 q 293 650 320 669 q 249 597 266 631 q 225 515 233 564 q 217 396 217 466 z "},"Ő":{"ha":1520,"x_min":87,"x_max":1433,"o":"m 1006 1407 l 920 1537 l 529 1211 l 572 1146 l 1006 1407 m 1381 1407 l 1295 1537 l 904 1211 l 947 1146 l 1381 1407 m 956 1063 q 1157 1049 1076 1063 q 1292 1005 1239 1034 q 1373 930 1345 975 q 1415 825 1402 886 q 1431 689 1428 765 q 1433 521 1433 613 q 1431 353 1433 429 q 1415 216 1428 277 q 1373 111 1402 156 q 1292 37 1345 66 q 1157 -7 1239 7 q 956 -22 1076 -22 l 564 -22 q 363 -7 445 -22 q 229 37 281 7 q 147 111 176 66 q 105 216 118 156 q 90 353 92 277 q 87 521 87 429 q 90 689 87 613 q 105 825 92 765 q 147 930 118 886 q 229 1005 176 975 q 363 1049 281 1034 q 564 1063 445 1063 l 956 1063 m 956 87 q 1102 92 1042 87 q 1200 113 1161 97 q 1259 157 1238 128 q 1290 235 1280 186 q 1301 353 1299 283 q 1303 521 1303 423 q 1301 689 1303 618 q 1290 807 1299 759 q 1259 884 1280 855 q 1200 929 1238 913 q 1102 950 1162 945 q 956 955 1043 955 l 564 955 q 418 950 477 955 q 320 929 359 945 q 260 884 281 913 q 230 807 239 855 q 219 689 220 759 q 218 521 218 618 q 219 353 218 423 q 231 235 221 283 q 261 157 240 186 q 320 113 281 128 q 418 92 359 97 q 564 87 477 87 l 956 87 z "},"ő":{"ha":1128,"x_min":87,"x_max":1186,"o":"m 811 1103 l 724 1234 l 334 908 l 377 843 l 811 1103 m 1186 1103 l 1099 1234 l 709 908 l 752 843 l 1186 1103 m 87 396 q 113 595 87 516 q 195 720 138 673 q 343 784 252 766 q 564 803 434 803 q 785 784 694 803 q 933 720 876 766 q 1016 595 990 673 q 1042 396 1042 516 q 1016 197 1042 276 q 933 71 990 117 q 785 4 876 24 q 564 -15 694 -15 q 343 4 434 -15 q 195 71 252 24 q 113 197 138 117 q 87 396 87 276 m 217 396 q 222 283 217 331 q 240 200 227 235 q 277 144 253 165 q 339 109 300 122 q 433 92 378 96 q 564 87 488 87 q 681 90 629 87 q 770 104 732 93 q 836 135 808 115 q 879 189 863 155 q 904 274 896 224 q 911 396 911 325 q 904 515 911 466 q 879 597 896 564 q 836 650 863 631 q 770 679 808 669 q 681 692 732 689 q 564 694 629 694 q 448 692 499 694 q 358 679 397 689 q 293 650 320 669 q 249 597 266 631 q 225 515 233 564 q 217 396 217 466 z "},"Œ":{"ha":2387,"x_min":87,"x_max":2344,"o":"m 1302 0 l 1302 43 q 1165 -5 1249 11 q 956 -22 1081 -22 l 564 -22 q 362 -7 444 -22 q 228 37 281 7 q 146 111 175 66 q 104 216 117 156 q 89 353 91 277 q 87 521 87 429 q 89 689 87 613 q 104 825 91 765 q 146 930 117 886 q 228 1005 175 975 q 362 1049 281 1034 q 564 1061 444 1063 l 956 1061 q 1165 1047 1081 1063 q 1302 998 1249 1031 l 1302 1042 l 2344 1042 l 2344 933 l 1432 933 l 1432 586 l 2300 586 l 2300 477 l 1432 477 l 1432 109 l 2344 109 l 2344 0 l 1302 0 m 956 87 q 1101 92 1042 87 q 1199 113 1160 97 q 1259 157 1238 128 q 1289 235 1280 186 q 1300 353 1299 283 q 1302 521 1302 423 q 1300 689 1302 618 q 1289 807 1299 759 q 1259 884 1280 855 q 1199 929 1238 913 q 1102 948 1161 945 q 956 952 1042 952 l 564 952 q 417 950 477 955 q 319 929 358 945 q 260 884 281 913 q 229 807 239 855 q 218 689 220 759 q 217 521 217 618 q 219 353 217 423 q 230 235 220 283 q 260 157 239 186 q 319 113 281 128 q 417 92 358 97 q 564 87 477 87 l 956 87 z "},"œ":{"ha":1910,"x_min":87,"x_max":1823,"o":"m 87 369 q 113 180 87 255 q 195 60 138 104 q 343 -3 252 15 q 564 -22 434 -22 q 712 -10 644 -22 q 833 22 780 1 q 923 70 886 42 q 977 130 960 98 q 1029 70 993 98 q 1120 22 1066 42 q 1241 -10 1173 1 q 1389 -22 1310 -22 q 1594 -9 1511 -22 q 1728 33 1677 4 q 1801 106 1779 61 q 1823 217 1823 152 l 1693 217 q 1679 151 1693 176 q 1630 111 1665 125 q 1537 92 1596 97 q 1389 87 1478 87 q 1225 94 1291 87 q 1118 127 1158 101 q 1059 206 1077 154 q 1042 347 1042 258 l 1812 347 l 1823 391 q 1816 492 1823 444 q 1793 581 1810 541 q 1745 655 1775 622 q 1667 711 1715 688 q 1550 747 1618 734 q 1389 760 1482 760 q 1238 748 1310 760 q 1112 716 1167 736 q 1020 668 1056 696 q 977 608 985 640 q 932 666 968 639 q 841 714 897 694 q 715 747 786 735 q 564 760 644 760 q 343 741 434 760 q 195 678 252 723 q 113 558 138 633 q 87 369 87 483 m 217 369 q 235 523 217 467 q 293 608 252 579 q 400 644 334 636 q 564 651 467 651 q 728 644 662 651 q 836 608 795 636 q 894 523 876 579 q 911 369 911 467 q 894 215 911 271 q 836 130 876 159 q 728 94 795 102 q 564 87 662 87 q 433 91 488 87 q 339 107 378 96 q 277 138 300 119 q 240 190 253 158 q 222 265 227 221 q 217 369 217 309 m 1389 651 q 1528 642 1470 651 q 1622 608 1586 632 q 1676 541 1659 583 q 1693 434 1693 499 l 1042 434 q 1059 550 1042 507 q 1118 616 1077 593 q 1225 645 1158 638 q 1389 651 1291 651 z "},"Ŕ":{"ha":1432,"x_min":130,"x_max":1345,"o":"m 933 1407 l 846 1537 l 456 1211 l 499 1146 l 933 1407 m 1324 0 l 1194 0 l 1194 195 q 1192 277 1194 243 q 1180 336 1190 311 q 1149 375 1171 360 q 1090 398 1128 390 q 992 409 1051 406 q 846 412 932 412 l 260 412 l 260 0 l 130 0 l 130 1042 l 867 1042 q 1068 1033 987 1042 q 1203 1008 1150 1025 q 1285 966 1257 991 q 1328 907 1314 941 q 1343 831 1341 873 q 1345 738 1345 789 q 1336 624 1345 673 q 1305 540 1327 574 q 1248 485 1284 505 q 1158 456 1212 464 q 1244 427 1212 448 q 1295 374 1277 407 q 1318 297 1312 342 q 1324 195 1324 252 l 1324 0 m 260 521 l 867 521 q 1014 524 954 521 q 1112 535 1073 527 q 1171 558 1150 543 q 1202 597 1192 573 q 1214 656 1212 622 q 1215 738 1215 690 q 1214 814 1215 782 q 1202 867 1212 846 q 1171 902 1192 889 q 1112 922 1150 915 q 1014 931 1073 929 q 867 933 954 933 l 260 933 l 260 521 z "},"ŕ":{"ha":911,"x_min":87,"x_max":911,"o":"m 911 1103 l 825 1234 l 434 908 l 477 843 l 911 1103 m 760 527 q 752 608 760 576 q 719 660 745 640 q 641 687 692 679 q 499 694 589 694 q 357 679 412 694 q 271 636 302 664 q 228 570 239 608 q 217 484 217 531 l 217 0 l 87 0 l 87 781 l 217 781 l 217 657 q 242 704 224 678 q 298 751 260 729 q 394 788 335 773 q 543 803 454 803 q 708 785 644 803 q 807 732 772 767 q 856 646 843 697 q 868 527 868 594 l 760 527 z "},"Ŗ":{"ha":1432,"x_min":130,"x_max":1345,"o":"m 684 -82 l 814 -82 l 727 -342 l 640 -342 l 684 -82 m 1324 0 l 1194 0 l 1194 195 q 1192 277 1194 243 q 1180 336 1190 311 q 1149 375 1171 360 q 1090 398 1128 390 q 992 409 1051 406 q 846 412 932 412 l 260 412 l 260 0 l 130 0 l 130 1042 l 867 1042 q 1068 1033 987 1042 q 1203 1008 1150 1025 q 1285 966 1257 991 q 1328 907 1314 941 q 1343 831 1341 873 q 1345 738 1345 789 q 1336 624 1345 673 q 1305 540 1327 574 q 1248 485 1284 505 q 1158 456 1212 464 q 1244 427 1212 448 q 1295 374 1277 407 q 1318 297 1312 342 q 1324 195 1324 252 l 1324 0 m 260 521 l 867 521 q 1014 524 954 521 q 1112 535 1073 527 q 1171 558 1150 543 q 1202 597 1192 573 q 1214 656 1212 622 q 1215 738 1215 690 q 1214 814 1215 782 q 1202 867 1212 846 q 1171 902 1192 889 q 1112 922 1150 915 q 1014 931 1073 929 q 867 933 954 933 l 260 933 l 260 521 z "},"ŗ":{"ha":868,"x_min":65,"x_max":868,"o":"m 109 -82 l 239 -82 l 152 -342 l 65 -342 l 109 -82 m 760 527 q 752 608 760 576 q 719 660 745 640 q 641 687 692 679 q 499 694 589 694 q 357 679 412 694 q 271 636 302 664 q 228 570 239 608 q 217 484 217 531 l 217 0 l 87 0 l 87 781 l 217 781 l 217 657 q 242 704 224 678 q 298 751 260 729 q 394 788 335 773 q 543 803 454 803 q 708 785 644 803 q 807 732 772 767 q 856 646 843 697 q 868 527 868 594 l 760 527 z "},"Ř":{"ha":1432,"x_min":130,"x_max":1345,"o":"m 499 1233 l 304 1537 l 217 1472 l 434 1146 l 564 1146 l 781 1472 l 694 1537 l 499 1233 m 1324 0 l 1194 0 l 1194 195 q 1192 277 1194 243 q 1180 336 1190 311 q 1149 375 1171 360 q 1090 398 1128 390 q 992 409 1051 406 q 846 412 932 412 l 260 412 l 260 0 l 130 0 l 130 1042 l 867 1042 q 1068 1033 987 1042 q 1203 1008 1150 1025 q 1285 966 1257 991 q 1328 907 1314 941 q 1343 831 1341 873 q 1345 738 1345 789 q 1336 624 1345 673 q 1305 540 1327 574 q 1248 485 1284 505 q 1158 456 1212 464 q 1244 427 1212 448 q 1295 374 1277 407 q 1318 297 1312 342 q 1324 195 1324 252 l 1324 0 m 260 521 l 867 521 q 1014 524 954 521 q 1112 535 1073 527 q 1171 558 1150 543 q 1202 597 1192 573 q 1214 656 1212 622 q 1215 738 1215 690 q 1214 814 1215 782 q 1202 867 1212 846 q 1171 902 1192 889 q 1112 922 1150 915 q 1014 931 1073 929 q 867 933 954 933 l 260 933 l 260 521 z "},"ř":{"ha":868,"x_min":87,"x_max":868,"o":"m 477 930 l 282 1234 l 195 1168 l 412 843 l 543 843 l 760 1168 l 673 1234 l 477 930 m 760 527 q 752 608 760 576 q 719 660 745 640 q 641 687 692 679 q 499 694 589 694 q 357 679 412 694 q 271 636 302 664 q 228 570 239 608 q 217 484 217 531 l 217 0 l 87 0 l 87 781 l 217 781 l 217 657 q 242 704 224 678 q 298 751 260 729 q 394 788 335 773 q 543 803 454 803 q 708 785 644 803 q 807 732 772 767 q 856 646 843 697 q 868 527 868 594 l 760 527 z "},"Ś":{"ha":1345,"x_min":87,"x_max":1259,"o":"m 1150 1407 l 1063 1537 l 673 1211 l 716 1146 l 1150 1407 m 787 586 q 970 577 894 586 q 1100 551 1047 568 q 1183 508 1152 534 q 1232 449 1215 482 q 1254 376 1249 416 q 1259 288 1259 335 q 1250 198 1259 240 q 1220 122 1242 157 q 1161 60 1198 87 q 1066 14 1124 33 q 927 -15 1008 -5 q 738 -24 846 -24 l 564 -24 q 393 -17 467 -24 q 267 6 320 -9 q 180 44 214 21 q 124 99 145 68 q 96 171 104 131 q 87 260 87 212 l 218 260 q 235 165 218 199 q 294 113 253 130 q 400 91 334 96 q 564 87 467 87 l 738 87 q 927 98 852 87 q 1047 132 1002 109 q 1110 194 1092 156 q 1128 288 1128 233 q 1116 379 1128 342 q 1066 437 1103 416 q 962 468 1029 459 q 787 477 895 477 l 608 477 q 403 486 488 477 q 260 512 318 495 q 168 553 203 528 q 116 610 134 578 q 92 681 98 642 q 87 765 87 720 q 95 853 87 812 q 127 927 104 894 q 190 985 150 960 q 293 1028 230 1011 q 444 1055 355 1046 q 651 1063 532 1063 l 781 1063 q 952 1056 879 1063 q 1078 1034 1025 1049 q 1166 996 1131 1019 q 1222 942 1201 973 q 1251 870 1242 910 q 1259 781 1259 830 l 1128 781 q 1111 877 1128 842 q 1053 929 1093 911 q 945 950 1012 946 q 781 955 879 955 l 651 955 q 437 946 521 955 q 304 915 353 937 q 236 857 255 893 q 217 765 217 820 q 222 705 217 731 q 241 658 227 678 q 282 625 256 638 q 352 602 309 611 q 458 590 395 593 q 608 586 521 586 l 787 586 z "},"ś":{"ha":1085,"x_min":87,"x_max":998,"o":"m 998 1103 l 911 1234 l 521 908 l 564 843 l 998 1103 m 543 356 q 672 354 618 356 q 762 346 726 351 q 819 331 798 340 q 851 305 840 322 q 865 270 862 288 q 868 231 868 253 q 865 186 868 206 q 850 150 862 166 q 817 122 839 134 q 755 102 794 111 q 660 91 717 94 q 521 87 602 87 q 373 92 431 87 q 279 111 314 97 q 231 151 245 125 q 217 217 217 176 l 87 217 q 109 113 87 155 q 182 43 131 70 q 316 4 233 16 q 521 -8 399 -8 q 692 -2 618 -8 q 819 15 766 3 q 906 46 871 27 q 962 93 941 66 q 990 154 982 119 q 998 233 998 189 q 990 311 998 277 q 962 369 982 345 q 909 415 942 394 q 825 446 876 436 q 704 460 774 456 q 543 465 635 465 q 413 465 467 465 q 323 469 359 465 q 266 480 287 473 q 234 502 245 488 q 220 538 223 516 q 217 583 217 560 q 235 645 217 623 q 293 678 252 667 q 400 692 334 689 q 564 694 467 694 q 712 689 654 694 q 806 671 771 684 q 854 635 840 658 q 868 575 868 612 l 998 575 q 979 677 998 634 q 910 748 959 720 q 777 789 861 776 q 564 803 693 803 q 343 791 434 803 q 195 754 252 780 q 113 686 138 728 q 87 583 87 644 q 95 500 87 538 q 123 436 103 462 q 176 394 142 410 q 260 370 210 378 q 380 359 311 361 q 543 356 450 356 z "},"Ŝ":{"ha":1345,"x_min":87,"x_max":1259,"o":"m 911 1146 l 998 1211 l 781 1537 l 651 1537 l 434 1211 l 521 1146 l 716 1450 l 911 1146 m 787 586 q 970 577 894 586 q 1100 551 1047 568 q 1183 508 1152 534 q 1232 449 1215 482 q 1254 376 1249 416 q 1259 288 1259 335 q 1250 198 1259 240 q 1220 122 1242 157 q 1161 60 1198 87 q 1066 14 1124 33 q 927 -15 1008 -5 q 738 -24 846 -24 l 564 -24 q 393 -17 467 -24 q 267 6 320 -9 q 180 44 214 21 q 124 99 145 68 q 96 171 104 131 q 87 260 87 212 l 218 260 q 235 165 218 199 q 294 113 253 130 q 400 91 334 96 q 564 87 467 87 l 738 87 q 927 98 852 87 q 1047 132 1002 109 q 1110 194 1092 156 q 1128 288 1128 233 q 1116 379 1128 342 q 1066 437 1103 416 q 962 468 1029 459 q 787 477 895 477 l 608 477 q 403 486 488 477 q 260 512 318 495 q 168 553 203 528 q 116 610 134 578 q 92 681 98 642 q 87 765 87 720 q 95 853 87 812 q 127 927 104 894 q 190 985 150 960 q 293 1028 230 1011 q 444 1055 355 1046 q 651 1063 532 1063 l 781 1063 q 952 1056 879 1063 q 1078 1034 1025 1049 q 1166 996 1131 1019 q 1222 942 1201 973 q 1251 870 1242 910 q 1259 781 1259 830 l 1128 781 q 1111 877 1128 842 q 1053 929 1093 911 q 945 950 1012 946 q 781 955 879 955 l 651 955 q 437 946 521 955 q 304 915 353 937 q 236 857 255 893 q 217 765 217 820 q 222 705 217 731 q 241 658 227 678 q 282 625 256 638 q 352 602 309 611 q 458 590 395 593 q 608 586 521 586 l 787 586 z "},"ŝ":{"ha":1085,"x_min":87,"x_max":998,"o":"m 760 844 l 846 909 l 629 1234 l 499 1234 l 282 909 l 369 844 l 564 1147 l 760 844 m 543 356 q 672 354 618 356 q 762 346 726 351 q 819 331 798 340 q 851 305 840 322 q 865 270 862 288 q 868 231 868 253 q 865 186 868 206 q 850 150 862 166 q 817 122 839 134 q 755 102 794 111 q 660 91 717 94 q 521 87 602 87 q 373 92 431 87 q 279 111 314 97 q 231 151 245 125 q 217 217 217 176 l 87 217 q 109 113 87 155 q 182 43 131 70 q 316 4 233 16 q 521 -8 399 -8 q 692 -2 618 -8 q 819 15 766 3 q 906 46 871 27 q 962 93 941 66 q 990 154 982 119 q 998 233 998 189 q 990 311 998 277 q 962 369 982 345 q 909 415 942 394 q 825 446 876 436 q 704 460 774 456 q 543 465 635 465 q 413 465 467 465 q 323 469 359 465 q 266 480 287 473 q 234 502 245 488 q 220 538 223 516 q 217 583 217 560 q 235 645 217 623 q 293 678 252 667 q 400 692 334 689 q 564 694 467 694 q 712 689 654 694 q 806 671 771 684 q 854 635 840 658 q 868 575 868 612 l 998 575 q 979 677 998 634 q 910 748 959 720 q 777 789 861 776 q 564 803 693 803 q 343 791 434 803 q 195 754 252 780 q 113 686 138 728 q 87 583 87 644 q 95 500 87 538 q 123 436 103 462 q 176 394 142 410 q 260 370 210 378 q 380 359 311 361 q 543 356 450 356 z "},"Ş":{"ha":1345,"x_min":87,"x_max":1259,"o":"m 608 -313 q 665 -312 640 -313 q 705 -305 689 -311 q 730 -286 722 -299 q 738 -248 738 -273 q 736 -232 738 -240 q 722 -218 734 -224 q 683 -209 709 -212 q 608 -205 656 -205 l 608 -9 l 694 -9 l 694 -140 q 758 -144 727 -140 q 814 -161 789 -149 q 853 -195 838 -174 q 868 -248 868 -216 q 846 -339 868 -305 q 787 -392 823 -374 q 703 -416 750 -410 q 608 -422 656 -422 l 608 -313 m 787 586 q 970 577 894 586 q 1100 551 1047 568 q 1183 508 1152 534 q 1232 449 1215 482 q 1254 376 1249 416 q 1259 288 1259 335 q 1250 198 1259 240 q 1220 122 1242 157 q 1161 60 1198 87 q 1066 14 1124 33 q 927 -15 1008 -5 q 738 -24 846 -24 l 564 -24 q 393 -17 467 -24 q 267 6 320 -9 q 180 44 214 21 q 124 99 145 68 q 96 171 104 131 q 87 260 87 212 l 218 260 q 235 165 218 199 q 294 113 253 130 q 400 91 334 96 q 564 87 467 87 l 738 87 q 927 98 852 87 q 1047 132 1002 109 q 1110 194 1092 156 q 1128 288 1128 233 q 1116 379 1128 342 q 1066 437 1103 416 q 962 468 1029 459 q 787 477 895 477 l 608 477 q 403 486 488 477 q 260 512 318 495 q 168 553 203 528 q 116 610 134 578 q 92 681 98 642 q 87 765 87 720 q 95 853 87 812 q 127 927 104 894 q 190 985 150 960 q 293 1028 230 1011 q 444 1055 355 1046 q 651 1063 532 1063 l 781 1063 q 952 1056 879 1063 q 1078 1034 1025 1049 q 1166 996 1131 1019 q 1222 942 1201 973 q 1251 870 1242 910 q 1259 781 1259 830 l 1128 781 q 1111 877 1128 842 q 1053 929 1093 911 q 945 950 1012 946 q 781 955 879 955 l 651 955 q 437 946 521 955 q 304 915 353 937 q 236 857 255 893 q 217 765 217 820 q 222 705 217 731 q 241 658 227 678 q 282 625 256 638 q 352 602 309 611 q 458 590 395 593 q 608 586 521 586 l 787 586 z "},"ş":{"ha":1085,"x_min":87,"x_max":998,"o":"m 477 -311 q 534 -310 510 -311 q 575 -303 559 -309 q 600 -284 591 -297 q 608 -246 608 -271 q 606 -230 608 -238 q 591 -216 604 -222 q 553 -207 579 -210 q 477 -203 526 -203 l 477 -7 q 315 4 383 -5 q 182 43 233 16 q 109 113 131 70 q 87 217 87 155 l 217 217 q 231 151 217 176 q 279 111 245 125 q 373 92 314 97 q 521 87 431 87 q 660 91 602 87 q 755 102 717 94 q 817 122 794 111 q 850 150 839 134 q 865 186 862 166 q 868 231 868 206 q 865 270 868 253 q 851 300 862 288 q 819 322 840 313 q 762 337 798 331 q 672 345 726 342 q 543 347 618 347 q 380 350 450 347 q 260 361 311 353 q 176 385 210 370 q 123 427 142 401 q 95 491 103 453 q 87 583 87 530 q 113 686 87 644 q 195 754 138 728 q 343 791 252 780 q 564 803 434 803 q 777 789 693 803 q 910 748 861 776 q 979 677 959 720 q 998 575 998 634 l 868 575 q 854 635 868 612 q 806 671 840 658 q 712 689 771 684 q 564 694 654 694 q 400 692 467 694 q 293 678 334 689 q 235 645 252 667 q 217 583 217 623 q 220 529 217 551 q 234 493 223 507 q 266 471 245 479 q 323 460 287 464 q 413 456 359 456 q 543 456 467 456 q 704 452 635 456 q 825 437 774 448 q 909 411 876 427 q 962 369 942 394 q 990 311 982 345 q 998 233 998 277 q 990 154 998 189 q 962 93 982 119 q 906 46 941 66 q 819 15 871 27 q 692 -2 766 3 q 564 -7 635 -7 l 564 -138 q 628 -142 597 -138 q 684 -159 659 -147 q 723 -193 708 -172 q 738 -246 738 -214 q 715 -337 738 -303 q 656 -390 693 -372 q 573 -414 620 -408 q 477 -420 526 -420 l 477 -311 z "},"Š":{"ha":1345,"x_min":87,"x_max":1259,"o":"m 787 586 q 970 577 894 586 q 1100 551 1047 568 q 1183 508 1152 534 q 1232 449 1215 482 q 1254 376 1249 416 q 1259 288 1259 335 q 1250 198 1259 240 q 1220 122 1242 157 q 1161 60 1198 87 q 1066 14 1124 33 q 927 -15 1008 -5 q 738 -24 846 -24 l 564 -24 q 393 -17 467 -24 q 267 6 320 -9 q 180 44 214 21 q 124 99 145 68 q 96 171 104 131 q 87 260 87 212 l 218 260 q 235 165 218 199 q 294 113 253 130 q 400 91 334 96 q 564 87 467 87 l 738 87 q 927 98 852 87 q 1047 132 1002 109 q 1110 194 1092 156 q 1128 288 1128 233 q 1116 379 1128 342 q 1066 437 1103 416 q 962 468 1029 459 q 787 477 895 477 l 608 477 q 403 486 488 477 q 260 512 318 495 q 168 553 203 528 q 116 610 134 578 q 92 681 98 642 q 87 765 87 720 q 95 853 87 812 q 127 927 104 894 q 190 985 150 960 q 293 1028 230 1011 q 444 1055 355 1046 q 651 1063 532 1063 l 781 1063 q 952 1056 879 1063 q 1078 1034 1025 1049 q 1166 996 1131 1019 q 1222 942 1201 973 q 1251 870 1242 910 q 1259 781 1259 830 l 1128 781 q 1111 877 1128 842 q 1053 929 1093 911 q 945 950 1012 946 q 781 955 879 955 l 651 955 q 437 946 521 955 q 304 915 353 937 q 236 857 255 893 q 217 765 217 820 q 222 705 217 731 q 241 658 227 678 q 282 625 256 638 q 352 602 309 611 q 458 590 395 593 q 608 586 521 586 l 787 586 m 673 1259 l 477 1563 l 391 1497 l 608 1172 l 738 1172 l 955 1497 l 868 1563 l 673 1259 z "},"š":{"ha":1085,"x_min":87,"x_max":998,"o":"m 543 356 q 672 354 618 356 q 762 346 726 351 q 819 331 798 340 q 851 305 840 322 q 865 270 862 288 q 868 231 868 253 q 865 186 868 206 q 850 150 862 166 q 817 122 839 134 q 755 102 794 111 q 660 91 717 94 q 521 87 602 87 q 373 92 431 87 q 279 111 314 97 q 231 151 245 125 q 217 217 217 176 l 87 217 q 109 113 87 155 q 182 43 131 70 q 316 4 233 16 q 521 -8 399 -8 q 692 -2 618 -8 q 819 15 766 3 q 906 46 871 27 q 962 93 941 66 q 990 154 982 119 q 998 233 998 189 q 990 311 998 277 q 962 369 982 345 q 909 415 942 394 q 825 446 876 436 q 704 460 774 456 q 543 465 635 465 q 413 465 467 465 q 323 469 359 465 q 266 480 287 473 q 234 502 245 488 q 220 538 223 516 q 217 583 217 560 q 235 645 217 623 q 293 678 252 667 q 400 692 334 689 q 564 694 467 694 q 712 689 654 694 q 806 671 771 684 q 854 635 840 658 q 868 575 868 612 l 998 575 q 979 677 998 634 q 910 748 959 720 q 777 789 861 776 q 564 803 693 803 q 343 791 434 803 q 195 754 252 780 q 113 686 138 728 q 87 583 87 644 q 95 500 87 538 q 123 436 103 462 q 176 394 142 410 q 260 370 210 378 q 380 359 311 361 q 543 356 450 356 m 543 955 l 347 1259 l 260 1194 l 477 868 l 608 868 l 825 1194 l 738 1259 l 543 955 z "},"Ţ":{"ha":1345,"x_min":87,"x_max":1259,"o":"m 629 -290 q 686 -289 662 -290 q 727 -281 711 -288 q 751 -262 743 -275 q 760 -224 760 -249 q 758 -209 760 -216 q 743 -195 755 -201 q 705 -185 731 -189 q 629 -181 678 -181 l 629 14 l 716 14 l 716 -116 q 780 -121 749 -116 q 836 -138 811 -125 q 875 -171 860 -150 q 890 -224 890 -192 q 867 -316 890 -281 q 808 -368 845 -350 q 725 -392 772 -387 q 629 -398 678 -398 l 629 -290 m 1259 1042 l 1259 933 l 738 933 l 738 0 l 608 0 l 608 933 l 87 933 l 87 1042 l 1259 1042 z "},"ţ":{"ha":977,"x_min":87,"x_max":890,"o":"m 521 -290 q 578 -289 553 -290 q 618 -281 602 -288 q 643 -262 635 -275 q 651 -224 651 -249 q 649 -209 651 -216 q 635 -195 647 -201 q 596 -185 623 -189 q 521 -181 570 -181 l 521 14 l 608 14 l 608 -116 q 671 -121 640 -116 q 727 -138 703 -125 q 766 -171 751 -150 q 781 -224 781 -192 q 759 -316 781 -281 q 700 -368 736 -350 q 616 -392 663 -387 q 521 -398 570 -398 l 521 -290 m 890 347 q 873 181 890 248 q 819 74 857 114 q 718 17 781 34 q 564 0 656 0 q 415 14 475 0 q 317 60 355 27 q 264 146 280 92 q 248 282 248 201 l 248 674 l 87 674 l 87 781 l 248 781 l 248 995 l 378 995 l 378 781 l 868 781 l 868 674 l 378 674 l 378 282 q 388 182 378 217 q 419 130 397 146 q 476 111 441 114 q 564 109 512 109 q 636 110 604 109 q 693 118 669 111 q 734 140 717 125 q 761 181 751 155 q 777 248 772 208 q 781 347 781 288 l 890 347 z "},"Ť":{"ha":1345,"x_min":87,"x_max":1259,"o":"m 673 1233 l 477 1537 l 391 1472 l 608 1146 l 738 1146 l 955 1472 l 868 1537 l 673 1233 m 1259 1042 l 1259 933 l 738 933 l 738 0 l 608 0 l 608 933 l 87 933 l 87 1042 l 1259 1042 z "},"ť":{"ha":977,"x_min":87,"x_max":890,"o":"m 545 1128 l 675 1128 l 589 868 l 502 868 l 545 1128 m 890 347 q 873 181 890 248 q 819 74 857 114 q 718 17 781 34 q 564 0 656 0 q 415 14 475 0 q 317 60 355 27 q 264 146 280 92 q 248 282 248 201 l 248 674 l 87 674 l 87 781 l 248 781 l 248 995 l 378 995 l 378 781 l 868 781 l 868 674 l 378 674 l 378 282 q 388 182 378 217 q 419 130 397 146 q 476 111 441 114 q 564 109 512 109 q 636 110 604 109 q 693 118 669 111 q 734 140 717 125 q 761 181 751 155 q 777 248 772 208 q 781 347 781 288 l 890 347 z "},"Ŧ":{"ha":1345,"x_min":87,"x_max":1259,"o":"m 1259 1042 l 1259 933 l 738 933 l 738 0 l 608 0 l 608 933 l 87 933 l 87 1042 l 1259 1042 m 410 456 l 931 456 l 931 347 l 410 347 l 410 456 z "},"ŧ":{"ha":977,"x_min":87,"x_max":890,"o":"m 890 347 q 873 181 890 248 q 819 74 857 114 q 718 17 781 34 q 564 0 656 0 q 415 14 475 0 q 317 60 355 27 q 264 146 280 92 q 248 282 248 201 l 248 674 l 87 674 l 87 781 l 248 781 l 248 995 l 378 995 l 378 781 l 868 781 l 868 674 l 378 674 l 378 282 q 388 182 378 217 q 419 130 397 146 q 476 111 441 114 q 564 109 512 109 q 636 110 604 109 q 693 118 669 111 q 734 140 717 125 q 761 181 751 155 q 777 248 772 208 q 781 347 781 288 l 890 347 m 87 456 l 608 456 l 608 347 l 87 347 l 87 456 z "},"Ũ":{"ha":1433,"x_min":87,"x_max":1346,"o":"m 587 1211 q 643 1201 617 1211 q 699 1179 669 1191 q 763 1156 728 1166 q 847 1146 798 1146 q 902 1155 871 1146 q 958 1183 932 1163 q 1003 1236 985 1203 q 1021 1320 1021 1270 l 890 1320 q 888 1286 890 1299 q 880 1266 885 1274 q 866 1257 874 1259 q 847 1255 858 1255 q 790 1265 817 1255 q 735 1288 764 1275 q 671 1310 706 1300 q 587 1320 635 1320 q 532 1313 562 1320 q 475 1285 502 1305 q 431 1232 449 1265 q 413 1146 413 1198 l 543 1146 q 546 1180 543 1167 q 554 1200 549 1193 q 568 1209 559 1206 q 587 1211 576 1211 m 1346 1042 l 1346 521 q 1344 353 1346 429 q 1328 216 1341 277 q 1286 111 1315 156 q 1205 37 1258 66 q 1070 -7 1152 7 q 869 -22 989 -22 l 564 -22 q 363 -7 445 -22 q 229 37 281 7 q 147 111 176 66 q 105 216 118 156 q 90 353 92 277 q 87 521 87 429 l 87 1042 l 218 1042 l 218 521 q 219 353 218 423 q 231 235 221 283 q 261 157 240 186 q 320 113 281 128 q 418 92 359 97 q 564 87 477 87 l 869 87 q 1015 92 956 87 q 1113 113 1075 97 q 1173 157 1152 128 q 1203 235 1194 186 q 1215 353 1213 283 q 1216 521 1216 423 l 1215 1042 l 1346 1042 z "},"ũ":{"ha":1086,"x_min":87,"x_max":999,"o":"m 413 909 q 470 899 444 909 q 525 876 496 888 q 589 854 554 864 q 673 844 625 844 q 728 852 698 844 q 785 881 758 861 q 829 934 811 901 q 847 1017 847 967 l 717 1017 q 714 984 717 997 q 706 964 711 971 q 692 955 701 957 q 673 952 684 952 q 617 962 643 952 q 562 985 591 972 q 497 1008 532 998 q 413 1018 462 1018 q 358 1010 389 1018 q 302 983 328 1002 q 257 929 275 963 q 239 844 239 895 l 370 844 q 372 878 370 865 q 380 897 375 890 q 394 906 386 904 q 413 909 402 909 m 218 781 l 218 347 q 229 225 218 275 q 272 144 239 175 q 364 100 304 114 q 522 87 424 87 q 695 102 627 87 q 801 146 762 118 q 854 215 840 175 q 869 304 869 255 l 869 781 l 999 781 l 999 0 l 869 0 l 869 130 q 837 84 859 109 q 770 37 814 58 q 654 0 725 15 q 478 -15 583 -15 q 328 -4 391 -15 q 221 27 265 6 q 151 78 178 47 q 111 149 125 109 q 92 239 96 189 q 87 347 87 288 l 87 781 l 218 781 z "},"Ū":{"ha":1433,"x_min":87,"x_max":1346,"o":"m 456 1146 l 977 1146 l 977 1255 l 456 1255 l 456 1146 m 1346 1042 l 1346 521 q 1344 353 1346 429 q 1328 216 1341 277 q 1286 111 1315 156 q 1205 37 1258 66 q 1070 -7 1152 7 q 869 -22 989 -22 l 564 -22 q 363 -7 445 -22 q 229 37 281 7 q 147 111 176 66 q 105 216 118 156 q 90 353 92 277 q 87 521 87 429 l 87 1042 l 218 1042 l 218 521 q 219 353 218 423 q 231 235 221 283 q 261 157 240 186 q 320 113 281 128 q 418 92 359 97 q 564 87 477 87 l 869 87 q 1015 92 956 87 q 1113 113 1075 97 q 1173 157 1152 128 q 1203 235 1194 186 q 1215 353 1213 283 q 1216 521 1216 423 l 1215 1042 l 1346 1042 z "},"ū":{"ha":1086,"x_min":87,"x_max":999,"o":"m 283 844 l 804 844 l 804 952 l 283 952 l 283 844 m 218 781 l 218 347 q 229 225 218 275 q 272 144 239 175 q 364 100 304 114 q 522 87 424 87 q 695 102 627 87 q 801 146 762 118 q 854 215 840 175 q 869 304 869 255 l 869 781 l 999 781 l 999 0 l 869 0 l 869 130 q 837 84 859 109 q 770 37 814 58 q 654 0 725 15 q 478 -15 583 -15 q 328 -4 391 -15 q 221 27 265 6 q 151 78 178 47 q 111 149 125 109 q 92 239 96 189 q 87 347 87 288 l 87 781 l 218 781 z "},"Ŭ":{"ha":1433,"x_min":87,"x_max":1346,"o":"m 456 1363 q 522 1198 456 1249 q 717 1146 587 1146 q 912 1198 847 1146 q 977 1363 977 1249 l 869 1363 q 857 1288 869 1314 q 825 1249 846 1261 q 777 1235 805 1237 q 717 1233 749 1233 q 656 1235 684 1233 q 608 1249 629 1237 q 576 1288 588 1261 q 565 1363 565 1314 l 456 1363 m 1346 1042 l 1346 521 q 1344 353 1346 429 q 1328 216 1341 277 q 1286 111 1315 156 q 1205 37 1258 66 q 1070 -7 1152 7 q 869 -22 989 -22 l 564 -22 q 363 -7 445 -22 q 229 37 281 7 q 147 111 176 66 q 105 216 118 156 q 90 353 92 277 q 87 521 87 429 l 87 1042 l 218 1042 l 218 521 q 219 353 218 423 q 231 235 221 283 q 261 157 240 186 q 320 113 281 128 q 418 92 359 97 q 564 87 477 87 l 869 87 q 1015 92 956 87 q 1113 113 1075 97 q 1173 157 1152 128 q 1203 235 1194 186 q 1215 353 1213 283 q 1216 521 1216 423 l 1215 1042 l 1346 1042 z "},"ŭ":{"ha":1086,"x_min":87,"x_max":999,"o":"m 283 1061 q 348 895 283 947 q 543 844 413 844 q 739 895 673 844 q 804 1061 804 947 l 695 1061 q 684 985 695 1012 q 652 947 672 959 q 604 932 631 935 q 543 930 576 930 q 483 932 511 930 q 435 947 455 935 q 403 985 414 959 q 391 1061 391 1012 l 283 1061 m 218 781 l 218 347 q 229 225 218 275 q 272 144 239 175 q 364 100 304 114 q 522 87 424 87 q 695 102 627 87 q 801 146 762 118 q 854 215 840 175 q 869 304 869 255 l 869 781 l 999 781 l 999 0 l 869 0 l 869 130 q 837 84 859 109 q 770 37 814 58 q 654 0 725 15 q 478 -15 583 -15 q 328 -4 391 -15 q 221 27 265 6 q 151 78 178 47 q 111 149 125 109 q 92 239 96 189 q 87 347 87 288 l 87 781 l 218 781 z "},"Ů":{"ha":1433,"x_min":87,"x_max":1346,"o":"m 717 1580 q 606 1561 652 1580 q 532 1512 561 1543 q 491 1443 504 1482 q 478 1363 478 1404 q 491 1283 478 1322 q 532 1214 504 1244 q 606 1165 561 1183 q 717 1146 652 1146 q 827 1165 782 1146 q 901 1214 873 1183 q 943 1283 930 1244 q 956 1363 956 1322 q 943 1443 956 1404 q 901 1512 930 1482 q 827 1561 873 1543 q 717 1580 782 1580 m 717 1233 q 651 1244 676 1233 q 611 1274 625 1255 q 592 1315 597 1292 q 587 1363 587 1339 q 592 1411 587 1388 q 611 1453 597 1434 q 651 1482 625 1471 q 717 1493 676 1493 q 783 1482 758 1493 q 823 1453 808 1471 q 842 1411 837 1434 q 847 1363 847 1388 q 842 1315 847 1339 q 823 1274 837 1292 q 783 1244 808 1255 q 717 1233 758 1233 m 1346 1042 l 1346 521 q 1344 353 1346 429 q 1328 216 1341 277 q 1286 111 1315 156 q 1205 37 1258 66 q 1070 -7 1152 7 q 869 -22 989 -22 l 564 -22 q 363 -7 445 -22 q 229 37 281 7 q 147 111 176 66 q 105 216 118 156 q 90 353 92 277 q 87 521 87 429 l 87 1042 l 218 1042 l 218 521 q 219 353 218 423 q 231 235 221 283 q 261 157 240 186 q 320 113 281 128 q 418 92 359 97 q 564 87 477 87 l 869 87 q 1015 92 956 87 q 1113 113 1075 97 q 1173 157 1152 128 q 1203 235 1194 186 q 1215 353 1213 283 q 1216 521 1216 423 l 1215 1042 l 1346 1042 z "},"ů":{"ha":1086,"x_min":87,"x_max":999,"o":"m 543 1277 q 433 1258 478 1277 q 359 1209 387 1240 q 317 1140 330 1179 q 304 1060 304 1101 q 317 980 304 1019 q 359 911 330 941 q 433 862 387 880 q 543 843 478 843 q 654 862 608 843 q 728 911 699 880 q 769 980 756 941 q 782 1060 782 1019 q 769 1140 782 1101 q 728 1209 756 1179 q 654 1258 699 1240 q 543 1277 608 1277 m 543 930 q 477 941 503 930 q 437 970 452 952 q 418 1012 423 989 q 413 1060 413 1036 q 418 1108 413 1084 q 437 1149 423 1131 q 477 1179 452 1168 q 543 1190 503 1190 q 609 1179 584 1190 q 649 1149 635 1168 q 668 1108 663 1131 q 673 1060 673 1084 q 668 1012 673 1036 q 649 970 663 989 q 609 941 635 952 q 543 930 584 930 m 218 781 l 218 347 q 229 225 218 275 q 272 144 239 175 q 364 100 304 114 q 522 87 424 87 q 695 102 627 87 q 801 146 762 118 q 854 215 840 175 q 869 304 869 255 l 869 781 l 999 781 l 999 0 l 869 0 l 869 130 q 837 84 859 109 q 770 37 814 58 q 654 0 725 15 q 478 -15 583 -15 q 328 -4 391 -15 q 221 27 265 6 q 151 78 178 47 q 111 149 125 109 q 92 239 96 189 q 87 347 87 288 l 87 781 l 218 781 z "},"Ű":{"ha":1433,"x_min":87,"x_max":1346,"o":"m 963 1407 l 876 1537 l 486 1211 l 529 1146 l 963 1407 m 1338 1407 l 1251 1537 l 861 1211 l 904 1146 l 1338 1407 m 1346 1042 l 1346 521 q 1344 353 1346 429 q 1328 216 1341 277 q 1286 111 1315 156 q 1205 37 1258 66 q 1070 -7 1152 7 q 869 -22 989 -22 l 564 -22 q 363 -7 445 -22 q 229 37 281 7 q 147 111 176 66 q 105 216 118 156 q 90 353 92 277 q 87 521 87 429 l 87 1042 l 218 1042 l 218 521 q 219 353 218 423 q 231 235 221 283 q 261 157 240 186 q 320 113 281 128 q 418 92 359 97 q 564 87 477 87 l 869 87 q 1015 92 956 87 q 1113 113 1075 97 q 1173 157 1152 128 q 1203 235 1194 186 q 1215 353 1213 283 q 1216 521 1216 423 l 1215 1042 l 1346 1042 z "},"ű":{"ha":1086,"x_min":87,"x_max":1164,"o":"m 789 1103 l 703 1234 l 312 908 l 355 843 l 789 1103 m 1164 1103 l 1078 1234 l 687 908 l 730 843 l 1164 1103 m 218 781 l 218 347 q 229 225 218 275 q 272 144 239 175 q 364 100 304 114 q 522 87 424 87 q 695 102 627 87 q 801 146 762 118 q 854 215 840 175 q 869 304 869 255 l 869 781 l 999 781 l 999 0 l 869 0 l 869 130 q 837 84 859 109 q 770 37 814 58 q 654 0 725 15 q 478 -15 583 -15 q 328 -4 391 -15 q 221 27 265 6 q 151 78 178 47 q 111 149 125 109 q 92 239 96 189 q 87 347 87 288 l 87 781 l 218 781 z "},"Ų":{"ha":1433,"x_min":87,"x_max":1346,"o":"m 760 -398 q 665 -389 711 -398 q 581 -360 618 -380 q 522 -307 545 -340 q 500 -224 500 -273 q 507 -178 500 -200 q 527 -136 515 -155 q 555 -99 539 -116 q 587 -67 570 -81 q 673 -7 625 -34 l 760 -7 q 685 -72 711 -40 q 646 -130 659 -103 q 632 -175 634 -156 q 630 -203 630 -195 q 662 -271 630 -252 q 760 -290 694 -290 l 760 -398 m 1346 1042 l 1346 521 q 1344 353 1346 429 q 1328 216 1341 277 q 1286 111 1315 156 q 1205 37 1258 66 q 1070 -7 1152 7 q 869 -22 989 -22 l 564 -22 q 363 -7 445 -22 q 229 37 281 7 q 147 111 176 66 q 105 216 118 156 q 90 353 92 277 q 87 521 87 429 l 87 1042 l 218 1042 l 218 521 q 219 353 218 423 q 231 235 221 283 q 261 157 240 186 q 320 113 281 128 q 418 92 359 97 q 564 87 477 87 l 869 87 q 1015 92 956 87 q 1113 113 1075 97 q 1173 157 1152 128 q 1203 235 1194 186 q 1215 353 1213 283 q 1216 521 1216 423 l 1215 1042 l 1346 1042 z "},"ų":{"ha":1086,"x_min":87,"x_max":999,"o":"m 956 -387 q 861 -378 907 -387 q 777 -349 814 -370 q 718 -296 741 -329 q 696 -214 696 -262 q 703 -167 696 -189 q 723 -125 711 -144 q 751 -88 735 -105 q 783 -56 766 -71 q 869 3 821 -23 l 956 3 q 881 -61 907 -29 q 842 -119 854 -92 q 828 -164 830 -145 q 826 -192 826 -184 q 858 -260 826 -241 q 956 -279 890 -279 l 956 -387 m 218 781 l 218 347 q 229 225 218 275 q 272 144 239 175 q 364 100 304 114 q 522 87 424 87 q 695 102 627 87 q 801 146 762 118 q 854 215 840 175 q 869 304 869 255 l 869 781 l 999 781 l 999 0 l 869 0 l 869 130 q 837 84 859 109 q 770 37 814 58 q 654 0 725 15 q 478 -15 583 -15 q 328 -4 391 -15 q 221 27 265 6 q 151 78 178 47 q 111 149 125 109 q 92 239 96 189 q 87 347 87 288 l 87 781 l 218 781 z "},"Ŵ":{"ha":2344,"x_min":87,"x_max":2257,"o":"m 1367 1146 l 1454 1211 l 1237 1537 l 1107 1537 l 890 1211 l 977 1146 l 1172 1450 l 1367 1146 m 1118 1042 l 1270 1042 l 1693 109 l 2105 1042 l 2257 1042 l 1780 0 l 1606 0 l 1194 911 l 781 0 l 608 0 l 87 1042 l 239 1042 l 694 109 l 1118 1042 z "},"ŵ":{"ha":1606,"x_min":87,"x_max":1519,"o":"m 998 843 l 1085 908 l 868 1234 l 738 1234 l 521 908 l 608 843 l 803 1147 l 998 843 m 1519 781 l 1367 781 l 1126 98 l 868 781 l 738 781 l 477 98 l 239 781 l 87 781 l 391 0 l 564 0 l 803 640 l 1042 0 l 1215 0 l 1519 781 z "},"Ŷ":{"ha":1492,"x_min":87,"x_max":1389,"o":"m 933 1146 l 1020 1211 l 803 1537 l 673 1537 l 456 1211 l 543 1146 l 738 1450 l 933 1146 m 87 1042 l 260 1042 l 738 532 l 1215 1042 l 1389 1042 l 803 434 l 803 0 l 673 0 l 673 434 l 87 1042 z "},"ŷ":{"ha":1150,"x_min":87,"x_max":1063,"o":"m 770 843 l 857 908 l 640 1234 l 510 1234 l 293 908 l 380 843 l 575 1147 l 770 843 m 499 0 l 543 0 q 523 -41 532 -22 q 503 -78 515 -61 q 472 -109 490 -95 q 424 -132 454 -122 q 349 -147 393 -142 q 239 -152 304 -152 l 239 -260 q 370 -253 315 -260 q 466 -233 426 -246 q 534 -201 507 -220 q 583 -158 562 -182 q 619 -105 603 -134 q 651 -43 635 -76 l 673 0 l 1063 781 l 911 781 l 586 87 l 239 781 l 87 781 l 499 0 z "},"Ÿ":{"ha":1492,"x_min":87,"x_max":1389,"o":"m 87 1042 l 260 1042 l 738 532 l 1215 1042 l 1389 1042 l 803 434 l 803 0 l 673 0 l 673 434 l 87 1042 m 551 1345 l 420 1345 l 420 1215 l 551 1215 l 551 1345 m 1072 1345 l 941 1345 l 941 1215 l 1072 1215 l 1072 1345 z "},"Ź":{"ha":1388,"x_min":87,"x_max":1302,"o":"m 1139 1407 l 1053 1537 l 662 1211 l 705 1146 l 1139 1407 m 87 0 l 87 109 l 1095 933 l 130 933 l 130 1042 l 1280 1042 l 1280 933 l 267 109 l 1302 109 l 1302 0 l 87 0 z "},"ź":{"ha":998,"x_min":87,"x_max":955,"o":"m 955 1103 l 868 1234 l 477 908 l 521 843 l 955 1103 m 130 781 l 130 686 l 749 686 l 87 109 l 87 0 l 911 0 l 911 97 l 259 97 l 911 673 l 911 781 l 130 781 z "},"Ż":{"ha":1388,"x_min":87,"x_max":1302,"o":"m 770 1276 l 640 1276 l 640 1146 l 770 1146 l 770 1276 m 87 0 l 87 109 l 1095 933 l 130 933 l 130 1042 l 1280 1042 l 1280 933 l 267 109 l 1302 109 l 1302 0 l 87 0 z "},"ż":{"ha":998,"x_min":87,"x_max":911,"o":"m 586 974 l 456 974 l 456 844 l 586 844 l 586 974 m 130 781 l 130 686 l 749 686 l 87 109 l 87 0 l 911 0 l 911 97 l 259 97 l 911 673 l 911 781 l 130 781 z "},"Ž":{"ha":1388,"x_min":87,"x_max":1302,"o":"m 87 0 l 87 109 l 1095 933 l 130 933 l 130 1042 l 1280 1042 l 1280 933 l 267 109 l 1302 109 l 1302 0 l 87 0 m 694 1259 l 498 1563 l 412 1497 l 629 1172 l 759 1172 l 976 1497 l 889 1563 l 694 1259 z "},"ž":{"ha":998,"x_min":87,"x_max":911,"o":"m 130 781 l 130 686 l 749 686 l 87 109 l 87 0 l 911 0 l 911 97 l 259 97 l 911 673 l 911 781 l 130 781 m 499 955 l 304 1259 l 217 1194 l 434 868 l 564 868 l 781 1194 l 694 1259 l 499 955 z "},"Ɖ":{"ha":1432,"x_min":0,"x_max":1345,"o":"m 0 477 l 87 477 l 87 0 l 867 0 q 1068 14 987 0 q 1203 56 1150 28 q 1285 127 1257 85 q 1328 228 1314 170 q 1343 359 1341 286 q 1345 521 1345 432 q 1343 683 1345 610 q 1328 813 1341 755 q 1285 914 1314 871 q 1203 985 1257 957 q 1068 1028 1150 1014 q 867 1042 987 1042 l 87 1042 l 87 586 l 0 586 l 0 477 m 217 109 l 217 477 l 521 477 l 521 586 l 217 586 l 217 933 l 867 933 q 1014 928 954 933 q 1112 909 1073 924 q 1171 867 1150 895 q 1202 793 1192 839 q 1214 681 1212 747 q 1215 521 1215 614 q 1214 361 1215 428 q 1202 249 1212 294 q 1171 175 1192 203 q 1112 133 1150 147 q 1013 113 1073 118 q 867 109 954 109 l 217 109 z "},"ƒ":{"ha":803,"x_min":-1,"x_max":651,"o":"m 217 651 l 87 651 l 87 738 l 217 738 l 217 781 q 235 917 217 863 q 293 1004 252 971 q 400 1050 334 1036 q 565 1063 467 1063 l 651 1063 l 651 955 l 564 955 q 461 952 503 955 q 394 933 420 949 q 358 882 369 917 q 347 781 347 846 l 347 738 l 651 738 l 651 651 l 347 651 l 347 87 q 330 -49 347 5 q 271 -136 312 -103 q 164 -182 231 -168 q -1 -195 97 -195 l 0 -87 q 103 -84 62 -87 q 170 -65 144 -81 q 206 -14 195 -49 q 217 87 217 22 l 217 651 z "},"ǀ":{"ha":304,"x_min":87,"x_max":217,"o":"m 87 -87 l 217 -87 l 217 1085 l 87 1085 l 87 -87 z "},"ǁ":{"ha":608,"x_min":87,"x_max":521,"o":"m 391 -87 l 521 -87 l 521 1085 l 391 1085 l 391 -87 m 87 -87 l 217 -87 l 217 1085 l 87 1085 l 87 -87 z "},"Ǆ":{"ha":2820,"x_min":87,"x_max":2734,"o":"m 1519 0 l 1519 109 l 2527 933 l 1563 933 l 1563 1042 l 2713 1042 l 2713 933 l 1699 109 l 2734 109 l 2734 0 l 1519 0 m 2126 1259 l 1931 1563 l 1844 1497 l 2061 1172 l 2191 1172 l 2408 1497 l 2321 1563 l 2126 1259 m 868 109 q 1014 113 954 109 q 1112 133 1074 118 q 1172 175 1151 147 q 1203 249 1193 203 q 1214 361 1213 294 q 1216 521 1216 428 q 1214 681 1216 614 q 1203 793 1213 747 q 1172 867 1193 839 q 1112 909 1151 895 q 1014 928 1074 924 q 868 933 955 933 l 218 933 l 218 109 l 868 109 m 87 0 l 87 1042 l 868 1042 q 1069 1028 987 1042 q 1204 985 1151 1014 q 1286 914 1257 957 q 1328 813 1315 871 q 1344 683 1341 755 q 1346 521 1346 610 q 1344 359 1346 432 q 1328 228 1341 286 q 1286 127 1315 170 q 1204 56 1257 85 q 1069 14 1151 28 q 868 0 987 0 l 87 0 z "},"ǅ":{"ha":2431,"x_min":87,"x_max":2344,"o":"m 1563 781 l 1563 686 l 2181 686 l 1519 109 l 1519 0 l 2344 0 l 2344 97 l 1691 97 l 2344 673 l 2344 781 l 1563 781 m 1931 955 l 1736 1259 l 1649 1194 l 1866 868 l 1997 868 l 2214 1194 l 2127 1259 l 1931 955 m 868 109 q 1014 113 954 109 q 1112 133 1074 118 q 1172 175 1151 147 q 1203 249 1193 203 q 1214 361 1213 294 q 1216 521 1216 428 q 1214 681 1216 614 q 1203 793 1213 747 q 1172 867 1193 839 q 1112 909 1151 895 q 1014 928 1074 924 q 868 933 955 933 l 218 933 l 218 109 l 868 109 m 87 0 l 87 1042 l 868 1042 q 1069 1028 987 1042 q 1204 985 1151 1014 q 1286 914 1257 957 q 1328 813 1315 871 q 1344 683 1341 755 q 1346 521 1346 610 q 1344 359 1346 432 q 1328 228 1341 286 q 1286 127 1315 170 q 1204 56 1257 85 q 1069 14 1151 28 q 868 0 987 0 l 87 0 z "},"ǆ":{"ha":2127,"x_min":87,"x_max":2040,"o":"m 1259 781 l 1259 686 l 1877 686 l 1215 109 l 1215 0 l 2040 0 l 2040 97 l 1388 97 l 2040 673 l 2040 781 l 1259 781 m 1628 955 l 1432 1259 l 1345 1194 l 1563 868 l 1693 868 l 1910 1194 l 1823 1259 l 1628 955 m 564 -15 q 343 4 434 -15 q 195 69 252 23 q 113 193 138 115 q 87 389 87 271 q 113 591 87 511 q 195 718 138 671 q 343 784 252 765 q 564 803 434 803 q 719 793 656 803 q 821 770 781 784 q 881 739 861 755 q 911 708 902 722 l 911 1042 l 1042 1042 l 1042 0 l 911 0 l 911 116 q 879 77 911 116 q 816 33 850 50 q 719 0 781 16 q 564 -15 656 -15 m 564 87 q 680 90 629 87 q 770 103 731 93 q 835 133 808 113 q 879 186 862 153 q 904 269 896 220 q 911 387 911 318 q 904 510 911 459 q 879 594 896 560 q 835 648 862 629 q 770 679 808 668 q 680 692 731 689 q 564 694 629 694 q 433 690 488 694 q 339 673 378 685 q 276 639 300 661 q 239 583 252 617 q 221 502 226 549 q 217 389 217 454 q 221 278 217 326 q 239 198 226 231 q 276 142 252 164 q 339 109 300 121 q 433 92 378 96 q 564 87 488 87 z "},"Ǉ":{"ha":2257,"x_min":87,"x_max":2170,"o":"m 1519 0 q 1362 18 1421 0 q 1270 76 1302 35 q 1226 183 1237 117 q 1215 347 1215 250 l 1215 391 l 1345 391 l 1345 347 q 1354 218 1345 266 q 1383 145 1363 170 q 1437 113 1404 120 q 1519 106 1470 106 l 1823 106 q 1930 118 1888 106 q 1997 154 1972 130 q 2030 216 2021 178 q 2040 304 2040 253 l 2040 1042 l 2170 1042 l 2170 304 q 2153 165 2170 222 q 2094 71 2135 107 q 1987 17 2053 34 q 1823 0 1921 0 l 1519 0 m 87 0 l 87 1042 l 218 1042 l 218 109 l 1042 109 l 1042 0 l 87 0 z "},"ǈ":{"ha":1541,"x_min":87,"x_max":1454,"o":"m 1454 -43 q 1447 -134 1454 -94 q 1416 -202 1440 -174 q 1344 -245 1392 -230 q 1215 -260 1297 -260 l 1215 -152 q 1269 -147 1248 -152 q 1302 -130 1290 -142 q 1319 -97 1314 -118 q 1324 -43 1324 -76 l 1324 781 l 1454 781 l 1454 -43 m 1454 911 l 1324 911 l 1324 1042 l 1454 1042 l 1454 911 m 87 0 l 87 1042 l 218 1042 l 218 109 l 1042 109 l 1042 0 l 87 0 z "},"ǉ":{"ha":716,"x_min":87,"x_max":629,"o":"m 629 -43 q 623 -134 629 -94 q 591 -202 616 -174 q 519 -245 567 -230 q 391 -260 472 -260 l 391 -152 q 444 -147 423 -152 q 477 -130 465 -142 q 494 -97 490 -118 q 499 -43 499 -76 l 499 781 l 629 781 l 629 -43 m 629 911 l 499 911 l 499 1042 l 629 1042 l 629 911 m 87 1042 l 218 1042 l 218 0 l 87 0 l 87 1042 z "},"Ǌ":{"ha":2616,"x_min":87,"x_max":2529,"o":"m 1878 0 q 1721 18 1780 0 q 1628 76 1661 35 q 1585 183 1596 117 q 1574 347 1574 250 l 1574 391 l 1704 391 l 1704 347 q 1713 218 1704 266 q 1742 145 1722 170 q 1796 113 1763 120 q 1878 106 1829 106 l 2182 106 q 2289 118 2247 106 q 2355 154 2331 130 q 2389 216 2380 178 q 2399 304 2399 253 l 2399 1042 l 2529 1042 l 2529 304 q 2511 165 2529 222 q 2453 71 2494 107 q 2346 17 2412 34 q 2182 0 2279 0 l 1878 0 m 218 0 l 87 0 l 87 1042 l 316 1042 l 1271 130 l 1271 1042 l 1401 1042 l 1401 0 l 1227 0 l 218 933 l 218 0 z "},"ǋ":{"ha":1900,"x_min":87,"x_max":1813,"o":"m 1813 -43 q 1806 -134 1813 -94 q 1775 -202 1799 -174 q 1703 -245 1750 -230 q 1574 -260 1655 -260 l 1574 -152 q 1628 -147 1607 -152 q 1661 -130 1649 -142 q 1678 -97 1673 -118 q 1683 -43 1683 -76 l 1683 781 l 1813 781 l 1813 -43 m 1813 911 l 1683 911 l 1683 1042 l 1813 1042 l 1813 911 m 218 0 l 87 0 l 87 1042 l 316 1042 l 1271 130 l 1271 1042 l 1401 1042 l 1401 0 l 1227 0 l 218 933 l 218 0 z "},"ǌ":{"ha":1499,"x_min":87,"x_max":1412,"o":"m 1412 -43 q 1405 -134 1412 -94 q 1374 -202 1398 -174 q 1302 -245 1350 -230 q 1173 -260 1255 -260 l 1173 -152 q 1227 -147 1206 -152 q 1260 -130 1248 -142 q 1277 -97 1272 -118 q 1282 -43 1282 -76 l 1282 781 l 1412 781 l 1412 -43 m 1412 911 l 1282 911 l 1282 1042 l 1412 1042 l 1412 911 m 868 0 l 868 434 q 857 556 868 507 q 814 637 846 606 q 722 681 781 667 q 564 694 662 694 q 391 679 458 694 q 285 635 323 663 q 232 566 246 606 q 217 477 217 526 l 217 0 l 87 0 l 87 781 l 217 781 l 217 651 q 258 708 231 684 q 317 749 284 732 q 389 777 351 766 q 467 793 428 787 q 542 801 505 799 q 608 803 578 803 q 757 792 694 803 q 864 760 820 781 q 934 708 907 739 q 975 636 960 677 q 994 544 989 595 q 999 434 999 494 l 998 0 l 868 0 z "},"Ǎ":{"ha":1563,"x_min":87,"x_max":1476,"o":"m 781 1233 l 586 1537 l 499 1472 l 716 1146 l 846 1146 l 1063 1472 l 977 1537 l 781 1233 m 1194 239 l 369 239 l 239 0 l 87 0 l 694 1042 l 868 1042 l 1476 0 l 1324 0 l 1194 239 m 1128 347 l 781 955 l 434 347 l 1128 347 z "},"ǎ":{"ha":1085,"x_min":87,"x_max":998,"o":"m 566 930 l 370 1234 l 283 1168 l 500 843 l 631 843 l 848 1168 l 761 1234 l 566 930 m 868 107 q 838 66 866 99 q 783 23 817 42 q 693 -6 749 5 q 544 -16 636 -16 q 334 -4 421 -16 q 193 35 248 9 q 112 102 138 61 q 87 199 87 142 q 101 299 87 258 q 141 368 115 340 q 206 411 168 395 q 293 435 244 427 q 399 445 341 443 q 522 447 456 447 q 677 439 614 447 q 779 419 739 431 q 839 394 819 408 q 868 369 859 380 q 862 498 868 445 q 841 588 855 552 q 803 645 826 624 q 746 677 780 667 q 668 691 713 688 q 566 694 623 694 q 417 690 476 694 q 323 673 358 686 q 275 637 289 660 q 260 578 260 614 l 130 578 q 152 682 130 640 q 225 752 174 725 q 360 791 277 779 q 566 803 444 803 q 768 783 685 803 q 902 714 850 764 q 976 581 953 665 q 998 369 998 497 l 998 0 l 868 0 l 868 107 m 566 87 q 710 95 652 87 q 803 119 768 103 q 853 160 838 136 q 868 217 868 184 q 851 272 868 250 q 793 309 833 295 q 686 330 753 323 q 522 336 620 336 q 365 333 425 336 q 272 317 304 330 q 228 281 239 305 q 217 217 217 258 q 229 151 217 176 q 277 111 241 125 q 383 92 314 97 q 566 87 452 87 z "},"Ǐ":{"ha":304,"x_min":-130,"x_max":435,"o":"m 153 1233 l -43 1537 l -130 1472 l 87 1146 l 218 1146 l 435 1472 l 348 1537 l 153 1233 m 87 1042 l 218 1042 l 218 0 l 87 0 l 87 1042 z "},"ǐ":{"ha":304,"x_min":-130,"x_max":435,"o":"m 153 930 l -43 1234 l -130 1168 l 87 843 l 218 843 l 435 1168 l 348 1234 l 153 930 m 87 0 l 217 0 l 217 738 l 87 738 l 87 0 z "},"Ǒ":{"ha":1520,"x_min":87,"x_max":1433,"o":"m 760 1233 l 565 1537 l 478 1472 l 695 1146 l 825 1146 l 1042 1472 l 956 1537 l 760 1233 m 956 1063 q 1157 1049 1076 1063 q 1292 1005 1239 1034 q 1373 930 1345 975 q 1415 825 1402 886 q 1431 689 1428 765 q 1433 521 1433 613 q 1431 353 1433 429 q 1415 216 1428 277 q 1373 111 1402 156 q 1292 37 1345 66 q 1157 -7 1239 7 q 956 -22 1076 -22 l 564 -22 q 363 -7 445 -22 q 229 37 281 7 q 147 111 176 66 q 105 216 118 156 q 90 353 92 277 q 87 521 87 429 q 90 689 87 613 q 105 825 92 765 q 147 930 118 886 q 229 1005 176 975 q 363 1049 281 1034 q 564 1063 445 1063 l 956 1063 m 956 87 q 1102 92 1042 87 q 1200 113 1161 97 q 1259 157 1238 128 q 1290 235 1280 186 q 1301 353 1299 283 q 1303 521 1303 423 q 1301 689 1303 618 q 1290 807 1299 759 q 1259 884 1280 855 q 1200 929 1238 913 q 1102 950 1162 945 q 956 955 1043 955 l 564 955 q 418 950 477 955 q 320 929 359 945 q 260 884 281 913 q 230 807 239 855 q 219 689 220 759 q 218 521 218 618 q 219 353 218 423 q 231 235 221 283 q 261 157 240 186 q 320 113 281 128 q 418 92 359 97 q 564 87 477 87 l 956 87 z "},"ǒ":{"ha":1128,"x_min":87,"x_max":1042,"o":"m 564 930 l 369 1234 l 282 1168 l 499 843 l 629 843 l 846 1168 l 760 1234 l 564 930 m 87 396 q 113 595 87 516 q 195 720 138 673 q 343 784 252 766 q 564 803 434 803 q 785 784 694 803 q 933 720 876 766 q 1016 595 990 673 q 1042 396 1042 516 q 1016 197 1042 276 q 933 71 990 117 q 785 4 876 24 q 564 -15 694 -15 q 343 4 434 -15 q 195 71 252 24 q 113 197 138 117 q 87 396 87 276 m 217 396 q 222 283 217 331 q 240 200 227 235 q 277 144 253 165 q 339 109 300 122 q 433 92 378 96 q 564 87 488 87 q 681 90 629 87 q 770 104 732 93 q 836 135 808 115 q 879 189 863 155 q 904 274 896 224 q 911 396 911 325 q 904 515 911 466 q 879 597 896 564 q 836 650 863 631 q 770 679 808 669 q 681 692 732 689 q 564 694 629 694 q 448 692 499 694 q 358 679 397 689 q 293 650 320 669 q 249 597 266 631 q 225 515 233 564 q 217 396 217 466 z "},"Ǔ":{"ha":1433,"x_min":87,"x_max":1346,"o":"m 717 1233 l 522 1537 l 435 1472 l 652 1146 l 782 1146 l 999 1472 l 912 1537 l 717 1233 m 1346 1042 l 1346 521 q 1344 353 1346 429 q 1328 216 1341 277 q 1286 111 1315 156 q 1205 37 1258 66 q 1070 -7 1152 7 q 869 -22 989 -22 l 564 -22 q 363 -7 445 -22 q 229 37 281 7 q 147 111 176 66 q 105 216 118 156 q 90 353 92 277 q 87 521 87 429 l 87 1042 l 218 1042 l 218 521 q 219 353 218 423 q 231 235 221 283 q 261 157 240 186 q 320 113 281 128 q 418 92 359 97 q 564 87 477 87 l 869 87 q 1015 92 956 87 q 1113 113 1075 97 q 1173 157 1152 128 q 1203 235 1194 186 q 1215 353 1213 283 q 1216 521 1216 423 l 1215 1042 l 1346 1042 z "},"ǔ":{"ha":1086,"x_min":87,"x_max":999,"o":"m 543 930 l 347 1234 l 260 1168 l 477 843 l 608 843 l 825 1168 l 738 1234 l 543 930 m 218 781 l 218 347 q 229 225 218 275 q 272 144 239 175 q 364 100 304 114 q 522 87 424 87 q 695 102 627 87 q 801 146 762 118 q 854 215 840 175 q 869 304 869 255 l 869 781 l 999 781 l 999 0 l 869 0 l 869 130 q 837 84 859 109 q 770 37 814 58 q 654 0 725 15 q 478 -15 583 -15 q 328 -4 391 -15 q 221 27 265 6 q 151 78 178 47 q 111 149 125 109 q 92 239 96 189 q 87 347 87 288 l 87 781 l 218 781 z "},"Ǖ":{"ha":1433,"x_min":87,"x_max":1346,"o":"m 456 1428 l 977 1428 l 977 1537 l 456 1537 l 456 1428 m 1346 1042 l 1346 521 q 1344 353 1346 429 q 1328 216 1341 277 q 1286 111 1315 156 q 1205 37 1258 66 q 1070 -7 1152 7 q 869 -22 989 -22 l 564 -22 q 363 -7 445 -22 q 229 37 281 7 q 147 111 176 66 q 105 216 118 156 q 90 353 92 277 q 87 521 87 429 l 87 1042 l 218 1042 l 218 521 q 219 353 218 423 q 231 235 221 283 q 261 157 240 186 q 320 113 281 128 q 418 92 359 97 q 564 87 477 87 l 869 87 q 1015 92 956 87 q 1113 113 1075 97 q 1173 157 1152 128 q 1203 235 1194 186 q 1215 353 1213 283 q 1216 521 1216 423 l 1215 1042 l 1346 1042 m 521 1345 l 391 1345 l 391 1215 l 521 1215 l 521 1345 m 1042 1345 l 911 1345 l 911 1215 l 1042 1215 l 1042 1345 z "},"ǖ":{"ha":1086,"x_min":87,"x_max":999,"o":"m 283 1124 l 804 1124 l 804 1233 l 283 1233 l 283 1124 m 218 781 l 218 347 q 229 225 218 275 q 272 144 239 175 q 364 100 304 114 q 522 87 424 87 q 695 102 627 87 q 801 146 762 118 q 854 215 840 175 q 869 304 869 255 l 869 781 l 999 781 l 999 0 l 869 0 l 869 130 q 837 84 859 109 q 770 37 814 58 q 654 0 725 15 q 478 -15 583 -15 q 328 -4 391 -15 q 221 27 265 6 q 151 78 178 47 q 111 149 125 109 q 92 239 96 189 q 87 347 87 288 l 87 781 l 218 781 m 348 1042 l 218 1042 l 218 911 l 348 911 l 348 1042 m 869 1042 l 739 1042 l 739 911 l 869 911 l 869 1042 z "},"Ǘ":{"ha":1433,"x_min":87,"x_max":1346,"o":"m 1150 1689 l 1063 1819 l 673 1493 l 716 1428 l 1150 1689 m 1346 1042 l 1346 521 q 1344 353 1346 429 q 1328 216 1341 277 q 1286 111 1315 156 q 1205 37 1258 66 q 1070 -7 1152 7 q 869 -22 989 -22 l 564 -22 q 363 -7 445 -22 q 229 37 281 7 q 147 111 176 66 q 105 216 118 156 q 90 353 92 277 q 87 521 87 429 l 87 1042 l 218 1042 l 218 521 q 219 353 218 423 q 231 235 221 283 q 261 157 240 186 q 320 113 281 128 q 418 92 359 97 q 564 87 477 87 l 869 87 q 1015 92 956 87 q 1113 113 1075 97 q 1173 157 1152 128 q 1203 235 1194 186 q 1215 353 1213 283 q 1216 521 1216 423 l 1215 1042 l 1346 1042 m 521 1345 l 391 1345 l 391 1215 l 521 1215 l 521 1345 m 1042 1345 l 911 1345 l 911 1215 l 1042 1215 l 1042 1345 z "},"ǘ":{"ha":1086,"x_min":87,"x_max":999,"o":"m 977 1385 l 890 1515 l 500 1190 l 543 1124 l 977 1385 m 218 781 l 218 347 q 229 225 218 275 q 272 144 239 175 q 364 100 304 114 q 522 87 424 87 q 695 102 627 87 q 801 146 762 118 q 854 215 840 175 q 869 304 869 255 l 869 781 l 999 781 l 999 0 l 869 0 l 869 130 q 837 84 859 109 q 770 37 814 58 q 654 0 725 15 q 478 -15 583 -15 q 328 -4 391 -15 q 221 27 265 6 q 151 78 178 47 q 111 149 125 109 q 92 239 96 189 q 87 347 87 288 l 87 781 l 218 781 m 348 1042 l 218 1042 l 218 911 l 348 911 l 348 1042 m 869 1042 l 739 1042 l 739 911 l 869 911 l 869 1042 z "},"Ǚ":{"ha":1433,"x_min":87,"x_max":1346,"o":"m 716 1515 l 521 1819 l 434 1754 l 651 1428 l 781 1428 l 998 1754 l 911 1819 l 716 1515 m 1346 1042 l 1346 521 q 1344 353 1346 429 q 1328 216 1341 277 q 1286 111 1315 156 q 1205 37 1258 66 q 1070 -7 1152 7 q 869 -22 989 -22 l 564 -22 q 363 -7 445 -22 q 229 37 281 7 q 147 111 176 66 q 105 216 118 156 q 90 353 92 277 q 87 521 87 429 l 87 1042 l 218 1042 l 218 521 q 219 353 218 423 q 231 235 221 283 q 261 157 240 186 q 320 113 281 128 q 418 92 359 97 q 564 87 477 87 l 869 87 q 1015 92 956 87 q 1113 113 1075 97 q 1173 157 1152 128 q 1203 235 1194 186 q 1215 353 1213 283 q 1216 521 1216 423 l 1215 1042 l 1346 1042 m 521 1345 l 391 1345 l 391 1215 l 521 1215 l 521 1345 m 1042 1345 l 911 1345 l 911 1215 l 1042 1215 l 1042 1345 z "},"ǚ":{"ha":1086,"x_min":87,"x_max":999,"o":"m 543 1211 l 348 1515 l 261 1450 l 478 1124 l 608 1124 l 825 1450 l 739 1515 l 543 1211 m 218 781 l 218 347 q 229 225 218 275 q 272 144 239 175 q 364 100 304 114 q 522 87 424 87 q 695 102 627 87 q 801 146 762 118 q 854 215 840 175 q 869 304 869 255 l 869 781 l 999 781 l 999 0 l 869 0 l 869 130 q 837 84 859 109 q 770 37 814 58 q 654 0 725 15 q 478 -15 583 -15 q 328 -4 391 -15 q 221 27 265 6 q 151 78 178 47 q 111 149 125 109 q 92 239 96 189 q 87 347 87 288 l 87 781 l 218 781 m 348 1042 l 218 1042 l 218 911 l 348 911 l 348 1042 m 869 1042 l 739 1042 l 739 911 l 869 911 l 869 1042 z "}}}
